<?xml version="1.0" standalone="no"?>
<!DOCTYPE svg PUBLIC "-//W3C//DTD SVG 1.1//EN" "http://www.w3.org/Graphics/SVG/1.1/DTD/svg11.dtd" >
<svg>
<metadata>
Created by FontForge 20090622 at Sun Sep 11 13:42:50 2016
 By deploy user
Copyright (c) 2012 by Fontfabric LLC. All rights reserved.
</metadata>
<defs>
<font id="NexaHeavy" horiz-adv-x="616" >
  <font-face 
    font-family="Nexa Heavy"
    font-weight="900"
    font-stretch="normal"
    units-per-em="1000"
    panose-1="2 0 0 0 0 0 0 0 0 0"
    ascent="750"
    descent="-250"
    x-height="493"
    cap-height="700"
    bbox="-171 -298 1160 984"
    underline-thickness="50"
    underline-position="-50"
    unicode-range="U+0020-U+FB02"
  />
<missing-glyph horiz-adv-x="665" 
d="M242 142q0 -41 31 -57.5t62 0t31 57.5q0 32 -19.5 49.5t-42.5 17.5t-42.5 -17.5t-19.5 -49.5zM142 443h108q-1 24 20 42t50 18q73 0 74 -57q0 -17 -9.5 -26t-33.5 -18t-34 -15q-2 -2 -13.5 -11.5t-17.5 -17t-14.5 -22t-12 -36t-3.5 -49.5l107 -1q0 18 7 49q10 9 36 21.5
t46 24t36.5 38t15.5 63.5q0 75 -53 114.5t-131 39.5t-128.5 -41t-49.5 -116zM52 0v700h538v-700h-538z" />
    <glyph glyph-name=".notdef" horiz-adv-x="665" 
d="M242 142q0 -41 31 -57.5t62 0t31 57.5q0 32 -19.5 49.5t-42.5 17.5t-42.5 -17.5t-19.5 -49.5zM142 443h108q-1 24 20 42t50 18q73 0 74 -57q0 -17 -9.5 -26t-33.5 -18t-34 -15q-2 -2 -13.5 -11.5t-17.5 -17t-14.5 -22t-12 -36t-3.5 -49.5l107 -1q0 18 7 49q10 9 36 21.5
t46 24t36.5 38t15.5 63.5q0 75 -53 114.5t-131 39.5t-128.5 -41t-49.5 -116zM52 0v700h538v-700h-538z" />
    <glyph glyph-name=".null" horiz-adv-x="0" 
 />
    <glyph glyph-name="nonmarkingreturn" horiz-adv-x="333" 
 />
    <glyph glyph-name="space" unicode=" " horiz-adv-x="237" 
 />
    <glyph glyph-name="exclam" unicode="!" horiz-adv-x="299" 
d="M72 701h155l-4 -488h-148q0 82 -1.5 243.5t-1.5 244.5zM62 83q0 41 27.5 65t60.5 24t60.5 -24t27.5 -65t-27.5 -64.5t-60.5 -23.5t-60.5 23.5t-27.5 64.5z" />
    <glyph glyph-name="quotedbl" unicode="&#x22;" horiz-adv-x="459" 
d="M64 699h131v-271h-131v271zM262 699h133v-271h-133v271z" />
    <glyph glyph-name="numbersign" unicode="#" horiz-adv-x="700" 
d="M252 700h134l-37 -150h109l38 150h133l-37 -150h72v-116h-101l-47 -182h79v-117h-106l-33 -135h-134l33 135h-110l-33 -135h-133l33 135h-76v117h106l46 183h-83v115h110zM440 443h-126l-50 -198h126z" />
    <glyph glyph-name="dollar" unicode="$" horiz-adv-x="715" 
d="M647 581l-123 -57q-15 32 -61 55.5t-102 23.5q-58 0 -99 -22t-42 -64q0 -21 12 -36.5t35 -23.5t46 -12t55 -7q50 -5 90 -13.5t83 -25.5t71.5 -41.5t47 -64.5t18.5 -91q0 -98 -61.5 -155.5t-179.5 -69.5v-95h-137v94q-90 9 -163.5 57.5t-104.5 123.5l130 63
q22 -47 79.5 -78t119.5 -31q78 0 119 18.5t41 72.5q0 83 -165 96q-52 5 -88 11t-77 21.5t-66.5 37.5t-42 60t-16.5 89q1 93 69 145.5t169 60.5v83h132v-83q152 -17 211 -142z" />
    <glyph glyph-name="percent" unicode="%" horiz-adv-x="815" 
d="M200 704q79 0 122.5 -47.5t43.5 -112.5q0 -66 -43.5 -113.5t-122.5 -47.5t-122.5 47.5t-43.5 113.5q0 65 43.5 112.5t122.5 47.5zM558 699h157l-458 -700h-159zM615 314q79 0 122.5 -47.5t43.5 -112.5q0 -66 -43.5 -113.5t-122.5 -47.5t-122.5 47.5t-43.5 113.5
q0 65 43.5 112.5t122.5 47.5zM615 210q-26 0 -41 -17t-15 -40t15 -39.5t41 -16.5t40.5 16.5t14.5 39.5q0 24 -14.5 40.5t-40.5 16.5zM200 602q-27 0 -42 -17t-15 -41q0 -23 15 -40t42 -17t41.5 16.5t14.5 40.5t-14.5 41t-41.5 17z" />
    <glyph glyph-name="ampersand" unicode="&#x26;" horiz-adv-x="717" 
d="M325 300q-59 0 -91.5 -24t-32.5 -56q0 -28 13 -47.5t34 -28.5t42 -13t43 -4q23 0 51 8t54.5 32.5t26.5 59.5v73h-140zM603 300v-90q0 -27 19 -47.5t51 -13.5v-154q-59 -8 -103 13t-59 78q-29 -50 -82 -74t-116 -23q-52 0 -96 10t-83.5 33t-62.5 65.5t-24 101.5
q-1 53 29.5 95t84.5 66q-43 14 -68.5 56.5t-25.5 81.5q0 59 25.5 103t68 67t87 34t91.5 11q110 0 183.5 -49t81.5 -156h-143q-6 38 -43.5 58.5t-82.5 19.5q-47 -1 -80 -24.5t-33 -63.5q0 -79 111 -79h326v-119h-56z" />
    <glyph glyph-name="quotesingle" unicode="'" horiz-adv-x="258" 
d="M64 697h130v-271h-130v271z" />
    <glyph glyph-name="parenleft" unicode="(" horiz-adv-x="361" 
d="M274 773l72 -99q-79 -66 -121 -165t-41 -205q0 -117 39.5 -214.5t117.5 -161.5l-72 -97q-234 155 -234 473q0 150 64 270.5t175 198.5z" />
    <glyph glyph-name="parenright" unicode=")" horiz-adv-x="361" 
d="M15 674l72 99q111 -78 175 -198.5t64 -270.5q0 -318 -234 -473l-72 97q78 64 117.5 161.5t39.5 214.5q1 106 -41 205t-121 165z" />
    <glyph glyph-name="asterisk" unicode="*" horiz-adv-x="410" 
d="M342 464l-78 -58l-57 85l-56 -87l-81 60l62 73l-90 21l28 90l89 -33l-5 93h103l-11 -93l94 35l27 -92l-91 -19z" />
    <glyph glyph-name="plus" unicode="+" horiz-adv-x="497" 
d="M43 391h138v144h132v-144h141v-126h-141v-144h-132v144h-138v126z" />
    <glyph glyph-name="comma" unicode="," horiz-adv-x="263" 
d="M211 64q0 -23 -6 -47.5t-20.5 -64t-18.5 -53.5h-77l15 104q-25 4 -39.5 19t-14.5 40q0 48 40 67.5t80.5 0t40.5 -65.5z" />
    <glyph glyph-name="hyphen" unicode="-" horiz-adv-x="493" 
d="M59 230v125h375v-125h-375z" />
    <glyph glyph-name="period" unicode="." horiz-adv-x="264" 
d="M50 73q0 38 25.5 60t56.5 22t56.5 -22t25.5 -60t-25.5 -60t-56.5 -22t-56.5 22t-25.5 60z" />
    <glyph glyph-name="slash" unicode="/" horiz-adv-x="509" 
d="M344 768h141l-322 -850h-140z" />
    <glyph glyph-name="zero" unicode="0" horiz-adv-x="723" 
d="M205 401v-101q0 -89 43 -135.5t113 -46.5q71 0 114 46.5t43 135.5v101q0 87 -42.5 133t-111.5 46q-71 0 -115 -45.5t-44 -133.5zM50 300v102q0 156 89 238t225 82q134 0 221 -83t87 -237v-101q0 -153 -87.5 -237t-218.5 -84q-85 0 -155 33t-115.5 107.5t-45.5 179.5z" />
    <glyph glyph-name="one" unicode="1" horiz-adv-x="453" 
d="M52 0v128h118v378l-112 -35v136l259 93v-572h110v-128h-375z" />
    <glyph glyph-name="two" unicode="2" horiz-adv-x="675" 
d="M209 492h-150q3 59 28 102.5t65.5 67.5t87.5 35.5t101 11.5q120 0 200.5 -56.5t80.5 -163.5q0 -122 -74 -172.5t-206 -50.5q-28 0 -48.5 -3t-44.5 -11.5t-37.5 -29t-13.5 -51.5v-27h419v-144h-566v172q0 54 17.5 95.5t45 66.5t67 41t78 21.5t83.5 5.5q50 0 88.5 19
t38.5 65q0 43 -34 66.5t-94 23.5q-52 0 -90.5 -22t-41.5 -62z" />
    <glyph glyph-name="three" unicode="3" horiz-adv-x="681" 
d="M342 295h-107v127h97q24 0 42 2t40 8t34 21t12 38q0 30 -27.5 54.5t-96.5 24.5q-115 0 -128 -68h-155q5 57 31 99t66.5 65.5t87 34.5t99.5 11q63 0 119 -16.5t101.5 -58.5t55.5 -105q10 -58 -14.5 -105t-74.5 -69q61 -25 88.5 -76.5t18.5 -114.5q-30 -181 -300 -181
q-114 0 -197.5 56.5t-91.5 170.5h157q11 -88 133 -88q20 0 40 3t43.5 11.5t38 26.5t14.5 44q0 85 -126 85z" />
    <glyph glyph-name="four" unicode="4" horiz-adv-x="684" 
d="M408 699h155v-438h80v-135h-80v-127h-153v127h-373l-13 160zM184 261h226v249z" />
    <glyph glyph-name="five" unicode="5" horiz-adv-x="658" 
d="M578 699v-140h-368v-108h123q60 0 108.5 -10.5t89.5 -35t63.5 -71t22.5 -111.5q0 -62 -25.5 -108.5t-67 -72.5t-89 -38.5t-98.5 -12.5q-131 0 -208 53.5t-78 171.5h154q0 -43 39.5 -65t90.5 -22q25 0 51 6t51.5 28.5t25.5 59.5q0 28 -13 47.5t-34.5 29t-42 13.5t-40.5 4
h-268v382h513z" />
    <glyph glyph-name="six" unicode="6" horiz-adv-x="695" 
d="M211 474v-78q32 35 70 49.5t94 14.5q119 0 197.5 -61t78.5 -174q0 -61 -25 -108t-67 -74.5t-93.5 -41t-109.5 -13.5q-122 0 -209.5 60t-87.5 179v247q0 78 43 134t107.5 81t141.5 25q126 0 204 -50.5t83 -162.5h-146q-8 41 -48 60.5t-94 19.5q-57 0 -97.5 -29.5
t-41.5 -77.5zM356 126q60 0 100 27t40 72q0 48 -37.5 75.5t-101.5 27.5q-65 0 -105 -27.5t-39 -75.5q1 -46 40.5 -72.5t102.5 -26.5z" />
    <glyph glyph-name="seven" unicode="7" horiz-adv-x="560" 
d="M259 0h-175l261 558h-314v142h515l5 -77z" />
    <glyph glyph-name="eight" unicode="8" horiz-adv-x="709" 
d="M354 300q-63 0 -103 -23.5t-41 -63.5q-1 -35 32.5 -63.5t111.5 -28.5t111.5 28.5t31.5 63.5q-1 40 -38.5 63.5t-104.5 23.5zM46 221q1 37 29.5 80.5t80.5 61.5q-49 27 -71 72t-15 98q11 87 89 135t193 48q123 0 201 -48.5t89 -140.5q6 -51 -18 -93t-71 -63
q57 -21 82.5 -65t26.5 -85q2 -81 -42 -136.5t-113 -78.5t-155 -22q-85 1 -152 23.5t-111.5 77.5t-42.5 136zM227 504q2 -37 35.5 -62t91.5 -25t91 25t35 62q2 33 -31 60t-97 27q-68 0 -97.5 -29.5t-27.5 -57.5z" />
    <glyph glyph-name="nine" unicode="9" horiz-adv-x="700" 
d="M488 228v78q-32 -35 -70 -49.5t-94 -14.5q-119 0 -197.5 61t-78.5 174q0 61 25 108t67 74.5t93.5 41t109.5 13.5q122 0 209.5 -60t87.5 -179v-247q0 -63 -25.5 -111t-69.5 -75.5t-95.5 -40.5t-109.5 -13q-127 0 -206.5 51t-84.5 162h146q8 -40 49.5 -58.5t96.5 -18.5
q61 0 103.5 26t43.5 78zM343 576q-60 0 -100 -27t-40 -72q0 -48 37.5 -75.5t101.5 -27.5q65 0 105 27.5t39 75.5q-1 46 -40.5 72.5t-102.5 26.5z" />
    <glyph glyph-name="colon" unicode=":" horiz-adv-x="279" 
d="M59 73q0 50 40.5 70.5t80.5 0t40 -70.5q0 -37 -25 -58t-55.5 -21t-55.5 21t-25 58zM59 360q0 50 40.5 70.5t80.5 0t40 -70.5q0 -37 -25 -58t-55.5 -21t-55.5 21t-25 58z" />
    <glyph glyph-name="semicolon" unicode=";" horiz-adv-x="287" 
d="M65 360q0 50 40.5 70.5t80.5 0t40 -70.5q0 -37 -25 -58t-55.5 -21t-55.5 21t-25 58zM223 62q0 -10 -1 -21t-4.5 -24l-6 -22.5t-7.5 -25t-8 -23l-9.5 -25t-8.5 -22.5h-77l18 99q-25 4 -41 21.5t-16 42.5q0 37 25 58t55.5 21t55.5 -20.5t25 -58.5z" />
    <glyph glyph-name="less" unicode="&#x3c;" horiz-adv-x="418" 
d="M213 313l147 -145l-93 -99l-235 241v7l235 241l94 -99z" />
    <glyph glyph-name="equal" unicode="=" horiz-adv-x="570" 
d="M64 128v128h442v-128h-442zM64 363v129h442v-129h-442z" />
    <glyph glyph-name="greater" unicode="&#x3e;" horiz-adv-x="420" 
d="M59 160l147 153l-148 154l94 91l236 -241v-7l-236 -241z" />
    <glyph glyph-name="question" unicode="?" horiz-adv-x="598" 
d="M196 82q0 35 19 58.5t46 29t54 0t46 -29t19 -58.5q0 -43 -29 -67.5t-63 -24.5t-63 24.5t-29 67.5zM188 489h-156q1 107 73 167t190 60q107 0 177 -42t87 -123q9 -48 -1 -85t-32 -57.5t-50 -41t-53 -37t-42 -44.5t-17 -64h-155q1 55 16.5 95t38 60.5t48 37.5t46.5 28
t33 30t8 45q-4 30 -33 46.5t-71 16.5q-45 0 -75 -25.5t-32 -66.5z" />
    <glyph glyph-name="at" unicode="@" horiz-adv-x="928" 
d="M465 561q-133 0 -226.5 -89t-93.5 -229q0 -153 91 -229t225 -76q80 0 147 39l41 -81q-86 -51 -191 -51q-78 0 -150 24.5t-132 71.5t-96 125t-36 177q0 95 35.5 173.5t95 129t134.5 78t156 27.5q122 0 217 -43t153 -135t58 -222q0 -119 -52 -190t-140 -71q-35 0 -65 18
t-37 60q-22 -31 -64.5 -51t-73.5 -20q-110 0 -183 69t-73 177q0 98 61 166.5t154 80.5q49 5 97 -11t75 -54l7 43l93 -15v-338q0 -15 8 -21t16 -6q77 5 77 160q0 154 -85.5 233.5t-242.5 79.5zM458 378q-63 0 -96 -39.5t-33 -94.5t33.5 -93.5t96.5 -38.5q62 0 95.5 39
t33.5 98q0 56 -33.5 92.5t-96.5 36.5z" />
    <glyph glyph-name="A" unicode="A" horiz-adv-x="790" 
d="M625 0l-51 120h-359l-51 -120h-168l314 700h170l314 -700h-169zM515 258l-120 284l-121 -284h241z" />
    <glyph glyph-name="B" unicode="B" horiz-adv-x="727" 
d="M231 298v-162h192q103 0 103 80q0 38 -27 60t-78 22h-190zM231 565v-137h190q91 0 91 66q0 32 -23 51.5t-66 19.5h-192zM78 700h345q106 0 174.5 -48.5t68.5 -141.5q0 -100 -93 -143q64 -23 93.5 -81t17.5 -122q-30 -164 -255 -164h-351v700z" />
    <glyph glyph-name="C" unicode="C" horiz-adv-x="696" 
d="M584 193l97 -108q-104 -103 -269 -103q-97 0 -170.5 29.5t-117 81t-65 115t-21.5 137.5q0 70 22.5 134.5t67 118.5t118 86t166.5 32q147 0 257 -108l-98 -97q-59 58 -159 58q-57 0 -101 -20.5t-69.5 -54t-37.5 -72t-12 -78.5q0 -41 12 -77.5t36.5 -69t68.5 -52t103 -19.5
q44 0 93 18.5t79 48.5z" />
    <glyph glyph-name="D" unicode="D" horiz-adv-x="753" 
d="M78 700h287q116 0 196.5 -49t116 -125t35.5 -171q0 -71 -20.5 -133t-61 -112.5t-109 -80t-157.5 -29.5h-287v700zM232 559v-415h133q54 0 94 18.5t60.5 50.5t30 67.5t9.5 76.5q0 86 -46.5 144t-147.5 58h-133z" />
    <glyph glyph-name="E" unicode="E" horiz-adv-x="656" 
d="M611 144v-144h-533v700h519v-143h-366v-135h345v-137h-345v-141h380z" />
    <glyph glyph-name="F" unicode="F" horiz-adv-x="626" 
d="M234 0h-156v699h510v-143h-354v-166h332v-139h-332v-251z" />
    <glyph glyph-name="G" unicode="G" horiz-adv-x="742" 
d="M672 613l-97 -97q-65 62 -164 62q-102 0 -161 -58.5t-59 -170.5q0 -40 11.5 -77.5t36 -72t69 -55t103.5 -20.5q84 0 149 49v112h-167v130h302v-305q-91 -130 -285 -130q-97 0 -171 31.5t-116.5 85t-63.5 117.5t-21 135q0 76 22.5 141.5t67 118t117.5 82.5t166 30
q156 0 261 -108z" />
    <glyph glyph-name="H" unicode="H" horiz-adv-x="779" 
d="M701 -1h-154v277h-313v-277h-156v700h156v-280h313v280h154v-700z" />
    <glyph glyph-name="I" unicode="I" horiz-adv-x="311" 
d="M233 0h-155v700h155v-700z" />
    <glyph glyph-name="J" unicode="J" horiz-adv-x="716" 
d="M18 291h151q7 -158 159 -158q77 0 120 44t43 124v257h-194v142h350v-400q0 -141 -83 -228t-234 -87q-309 0 -312 306z" />
    <glyph glyph-name="K" unicode="K" horiz-adv-x="673" 
d="M656 700v-4l-284 -336l309 -351v-9h-188l-259 299v-299h-156v700h156v-289l233 289h189z" />
    <glyph glyph-name="L" unicode="L" horiz-adv-x="600" 
d="M78 700h156v-557h350v-143h-506v700z" />
    <glyph glyph-name="M" unicode="M" horiz-adv-x="921" 
d="M687 -1v487l-216 -272h-28l-209 274v-489h-156v700h179l204 -269l205 269h177v-700h-156z" />
    <glyph glyph-name="N" unicode="N" horiz-adv-x="790" 
d="M212 700l353 -455l-10 220v235h157v-700h-134l-348 448l6 -230v-218h-158v700h134z" />
    <glyph glyph-name="O" unicode="O" horiz-adv-x="832" 
d="M794 350q0 -169 -104 -268t-274 -99t-274 99t-104 268t104 268t274 99t274 -99t104 -268zM641 350q0 98 -62.5 162.5t-162.5 64.5q-99 0 -162 -65t-63 -162q0 -99 63 -162.5t162 -63.5q101 0 163 63.5t62 162.5z" />
    <glyph glyph-name="P" unicode="P" horiz-adv-x="699" 
d="M234 552v-211h174q54 0 83 30t29 75t-29.5 75.5t-82.5 30.5h-174zM408 198h-174v-198h-156v700h330q128 0 198 -72t70 -179q0 -110 -69.5 -180t-198.5 -71z" />
    <glyph glyph-name="Q" unicode="Q" horiz-adv-x="832" 
d="M792 351q0 -127 -61 -218l81 -82l-109 -108l-85 87q-87 -46 -202 -46q-171 0 -274.5 98t-103.5 269t103.5 269t274.5 98q170 0 273 -98t103 -269zM639 351q0 99 -61 162t-162 63q-99 0 -162 -63.5t-63 -161.5q0 -100 62.5 -162.5t162.5 -62.5q101 0 164 65t59 160z" />
    <glyph glyph-name="R" unicode="R" horiz-adv-x="725" 
d="M699 12v-12h-173l-179 230h-113v-230h-156v700h332q121 0 190 -69t69 -167q-1 -78 -35 -132.5t-127 -87.5zM410 566h-176v-204h178q50 0 76.5 30t26.5 68q-1 41 -28 73.5t-77 32.5z" />
    <glyph glyph-name="S" unicode="S" horiz-adv-x="654" 
d="M590 617l-98 -86q-28 29 -72.5 44t-89.5 15q-53 0 -89 -21t-36 -56q0 -44 36.5 -60.5t114.5 -23.5q269 -23 269 -227q0 -74 -43 -126.5t-108 -75t-144 -23.5q-96 -1 -180 36t-126 108l93 97q38 -49 97 -74t117 -25q62 0 101 23t39 60q1 43 -33.5 65.5t-107.5 28.5
q-63 6 -107.5 17t-86.5 34t-63.5 64.5t-20.5 100.5q1 100 81.5 156.5t195.5 56.5q86 0 147.5 -24t113.5 -84z" />
    <glyph glyph-name="T" unicode="T" horiz-adv-x="615" 
d="M230 0v561h-213v139h581v-139h-213v-561h-155z" />
    <glyph glyph-name="U" unicode="U" horiz-adv-x="774" 
d="M551 699h155v-391q0 -153 -79.5 -236.5t-220.5 -88.5q-146 -5 -242 79t-96 246v391h155v-391q0 -93 49 -141t135 -44q144 10 144 185v391z" />
    <glyph glyph-name="V" unicode="V" horiz-adv-x="738" 
d="M741 700l-291 -703h-161l-292 703h175l197 -517l197 517h175z" />
    <glyph glyph-name="W" unicode="W" horiz-adv-x="1073" 
d="M1068 700l-254 -699h-128l-150 391l-145 -391h-128l-261 699h175l87 -239l63 -226l157 465h102l164 -465l60 225l83 240h175z" />
    <glyph glyph-name="X" unicode="X" horiz-adv-x="689" 
d="M345 451l163 249h171v-7l-236 -341l240 -347v-5h-173l-165 246l-165 -246h-173v5l238 347l-235 341v7h171z" />
    <glyph glyph-name="Y" unicode="Y" horiz-adv-x="704" 
d="M184 700l168 -278l177 278h179v-8l-280 -414v-278h-156v278l-268 414v8h180z" />
    <glyph glyph-name="Z" unicode="Z" horiz-adv-x="628" 
d="M48 566v134h535v-68l-336 -486h344v-146h-560v81l342 485h-325z" />
    <glyph glyph-name="bracketleft" unicode="[" horiz-adv-x="363" 
d="M328 -178h-256v882h256v-123h-114v-635h114v-124z" />
    <glyph glyph-name="backslash" unicode="\" horiz-adv-x="511" 
d="M24 768h143l321 -850h-142z" />
    <glyph glyph-name="bracketright" unicode="]" horiz-adv-x="363" 
d="M291 -178h-256v124h114v635h-114v123h256v-882z" />
    <glyph glyph-name="asciicircum" unicode="^" horiz-adv-x="649" 
d="M37 328l1 6l240 369h83l249 -367l1 -8h-153l-140 210l-134 -210h-147z" />
    <glyph glyph-name="underscore" unicode="_" horiz-adv-x="501" 
d="M14 -121v125h473v-125h-473z" />
    <glyph glyph-name="grave" unicode="`" horiz-adv-x="264" 
d="M-3 692v6h168l74 -140v-7h-126z" />
    <glyph glyph-name="a" unicode="a" horiz-adv-x="639" 
d="M438 437l5 57h135v-494h-130l-8 62q-23 -36 -66.5 -54t-85.5 -19q-113 -1 -184 68.5t-71 189.5t73.5 190t185.5 68q48 0 87.5 -18t58.5 -50zM307 378q-56 0 -93 -35.5t-37 -95.5t37 -95t93 -35q58 0 94.5 38t36.5 87q0 57 -34.5 96.5t-96.5 39.5z" />
    <glyph glyph-name="b" unicode="b" horiz-adv-x="640" 
d="M341 374q-53 0 -93 -34t-40 -93q0 -65 39 -96t94 -31q56 0 88.5 36t32.5 91q0 56 -33 91.5t-88 35.5zM61 699h145v-265q57 70 155 70q110 0 178 -69.5t68 -187.5q0 -115 -67.5 -186t-176.5 -71q-107 0 -164 73l-9 -63h-129v699z" />
    <glyph glyph-name="c" unicode="c" horiz-adv-x="508" 
d="M404 159l91 -94q-77 -76 -193 -76t-193 65t-77 192q0 120 78 189.5t191 69.5q114 0 179 -68l-80 -91q-38 29 -93 29q-56 0 -93 -34.5t-37 -94.5q0 -57 37 -90.5t90 -33.5q26 0 54.5 10t45.5 27z" />
    <glyph glyph-name="d" unicode="d" horiz-adv-x="640" 
d="M299 374q-55 0 -88 -35.5t-33 -91.5q0 -55 32.5 -91t88.5 -36q55 0 94 31t39 96q0 59 -40 93t-93 34zM434 699h145v-699h-129l-9 63q-56 -72 -164 -72q-109 0 -176.5 70.5t-67.5 185.5q0 118 68 187.5t178 69.5q98 0 155 -70v265z" />
    <glyph glyph-name="e" unicode="e" horiz-adv-x="577" 
d="M542 200h-363q6 -38 41 -62.5t93 -24.5q83 0 128 39l81 -90q-74 -73 -212 -73q-132 0 -204.5 71t-72.5 192q0 114 71 184.5t191 70.5q131 0 200.5 -80t46.5 -227zM179 305h234q-2 38 -36 58.5t-82 20.5q-43 0 -74 -21t-42 -58z" />
    <glyph glyph-name="f" unicode="f" horiz-adv-x="406" 
d="M254 0h-144v364h-87v121h87v29q0 99 59.5 149t140.5 50q70 0 137 -42l-49 -101q-33 20 -71 20q-34 0 -53.5 -19t-19.5 -57v-29h137v-121h-137v-364z" />
    <glyph glyph-name="g" unicode="g" horiz-adv-x="606" 
d="M40 -68h134q7 -100 124 -100q51 0 86.5 23.5t35.5 67.5q0 85 -120 85q-122 0 -194.5 67.5t-72.5 181.5q0 120 78 186t189 66q77 0 116 -27l54 70l104 -80l-63 -75q54 -65 51 -142q-3 -120 -106 -173q110 -49 110 -159q0 -104 -79 -161t-189 -57q-127 0 -193.5 59.5
t-64.5 167.5zM300 381q-57 0 -92.5 -33t-35.5 -91q0 -53 36.5 -85.5t91.5 -32.5q52 0 88 31t36 87q0 52 -35.5 88t-88.5 36z" />
    <glyph glyph-name="h" unicode="h" horiz-adv-x="607" 
d="M61 700h145v-267q53 69 150 69q197 0 197 -237v-265h-144v264q0 51 -25.5 79t-68.5 28q-47 0 -78.5 -32t-31.5 -89v-250h-144v700z" />
    <glyph glyph-name="i" unicode="i" horiz-adv-x="266" 
d="M205 495h-144v-495h144v495zM51 625q0 38 25.5 60t56.5 22t56.5 -22t25.5 -60t-25.5 -60t-56.5 -22t-56.5 22t-25.5 60z" />
    <glyph glyph-name="j" unicode="j" horiz-adv-x="265" 
d="M204 495h-143v-523q0 -102 -99 -52l-41 -105q48 -28 98 -33t92 12t68 64t25 118v519zM52 625q0 38 25.5 60t56 22t56 -22t25.5 -60t-25.5 -60t-56 -22t-56 22t-25.5 60z" />
    <glyph glyph-name="k" unicode="k" horiz-adv-x="548" 
d="M61 699h144v-399l146 193h170v-9l-181 -223l209 -250v-11h-173l-171 217v-217h-144v699z" />
    <glyph glyph-name="l" unicode="l" horiz-adv-x="269" 
d="M63 699h143v-699h-143v699z" />
    <glyph glyph-name="m" unicode="m" horiz-adv-x="886" 
d="M521 0h-142v265q0 108 -85 108q-41 0 -65 -32t-24 -77v-264h-144v494h126l10 -56q38 67 130 67q103 0 144 -92q33 50 71 71.5t93 21.5q88 0 142.5 -54t54.5 -182v-270h-145v267q0 103 -75 103q-41 0 -66 -30.5t-25 -74.5v-265z" />
    <glyph glyph-name="n" unicode="n" 
d="M562 0h-145v261q0 115 -102 115q-49 1 -80.5 -35t-31.5 -86v-255h-142v494h130l5 -63q59 77 160 75q206 0 206 -244v-262z" />
    <glyph glyph-name="o" unicode="o" horiz-adv-x="605" 
d="M302 -11q-123 0 -196.5 71.5t-73.5 185.5q0 113 74.5 186t195.5 73q122 0 196.5 -73t74.5 -186q0 -114 -73.5 -185.5t-197.5 -71.5zM302 117q62 0 93.5 37.5t31.5 91.5q0 52 -32 91t-93 39q-60 0 -92 -39t-32 -91t31.5 -90.5t92.5 -38.5z" />
    <glyph glyph-name="p" unicode="p" horiz-adv-x="640" 
d="M341 119q55 0 88 35.5t33 91.5q0 55 -32.5 91t-88.5 36q-55 0 -94 -31t-39 -96q0 -59 40 -93t93 -34zM206 -218h-145v711h129l9 -63q56 72 164 72q109 0 176.5 -70.5t67.5 -185.5q0 -118 -68 -187.5t-178 -69.5q-98 0 -155 70v-277z" />
    <glyph glyph-name="q" unicode="q" horiz-adv-x="640" 
d="M299 119q53 0 93 34t40 93q0 65 -39 96t-94 31q-56 0 -88.5 -36t-32.5 -91q0 -56 33 -91.5t88 -35.5zM579 -218h-145v277q-57 -70 -155 -70q-110 0 -178 69.5t-68 187.5q0 115 67.5 185.5t176.5 70.5q108 0 164 -72l9 63h129v-711z" />
    <glyph glyph-name="r" unicode="r" horiz-adv-x="454" 
d="M61 493h134l11 -54q47 66 132 66q70 0 121 -45l-60 -114q-35 25 -79 25q-49 0 -82 -30.5t-33 -83.5v-257h-144v493z" />
    <glyph glyph-name="s" unicode="s" horiz-adv-x="497" 
d="M443 444l-71 -90q-51 36 -117 36q-34 0 -52.5 -11t-18.5 -30q0 -41 73 -43q33 -1 59.5 -4.5t57 -14t50.5 -26.5t34 -45.5t14 -68.5q1 -68 -53 -117t-163 -49q-131 0 -232 84l62 102q73 -60 172 -62q32 -1 53.5 11t20.5 31q0 41 -84 44q-37 2 -71.5 10.5t-66 26t-50.5 49
t-19 72.5q0 79 62 119t151 40q115 0 189 -64z" />
    <glyph glyph-name="t" unicode="t" horiz-adv-x="419" 
d="M113 613l144 16v-138h125v-120h-126v-186q0 -66 56 -66q36 0 60 12l33 -120q-49 -19 -104 -22q-87 -4 -137.5 41.5t-50.5 154.5v186h-88v120h88v122z" />
    <glyph glyph-name="u" unicode="u" 
d="M54 494h145v-261q0 -115 102 -115q49 -1 80.5 35t31.5 86v255h142v-494h-130l-5 65q-57 -77 -160 -75q-206 0 -206 242v262z" />
    <glyph glyph-name="v" unicode="v" horiz-adv-x="590" 
d="M237 313l58 -163l58 163l71 181h162l-212 -497h-158l-212 497h162z" />
    <glyph glyph-name="w" unicode="w" horiz-adv-x="845" 
d="M366 494h113l95 -315l32 112l69 203h161l-183 -497h-143l-88 247l-87 -247h-144l-182 497h161l69 -203l32 -112z" />
    <glyph glyph-name="x" unicode="x" horiz-adv-x="542" 
d="M271 346l82 147h172v-5l-157 -240l166 -245v-3h-172l-91 148l-90 -148h-173v3l167 245l-158 240v5h172z" />
    <glyph glyph-name="y" unicode="y" horiz-adv-x="573" 
d="M409 494h159l-303 -716h-157l102 237l-207 479h162l123 -311z" />
    <glyph glyph-name="z" unicode="z" horiz-adv-x="479" 
d="M46 494h388v-70l-207 -291h217v-133h-417v61l217 308h-198v125z" />
    <glyph glyph-name="braceleft" unicode="{" horiz-adv-x="373" 
d="M334 -45v-113q-111 -21 -173.5 24t-62.5 139v149q0 21 -3.5 35t-19.5 26.5t-45 12.5v106q29 0 45 12.5t19.5 26.5t3.5 35v142q0 101 60.5 147.5t175.5 25.5v-109q-44 9 -63.5 -7.5t-19.5 -64.5v-134v-17.5v-17.5t-0.5 -15.5t-2 -15t-4 -12.5t-6 -12.5t-8.5 -10.5
t-12 -10.5l-16.5 -8t-20.5 -8.5q11 -3 20.5 -7.5l16.5 -8t12 -10t8.5 -10.5t6 -13t4 -12.5t2 -15t0.5 -15v-17v-17.5v-130q0 -48 15.5 -60.5t67.5 -8.5z" />
    <glyph glyph-name="bar" unicode="|" horiz-adv-x="282" 
d="M210 766v-840h-138v840h138z" />
    <glyph glyph-name="braceright" unicode="}" horiz-adv-x="373" 
d="M39 -160v112q52 -4 67.5 9t15.5 61v130v17.5v17t0.5 15t2 15t4 12.5t6 13t8.5 10.5t12 10l16.5 8t20.5 7.5q-11 3 -20.5 7.5t-16.5 8.5t-12 10.5t-8.5 10.5t-6 13t-4 12.5t-2 15t-0.5 15v17.5v18v134q0 46 -19 60t-64 8v113q115 21 175.5 -25.5t60.5 -147.5v-142
q0 -21 3.5 -35t19.5 -26.5t45 -12.5v-106q-29 0 -45 -12.5t-19.5 -26.5t-3.5 -35v-149q0 -94 -62.5 -139t-173.5 -24z" />
    <glyph glyph-name="asciitilde" unicode="~" horiz-adv-x="622" 
d="M461 387l109 -31q-16 -69 -56.5 -106.5t-95.5 -39.5q-41 -1 -103 36t-98 36q-40 -2 -62 -55l-100 34q15 61 56.5 100t103.5 41q43 1 103 -32.5t80 -38.5q40 -5 63 56z" />
    <glyph glyph-name="exclamdown" unicode="&#xa1;" horiz-adv-x="281" 
d="M63 -181h155q0 83 -1.5 244.5t-1.5 243.5h-148zM228 437q0 -41 -27.5 -65t-60.5 -24t-60.5 24t-27.5 65t27.5 64.5t60.5 23.5t60.5 -23.5t27.5 -64.5z" />
    <glyph glyph-name="cent" unicode="&#xa2;" horiz-adv-x="549" 
d="M424 149l89 -102q-48 -51 -136 -70v-76h-132v78q-91 25 -145.5 89.5t-54.5 164.5q0 95 53.5 161.5t146.5 92.5v77h132v-76q72 -16 126 -69l-82 -89q-35 36 -103 36q-51 0 -90.5 -38.5t-39.5 -94.5q0 -57 39 -94t91 -37q66 0 106 47z" />
    <glyph glyph-name="sterling" unicode="&#xa3;" horiz-adv-x="661" 
d="M259 472q0 -32 12 -82h198v-125h-170q0 -37 -14.5 -77t-47.5 -47h377v-141h-561v142q51 1 70.5 33.5t22.5 89.5h-93v125h69q-14 42 -15 81q-5 106 63 173.5t190 67.5q112 0 177 -57.5t63 -162.5h-135q-1 85 -105 85q-42 0 -71.5 -28t-29.5 -77z" />
    <glyph glyph-name="currency" unicode="&#xa4;" horiz-adv-x="621" 
d="M309 213q46 0 71.5 27t25.5 73t-25.5 73t-71.5 27q-43 0 -70.5 -27.5t-27.5 -72.5t27.5 -72.5t70.5 -27.5zM220 118l-57 -59l-109 108l57 56q-34 87 6 177l-63 59l109 109l58 -58q42 13 90 13q43 0 87 -15l60 60l108 -109l-58 -57q36 -92 2 -179l56 -56l-106 -106l-59 57
q-38 -13 -92 -13q-46 0 -89 13z" />
    <glyph glyph-name="yen" unicode="&#xa5;" horiz-adv-x="760" 
d="M148 102v107h150v58h-150v107h94l-213 318v8h176l88 -142l82 -145l86 144l93 143h179v-8l-223 -318h92v-107h-151v-58h151v-107h-151v-102h-153v102h-150z" />
    <glyph glyph-name="brokenbar" unicode="&#xa6;" horiz-adv-x="292" 
d="M219 341h-146v370h146v-370zM73 279h146v-371h-146v371z" />
    <glyph glyph-name="section" unicode="&#xa7;" horiz-adv-x="615" 
d="M49 81l75 90q77 -75 180 -73q121 0 121 50q0 40 -117 38q-48 -1 -92 7.5t-81.5 26t-59.5 49t-19 73.5q2 29 20.5 56.5t55.5 40.5q-36 13 -52.5 44.5t-16.5 64.5q0 45 26 78t68 49.5t83.5 24t84.5 7.5q62 0 124.5 -20t100.5 -63l-86 -71q-57 41 -143 42q-51 1 -86 -10.5
t-35 -36.5q0 -44 113 -44q38 0 71 -3.5t68.5 -13.5t60 -26.5t39 -45.5t11.5 -68q-3 -29 -23 -56t-52 -40q74 -32 74 -104q0 -49 -27 -84t-70.5 -51.5t-84 -23.5t-80.5 -7q-76 0 -142.5 25.5t-108.5 74.5zM427 347q0 25 -33.5 38.5t-80.5 14.5q-48 1 -84.5 -13t-36.5 -39
q0 -24 32 -37.5t79 -14.5q42 -1 83 11t41 40z" />
    <glyph glyph-name="dieresis" unicode="&#xa8;" horiz-adv-x="526" 
d="M59 648q0 37 25 58t54.5 21t54.5 -21t25 -58t-25 -58t-54.5 -21t-54.5 21t-25 58zM319 648q0 37 25 58t54.5 21t54.5 -21t25 -58t-25 -58t-54.5 -21t-54.5 21t-25 58z" />
    <glyph glyph-name="copyright" unicode="&#xa9;" horiz-adv-x="827" 
d="M418 721q171 0 268 -102t97 -263q0 -162 -97 -263.5t-268 -101.5q-170 0 -272 102.5t-102 262.5q0 156 102.5 260.5t271.5 104.5zM230 352q0 -88 57.5 -138.5t138.5 -50.5q91 0 157 65l-68 68q-33 -33 -80 -33q-41 0 -70 23.5t-29 65.5q0 47 28.5 71.5t70.5 24.5
q44 0 78 -30l67 66q-64 63 -150 63q-82 0 -138.5 -51.5t-61.5 -143.5zM154 356q0 -120 72.5 -194t191.5 -74q120 0 188 72.5t68 195.5t-68 195t-188 72q-118 0 -191 -74.5t-73 -192.5z" />
    <glyph glyph-name="ordfeminine" unicode="&#xaa;" horiz-adv-x="441" 
d="M290 661l7 39h101v-323h-104l-4 47q-13 -27 -41.5 -41.5t-58.5 -14.5q-74 0 -120 43.5t-46 127.5q0 83 47 126.5t123 43.5q32 0 58 -13t38 -35zM205 612q-30 0 -50.5 -19.5t-20.5 -53.5q0 -35 20 -54t51 -19q44 0 62 36.5t0 73t-62 36.5zM38 223v98h364v-98h-364z" />
    <glyph glyph-name="guillemotleft" unicode="&#xab;" horiz-adv-x="563" 
d="M30 297l139 222h153v1l-139 -223q98 -162 139 -223h-153zM236 297l139 222h154v1l-139 -223l139 -223h-154z" />
    <glyph glyph-name="logicalnot" unicode="&#xac;" horiz-adv-x="543" 
d="M473 388v-244h-121v124h-288v120h409z" />
    <glyph glyph-name="registered" unicode="&#xae;" horiz-adv-x="827" 
d="M588 170l-83 129q34 10 55 37t22 59.5t-12 63.5t-48 52t-84 21h-166v-362h103v108h42l60 -108h111zM373 443h69q14 0 24 -8.5t12.5 -20.5t0.5 -23.5t-12 -20t-24 -8.5h-70v81zM418 721q171 0 268 -102t97 -263q0 -162 -97 -263.5t-268 -101.5q-170 0 -272 102.5
t-102 262.5q0 156 102.5 260.5t271.5 104.5zM154 356q0 -120 72.5 -194t191.5 -74q120 0 188 72.5t68 195.5t-68 195t-188 72q-118 0 -191 -74.5t-73 -192.5z" />
    <glyph glyph-name="macron" unicode="&#xaf;" horiz-adv-x="453" 
d="M50 583v119h359v-119h-359z" />
    <glyph glyph-name="degree" unicode="&#xb0;" horiz-adv-x="365" 
d="M182 633q-24 0 -40 -12t-20 -29.5t0 -34.5t20 -29t39 -12q24 0 40.5 12t20 29t0 34.5t-20 29.5t-39.5 12zM182 710q39 0 69.5 -15t46 -38.5t23 -52.5t0 -58t-23.5 -52.5t-46.5 -38.5t-70.5 -15q-54 0 -90.5 28t-45 67.5t0.5 79t46 67.5t91 28z" />
    <glyph glyph-name="plusminus" unicode="&#xb1;" horiz-adv-x="546" 
d="M63 312v135h140v143h140v-143h140v-135h-140v-142h-140v142h-140zM61 11v126h424v-126h-424z" />
    <glyph glyph-name="twosuperior" unicode="&#xb2;" horiz-adv-x="376" 
d="M135 649h-98q1 54 45 85.5t103 31.5q69 0 112 -31.5t43 -91.5q0 -41 -21.5 -67t-52.5 -36t-62 -16.5t-52.5 -16t-21.5 -25.5h207v-96h-302v96q0 40 21 65t50.5 35t59.5 16.5t51 16.5t21 28q0 22 -24 30.5t-49.5 1t-29.5 -25.5z" />
    <glyph glyph-name="threesuperior" unicode="&#xb3;" horiz-adv-x="385" 
d="M190 538h-58v75h54q56 0 56 35q0 31 -56 33q-54 2 -60 -28h-89q0 56 45.5 84.5t105.5 28.5t107 -31t47 -88q0 -51 -48 -72q25 -8 41.5 -31t16.5 -50q0 -64 -48.5 -90.5t-114.5 -26.5q-61 0 -109.5 30t-49.5 87h105q4 -28 53 -28q23 0 40 9.5t17 27.5q0 35 -55 35z" />
    <glyph glyph-name="acute" unicode="&#xb4;" horiz-adv-x="278" 
d="M257 698v-6l-116 -141h-126v7l74 140h168z" />
    <glyph glyph-name="mu" unicode="&#xb5;" horiz-adv-x="619" 
d="M568 0h-125l-15 51q-13 -34 -42.5 -53t-65.5 -21t-66.5 15t-45.5 50v-255h-138v707h145v-272q0 -51 30.5 -80.5t70.5 -28.5q42 0 74 31t32 89v261h146v-494z" />
    <glyph glyph-name="mu" unicode="&#x3bc;" horiz-adv-x="619" 
d="M568 0h-125l-15 51q-13 -34 -42.5 -53t-65.5 -21t-66.5 15t-45.5 50v-255h-138v707h145v-272q0 -51 30.5 -80.5t70.5 -28.5q42 0 74 31t32 89v261h146v-494z" />
    <glyph glyph-name="paragraph" unicode="&#xb6;" horiz-adv-x="856" 
d="M425 552v-764h-157v400q-55 4 -99.5 24.5t-72 51t-45.5 69t-19 80t7 82.5t32 78t56.5 65.5t81 45t104.5 16.5h500v-148h-85v-764h-157v764h-146z" />
    <glyph glyph-name="periodcentered" unicode="&#xb7;" horiz-adv-x="278" 
d="M52 297q0 41 27 64t60 23t60 -23t27 -64q0 -40 -27 -63t-60 -23t-60 23t-27 63z" />
    <glyph glyph-name="cedilla" unicode="&#xb8;" horiz-adv-x="364" 
d="M51 -174l61 51q19 -24 61.5 -30t53.5 24q7 28 -27.5 41t-60.5 -7l-32 24l35 96h103l-17 -49q64 -3 88 -38.5t18 -81.5q-6 -48 -43 -74.5t-82.5 -27t-90.5 18.5t-67 53z" />
    <glyph glyph-name="onesuperior" unicode="&#xb9;" horiz-adv-x="285" 
d="M35 387v87h62v172l-52 -11v84l152 40v-285h64v-87h-226z" />
    <glyph glyph-name="ordmasculine" unicode="&#xba;" horiz-adv-x="425" 
d="M35 218v99h356v-99h-356zM212 365q-81 0 -131.5 45t-50.5 129q0 83 50 126.5t132 43.5q83 0 132.5 -43.5t49.5 -126.5q0 -84 -50 -129t-132 -45zM212 466q31 0 51.5 19t20.5 54q0 34 -20.5 53.5t-51.5 19.5q-30 0 -51 -19.5t-21 -53.5t21 -53.5t51 -19.5z" />
    <glyph glyph-name="guillemotright" unicode="&#xbb;" horiz-adv-x="562" 
d="M393 521l139 -222l-139 -222h-154l139 222l-139 223v-1h154zM188 521l139 -222l-139 -222h-153l139 222l-139 223v-1h153z" />
    <glyph glyph-name="onequarter" unicode="&#xbc;" horiz-adv-x="805" 
d="M596 370h130v-222h45v-87h-45v-61h-96v61h-197l-4 86zM630 148v125l-99 -125h99zM255 -1h-120l390 709h122zM45 330v88h62v171l-53 -11v84l153 40v-284h63v-88h-225z" />
    <glyph glyph-name="onehalf" unicode="&#xbd;" horiz-adv-x="818" 
d="M252 -2h-120l390 710h122zM41 329v88h62v172l-52 -12v85l152 40v-285h64v-88h-226zM577 258h-98q1 54 45 85.5t103 31.5q69 0 112 -31.5t43 -91.5q0 -41 -21.5 -67t-52.5 -36t-62 -16.5t-52.5 -16t-21.5 -25.5h207v-96h-302v96q0 40 21 65t50.5 35t59.5 16.5t51 16.5
t21 28q0 22 -24 30.5t-49.5 1t-29.5 -25.5z" />
    <glyph glyph-name="threequarters" unicode="&#xbe;" horiz-adv-x="843" 
d="M189 495h-55v72h51q31 0 41.5 5t11.5 27q0 5 -2.5 11t-15.5 13.5t-34 7.5q-26 0 -38.5 -5t-18.5 -21h-87q0 53 44.5 80.5t101.5 27.5t102 -30t46 -84q0 -21 -11.5 -41.5t-32.5 -26.5q24 -8 38 -28.5t14 -43.5q0 -60 -48.5 -89t-110.5 -29q-58 0 -103 28.5t-46 83.5h100
q18 -25 53 -25q22 0 37.5 8t15.5 20q0 39 -53 39zM297 -6h-121l393 714h122zM633 370h130v-222h45v-87h-45v-61h-96v61h-197l-4 86zM667 148v125l-99 -125h99z" />
    <glyph glyph-name="questiondown" unicode="&#xbf;" horiz-adv-x="592" 
d="M398 426q0 -35 -19 -58.5t-46 -29t-54 0t-46 29t-19 58.5q0 34 18.5 58t46 29.5t54.5 0t46 -29.5t19 -58zM563 19h-157q-2 -41 -32 -66.5t-75 -25.5q-42 0 -71 16.5t-33 46.5q-4 26 8 45t33 30t46.5 28t48 37.5t38 60.5t16.5 95h-155q0 -36 -17 -64t-42 -44.5t-53 -37
t-50 -41t-32 -57.5t-1 -85q17 -81 87.5 -123t176.5 -42q117 0 190 60t74 167z" />
    <glyph glyph-name="Agrave" unicode="&#xc0;" horiz-adv-x="790" 
d="M625 0l-51 120h-359l-51 -120h-168l314 700h170l314 -700h-169zM515 258l-120 284l-121 -284h241zM221 898v6h168l74 -140v-7h-126z" />
    <glyph glyph-name="Aacute" unicode="&#xc1;" horiz-adv-x="790" 
d="M574 120l51 -120h169l-314 700h-170l-314 -700h168l51 120h359zM395 542l120 -284h-241zM562 904v-6l-116 -141h-126v7l74 140h168z" />
    <glyph glyph-name="Acircumflex" unicode="&#xc2;" horiz-adv-x="790" 
d="M574 120l51 -120h169l-314 700h-170l-314 -700h168l51 120h359zM395 542l120 -284h-241zM357 907h75l149 -140v-5h-140l-47 42l-46 -42h-141v5z" />
    <glyph glyph-name="Atilde" unicode="&#xc3;" horiz-adv-x="790" 
d="M625 0l-51 120h-359l-51 -120h-168l314 700h170l314 -700h-169zM515 258l-120 284l-121 -284h241zM290 754l-85 50q54 114 145 90q13 -3 35.5 -13.5t36 -15.5t28.5 1t23 29l89 -44q-52 -121 -139 -90q-13 4 -32.5 13t-31 13t-25.5 5.5t-24.5 -8.5t-19.5 -30z" />
    <glyph glyph-name="Adieresis" unicode="&#xc4;" horiz-adv-x="790" 
d="M574 120l51 -120h169l-314 700h-170l-314 -700h168l51 120h359zM395 542l120 -284h-241zM184 836q0 37 25 58t54.5 21t54.5 -21t25 -58t-25 -58t-54.5 -21t-54.5 21t-25 58zM444 836q0 37 25 58t54.5 21t54.5 -21t25 -58t-25 -58t-54.5 -21t-54.5 21t-25 58z" />
    <glyph glyph-name="Aring" unicode="&#xc5;" horiz-adv-x="790" 
d="M253 801q0 60 42.5 94t99.5 34q56 0 97.5 -34t41.5 -94q0 -66 -54 -104l314 -697h-170l-53 120h-351l-55 -120h-169l313 697q-56 36 -56 104zM283 265h225l-51 122l-62 171l-63 -175zM392 851q-36 0 -50.5 -24.5t0.5 -48.5t50 -24q37 0 51 24t-1 48.5t-50 24.5z" />
    <glyph glyph-name="AE" unicode="&#xc6;" horiz-adv-x="892" 
d="M849 138v-138h-409v109h-222l-63 -109h-182l439 700h421v-136h-253v-144h236v-132h-236v-150h269zM298 246h142l6 254z" />
    <glyph glyph-name="Ccedilla" unicode="&#xc7;" horiz-adv-x="699" 
d="M244 -203l61 51q19 -24 61.5 -30t53.5 24q7 28 -27.5 41t-60.5 -7l-32 24l32 88q-147 23 -219 121t-73 236q0 70 22.5 134.5t67 118.5t118 86t166.5 32q147 0 257 -108l-98 -97q-59 58 -159 58q-57 0 -101 -20.5t-69.5 -54t-37.5 -72t-12 -78.5q0 -41 12 -77.5t36.5 -69
t68.5 -52t103 -19.5q44 0 93 18.5t79 48.5l97 -108q-98 -97 -250 -103l-12 -35q64 -3 88 -38.5t18 -81.5q-6 -48 -43 -74.5t-82.5 -27t-90.5 18.5t-67 53z" />
    <glyph glyph-name="Egrave" unicode="&#xc8;" horiz-adv-x="656" 
d="M611 144v-144h-533v700h519v-143h-366v-135h345v-137h-345v-141h380zM175 909v6h168l74 -140v-7h-126z" />
    <glyph glyph-name="Eacute" unicode="&#xc9;" horiz-adv-x="656" 
d="M611 0v144h-380v141h345v137h-345v135h366v143h-519v-700h533zM507 915v-6l-116 -141h-126v7l74 140h168z" />
    <glyph glyph-name="Ecircumflex" unicode="&#xca;" horiz-adv-x="656" 
d="M611 0v144h-380v141h345v137h-345v135h366v143h-519v-700h533zM309 913h75l149 -140v-5h-140l-47 42l-46 -42h-141v5z" />
    <glyph glyph-name="Edieresis" unicode="&#xcb;" horiz-adv-x="656" 
d="M611 0v144h-380v141h345v137h-345v135h366v143h-519v-700h533zM138 839q0 37 25 58t54.5 21t54.5 -21t25 -58t-25 -58t-54.5 -21t-54.5 21t-25 58zM398 839q0 37 25 58t54.5 21t54.5 -21t25 -58t-25 -58t-54.5 -21t-54.5 21t-25 58z" />
    <glyph glyph-name="Igrave" unicode="&#xcc;" horiz-adv-x="311" 
d="M233 0h-155v700h155v-700zM-15 903v6h168l74 -140v-7h-126z" />
    <glyph glyph-name="Iacute" unicode="&#xcd;" horiz-adv-x="311" 
d="M78 0h155v700h-155v-700zM325 905v-6l-116 -141h-126v7l74 140h168z" />
    <glyph glyph-name="Icircumflex" unicode="&#xce;" horiz-adv-x="311" 
d="M78 0h155v700h-155v-700zM119 910h75l149 -140v-5h-140l-47 42l-46 -42h-141v5z" />
    <glyph glyph-name="Idieresis" unicode="&#xcf;" horiz-adv-x="311" 
d="M78 0h155v700h-155v-700zM-53 839q0 37 25 58t54.5 21t54.5 -21t25 -58t-25 -58t-54.5 -21t-54.5 21t-25 58zM207 839q0 37 25 58t54.5 21t54.5 -21t25 -58t-25 -58t-54.5 -21t-54.5 21t-25 58z" />
    <glyph glyph-name="Eth" unicode="&#xd0;" horiz-adv-x="757" 
d="M15 286v125h71v289h265q172 0 269.5 -95.5t97.5 -243.5q0 -158 -94 -259.5t-273 -101.5h-265v286h-71zM235 286v-148h116q106 0 159 58.5t54 164.5q1 102 -54 153.5t-159 51.5h-116v-155h126v-125h-126z" />
    <glyph glyph-name="Ntilde" unicode="&#xd1;" horiz-adv-x="790" 
d="M212 700l353 -455l-10 220v235h157v-700h-134l-348 448l6 -230v-218h-158v700h134zM283 760l-90 53q56 121 153 95q13 -3 31 -11.5t31 -14t27 -7.5t24.5 6t17.5 28l94 -47q-55 -127 -147 -95q-14 4 -35 14t-33 14t-26.5 5.5t-26 -8.5t-20.5 -32z" />
    <glyph glyph-name="Ograve" unicode="&#xd2;" horiz-adv-x="832" 
d="M794 350q0 -169 -104 -268t-274 -99t-274 99t-104 268t104 268t274 99t274 -99t104 -268zM641 350q0 98 -62.5 162.5t-162.5 64.5q-99 0 -162 -65t-63 -162q0 -99 63 -162.5t162 -63.5q101 0 163 63.5t62 162.5zM238 913v6h168l74 -140v-7h-126z" />
    <glyph glyph-name="Oacute" unicode="&#xd3;" horiz-adv-x="832" 
d="M794 350q0 169 -104 268t-274 99t-274 -99t-104 -268t104 -268t274 -99t274 99t104 268zM641 350q0 -99 -62 -162.5t-163 -63.5q-99 0 -162 63.5t-63 162.5q0 97 63 162t162 65q100 0 162.5 -64.5t62.5 -162.5zM582 922v-6l-116 -141h-126v7l74 140h168z" />
    <glyph glyph-name="Ocircumflex" unicode="&#xd4;" horiz-adv-x="832" 
d="M794 350q0 169 -104 268t-274 99t-274 -99t-104 -268t104 -268t274 -99t274 99t104 268zM641 350q0 -99 -62 -162.5t-163 -63.5q-99 0 -162 63.5t-63 162.5q0 97 63 162t162 65q100 0 162.5 -64.5t62.5 -162.5zM379 920h75l149 -140v-5h-140l-47 42l-46 -42h-141v5z" />
    <glyph glyph-name="Otilde" unicode="&#xd5;" horiz-adv-x="832" 
d="M794 350q0 -169 -104 -268t-274 -99t-274 99t-104 268t104 268t274 99t274 -99t104 -268zM641 350q0 98 -62.5 162.5t-162.5 64.5q-99 0 -162 -65t-63 -162q0 -99 63 -162.5t162 -63.5q101 0 163 63.5t62 162.5zM317 771l-89 52q57 119 152 95q12 -3 30 -11.5l30.5 -14
t26.5 -7.5t24.5 6t17.5 28l93 -47q-55 -126 -145 -94q-13 4 -34 13.5t-33 14t-27 5.5t-26 -9t-20 -31z" />
    <glyph glyph-name="Odieresis" unicode="&#xd6;" horiz-adv-x="832" 
d="M794 350q0 169 -104 268t-274 99t-274 -99t-104 -268t104 -268t274 -99t274 99t104 268zM641 350q0 -99 -62 -162.5t-163 -63.5q-99 0 -162 63.5t-63 162.5q0 97 63 162t162 65q100 0 162.5 -64.5t62.5 -162.5zM209 846q0 37 25 58t54.5 21t54.5 -21t25 -58t-25 -58
t-54.5 -21t-54.5 21t-25 58zM469 846q0 37 25 58t54.5 21t54.5 -21t25 -58t-25 -58t-54.5 -21t-54.5 21t-25 58z" />
    <glyph glyph-name="multiply" unicode="&#xd7;" horiz-adv-x="460" 
d="M148 495l84 -89l89 89l89 -89l-93 -94l92 -91l-89 -85l-90 90l-87 -90l-93 92l89 87l-87 88z" />
    <glyph glyph-name="Oslash" unicode="&#xd8;" horiz-adv-x="798" 
d="M400 715q60 0 126 -19l44 71h150l-82 -135q61 -53 92.5 -129t30.5 -158q-1 -70 -23 -133t-64 -115t-113 -83t-161 -31q-82 0 -145 24l-47 -77h-149l87 142q-108 104 -108 271q0 70 23 135.5t66 119t114 85.5t159 32zM400 125q56 0 97.5 19t64 51.5t34 69t12.5 77.5
q2 97 -49 162l-228 -372q35 -7 69 -7zM400 574q-55 0 -97.5 -21.5t-66 -56.5t-35 -74.5t-10.5 -80.5q4 -80 34 -136l225 365q-32 4 -50 4z" />
    <glyph glyph-name="Ugrave" unicode="&#xd9;" horiz-adv-x="774" 
d="M551 699h155v-391q0 -153 -79.5 -236.5t-220.5 -88.5q-146 -5 -242 79t-96 246v391h155v-391q0 -93 49 -141t135 -44q144 10 144 185v391zM223 904v6h168l74 -140v-7h-126z" />
    <glyph glyph-name="Uacute" unicode="&#xda;" horiz-adv-x="774" 
d="M706 699h-155v-391q0 -175 -144 -185q-86 -4 -135 44t-49 141v391h-155v-391q0 -162 96 -246t242 -79q141 5 220.5 88.5t79.5 236.5v391zM545 909v-6l-116 -141h-126v7l74 140h168z" />
    <glyph glyph-name="Ucircumflex" unicode="&#xdb;" horiz-adv-x="774" 
d="M706 699h-155v-391q0 -175 -144 -185q-86 -4 -135 44t-49 141v391h-155v-391q0 -162 96 -246t242 -79q141 5 220.5 88.5t79.5 236.5v391zM351 913h75l149 -140v-5h-140l-47 42l-46 -42h-141v5z" />
    <glyph glyph-name="Udieresis" unicode="&#xdc;" horiz-adv-x="774" 
d="M706 699h-155v-391q0 -175 -144 -185q-86 -4 -135 44t-49 141v391h-155v-391q0 -162 96 -246t242 -79q141 5 220.5 88.5t79.5 236.5v391zM183 839q0 37 25 58t54.5 21t54.5 -21t25 -58t-25 -58t-54.5 -21t-54.5 21t-25 58zM443 839q0 37 25 58t54.5 21t54.5 -21t25 -58
t-25 -58t-54.5 -21t-54.5 21t-25 58z" />
    <glyph glyph-name="Yacute" unicode="&#xdd;" horiz-adv-x="704" 
d="M352 422l-168 278h-180v-8l268 -414v-278h156v278l280 414v8h-179zM510 913v-6l-116 -141h-126v7l74 140h168z" />
    <glyph glyph-name="Thorn" unicode="&#xde;" horiz-adv-x="686" 
d="M78 0l1 699h154v-112h166q64 0 116 -20.5t83.5 -53.5t49 -75.5t17.5 -86.5t-17 -86.5t-49 -75.5t-84 -53.5t-116 -20.5h-165v-115h-156zM234 445v-191h165q53 0 83 30t30 65.5t-30 65.5t-83 30h-165z" />
    <glyph glyph-name="germandbls" unicode="&#xdf;" horiz-adv-x="632" 
d="M270 -1q0 22 -0.5 60t-0.5 59q47 -11 79 -6t52 14t30.5 27t14 33t3.5 32q0 56 -38 82t-95 26h-44v137h33q95 0 95 55q0 24 -18.5 40.5t-45 19.5t-53.5 -1.5t-46.5 -22t-20.5 -43.5v-511h-154v513q0 53 27 95t70 64t95.5 33.5t105 2.5t95.5 -30t70 -62.5t27 -94.5
q0 -43 -25.5 -79t-77.5 -48q73 -15 112.5 -63.5t39.5 -110.5q0 -74 -27 -125t-72 -74t-105 -30t-126 8z" />
    <glyph glyph-name="agrave" unicode="&#xe0;" horiz-adv-x="639" 
d="M438 437l5 57h135v-494h-130l-8 62q-23 -36 -66.5 -54t-85.5 -19q-113 -1 -184 68.5t-71 189.5t73.5 190t185.5 68q48 0 87.5 -18t58.5 -50zM307 378q-56 0 -93 -35.5t-37 -95.5t37 -95t93 -35q58 0 94.5 38t36.5 87q0 57 -34.5 96.5t-96.5 39.5zM149 709v6h168l74 -140
v-7h-126z" />
    <glyph glyph-name="aacute" unicode="&#xe1;" horiz-adv-x="639" 
d="M438 437q-19 32 -58.5 50t-87.5 18q-112 2 -185.5 -68t-73.5 -190t71 -189.5t184 -68.5q42 1 85.5 19t66.5 54l8 -62h130v494h-135zM307 378q62 0 96.5 -39.5t34.5 -96.5q0 -49 -36.5 -87t-94.5 -38q-56 0 -93 35t-37 95t37 95.5t93 35.5zM474 715v-6l-116 -141h-126v7
l74 140h168z" />
    <glyph glyph-name="acircumflex" unicode="&#xe2;" horiz-adv-x="639" 
d="M438 437q-19 32 -58.5 50t-87.5 18q-112 2 -185.5 -68t-73.5 -190t71 -189.5t184 -68.5q42 1 85.5 19t66.5 54l8 -62h130v494h-135zM307 378q62 0 96.5 -39.5t34.5 -96.5q0 -49 -36.5 -87t-94.5 -38q-56 0 -93 35t-37 95t37 95.5t93 35.5zM276 714h75l149 -140v-5h-140
l-47 42l-46 -42h-141v5z" />
    <glyph glyph-name="atilde" unicode="&#xe3;" horiz-adv-x="639" 
d="M211 575l-85 54q58 119 150 91q12 -3 45 -20.5t50.5 -14.5t29.5 33l89 -48q-54 -124 -142 -90q-13 4 -33 14t-32 14.5t-26 5.5t-25.5 -8.5t-20.5 -30.5zM438 437l5 57h135v-494h-130l-8 62q-23 -36 -66.5 -54t-85.5 -19q-113 -1 -184 68.5t-71 189.5t73.5 190t185.5 68
q48 0 87.5 -18t58.5 -50zM307 378q-56 0 -93 -35.5t-37 -95.5t37 -95t93 -35q58 0 94.5 38t36.5 87q0 57 -34.5 96.5t-96.5 39.5z" />
    <glyph glyph-name="adieresis" unicode="&#xe4;" horiz-adv-x="639" 
d="M438 437q-19 32 -58.5 50t-87.5 18q-112 2 -185.5 -68t-73.5 -190t71 -189.5t184 -68.5q42 1 85.5 19t66.5 54l8 -62h130v494h-135zM307 378q62 0 96.5 -39.5t34.5 -96.5q0 -49 -36.5 -87t-94.5 -38q-56 0 -93 35t-37 95t37 95.5t93 35.5zM109 655q0 37 25 58t54.5 21
t54.5 -21t25 -58t-25 -58t-54.5 -21t-54.5 21t-25 58zM369 655q0 37 25 58t54.5 21t54.5 -21t25 -58t-25 -58t-54.5 -21t-54.5 21t-25 58z" />
    <glyph glyph-name="aring" unicode="&#xe5;" horiz-adv-x="639" 
d="M438 437l5 57h135v-494h-130l-8 62q-23 -36 -66.5 -54t-85.5 -19q-113 -1 -184 68.5t-71 189.5t73.5 190t185.5 68q48 0 87.5 -18t58.5 -50zM307 378q-56 0 -93 -35.5t-37 -95.5t37 -95t93 -35q58 0 94.5 38t36.5 87q0 57 -34.5 96.5t-96.5 39.5zM231 663q0 60 42 88.5
t101 28.5q56 0 95.5 -29t39.5 -88q0 -54 -41 -84t-94 -30q-58 0 -100.5 27.5t-42.5 86.5zM371 712q-35 0 -49 -23.5t0 -47t49 -23.5q36 0 49.5 23.5t-1 47t-48.5 23.5z" />
    <glyph glyph-name="ae" unicode="&#xe6;" horiz-adv-x="963" 
d="M930 205h-366q11 -45 49.5 -70t87.5 -25q74 0 122 41l77 -92q-69 -75 -199 -75q-106 0 -154 69l-6 -53h-105l-1 62q-15 -35 -60.5 -53.5t-88.5 -19.5q-117 -1 -185 63.5t-68 194.5q0 120 73.5 189t177.5 69q100 0 150 -68l5 56h108v-50q55 65 162 65q109 0 178.5 -84
t42.5 -219zM306 379q-56 0 -92.5 -35t-36.5 -97t36.5 -97.5t92.5 -35.5q63 0 98.5 41.5t35.5 91t-35.5 91t-98.5 41.5zM567 311h230q-5 36 -32 54.5t-63 18.5q-102 0 -135 -73z" />
    <glyph glyph-name="ccedilla" unicode="&#xe7;" horiz-adv-x="509" 
d="M143 -190l59 58q18 -22 60 -27.5t53 22.5q7 27 -26 40.5t-64 -5.5l-28 19l31 79q-88 18 -141.5 81.5t-53.5 168.5q0 120 78 190t191 70q114 0 179 -68l-80 -91q-38 29 -93 29q-56 0 -93 -35t-37 -95q0 -57 37 -91t90 -34q26 0 54.5 10t45.5 27l91 -94q-67 -66 -168 -75
l-12 -28q35 -3 59 -15.5t33 -29t13 -35t-1 -32.5q-8 -62 -62 -88.5t-117 -11t-98 60.5z" />
    <glyph glyph-name="egrave" unicode="&#xe8;" horiz-adv-x="577" 
d="M542 200h-363q6 -38 41 -62.5t93 -24.5q83 0 128 39l81 -90q-74 -73 -212 -73q-132 0 -204.5 71t-72.5 192q0 114 71 184.5t191 70.5q131 0 200.5 -80t46.5 -227zM179 305h234q-2 38 -36 58.5t-82 20.5q-43 0 -74 -21t-42 -58zM139 711v6h168l74 -140v-7h-126z" />
    <glyph glyph-name="eacute" unicode="&#xe9;" horiz-adv-x="577" 
d="M542 200h-363q6 -38 41 -62.5t93 -24.5q83 0 128 39l81 -90q-74 -73 -212 -73q-132 0 -204.5 71t-72.5 192q0 114 71 184.5t191 70.5q131 0 200.5 -80t46.5 -227zM179 305h234q-2 38 -36 58.5t-82 20.5q-43 0 -74 -21t-42 -58zM452 712v-6l-116 -141h-126v7l74 140h168z
" />
    <glyph glyph-name="ecircumflex" unicode="&#xea;" horiz-adv-x="577" 
d="M542 200h-363q6 -38 41 -62.5t93 -24.5q83 0 128 39l81 -90q-74 -73 -212 -73q-132 0 -204.5 71t-72.5 192q0 114 71 184.5t191 70.5q131 0 200.5 -80t46.5 -227zM179 305h234q-2 38 -36 58.5t-82 20.5q-43 0 -74 -21t-42 -58zM258 719h75l149 -140v-5h-140l-47 42
l-46 -42h-141v5z" />
    <glyph glyph-name="edieresis" unicode="&#xeb;" horiz-adv-x="577" 
d="M104 642q0 47 38.5 66.5t77 0t38.5 -66.5t-38.5 -66t-77 0t-38.5 66zM337 642q0 47 38.5 66.5t77 0t38.5 -66.5t-38.5 -66t-77 0t-38.5 66zM542 200h-363q6 -38 41 -62.5t93 -24.5q83 0 128 39l81 -90q-74 -73 -212 -73q-132 0 -204.5 71t-72.5 192q0 114 71 184.5
t191 70.5q131 0 200.5 -80t46.5 -227zM179 305h234q-2 38 -36 58.5t-82 20.5q-43 0 -74 -21t-42 -58z" />
    <glyph glyph-name="igrave" unicode="&#xec;" horiz-adv-x="267" 
d="M2 693v6h157l49 -141v-7h-124zM206 0h-145v494h145v-494z" />
    <glyph glyph-name="iacute" unicode="&#xed;" horiz-adv-x="267" 
d="M266 699v-6l-82 -142h-124v7l49 141h157zM61 0h145v494h-145v-494z" />
    <glyph glyph-name="icircumflex" unicode="&#xee;" horiz-adv-x="267" 
d="M61 0h145v494h-145v-494zM100 712h67l131 -150v-5h-123l-42 44l-40 -44h-125v5z" />
    <glyph glyph-name="idieresis" unicode="&#xef;" horiz-adv-x="267" 
d="M-29 633q0 46 37.5 65t74.5 0t37 -65t-37 -65t-74.5 0t-37.5 65zM163 633q0 46 37 65t74.5 0t37.5 -65t-37.5 -65t-74.5 0t-37 65zM61 0h145v494h-145v-494z" />
    <glyph glyph-name="eth" unicode="&#xf0;" horiz-adv-x="580" 
d="M302 660l51 57l84 -67l-42 -47q79 -64 116 -156.5t32 -196.5q-5 -117 -71.5 -187.5t-182.5 -70.5q-121 0 -188.5 72.5t-67.5 173.5q0 82 47.5 148.5t133.5 88.5q98 18 154 -22q-35 60 -104 95t-139 45l24 109q85 -12 153 -42zM289 119q51 0 80.5 33.5t33.5 86.5
q4 50 -28.5 84t-85.5 34q-51 0 -81.5 -35.5t-30.5 -82.5q0 -48 30.5 -84t81.5 -36z" />
    <glyph glyph-name="ntilde" unicode="&#xf1;" 
d="M562 0h-145v261q0 115 -102 115q-49 1 -80.5 -35t-31.5 -86v-255h-142v494h130l5 -63q59 77 160 75q206 0 206 -244v-262zM217 580l-82 49q52 111 140 88q11 -3 27.5 -10.5l28 -12.5t24 -7.5t22 5.5t16.5 26l86 -43q-51 -118 -134 -88q-12 4 -31 12.5t-30.5 12.5t-24.5 5
t-23.5 -8t-18.5 -29z" />
    <glyph glyph-name="ograve" unicode="&#xf2;" horiz-adv-x="605" 
d="M302 -11q-123 0 -196.5 71.5t-73.5 185.5q0 113 74.5 186t195.5 73q122 0 196.5 -73t74.5 -186q0 -114 -73.5 -185.5t-197.5 -71.5zM302 117q62 0 93.5 37.5t31.5 91.5q0 52 -32 91t-93 39q-60 0 -92 -39t-32 -91t31.5 -90.5t92.5 -38.5zM142 704v6h168l74 -140v-7h-126z
" />
    <glyph glyph-name="oacute" unicode="&#xf3;" horiz-adv-x="605" 
d="M302 -11q124 0 197.5 71.5t73.5 185.5q0 113 -74.5 186t-196.5 73q-121 0 -195.5 -73t-74.5 -186q0 -114 73.5 -185.5t196.5 -71.5zM302 117q-61 0 -92.5 38.5t-31.5 90.5t32 91t92 39q61 0 93 -39t32 -91q0 -54 -31.5 -91.5t-93.5 -37.5zM475 712v-6l-116 -141h-126v7
l74 140h168z" />
    <glyph glyph-name="ocircumflex" unicode="&#xf4;" horiz-adv-x="605" 
d="M302 -11q124 0 197.5 71.5t73.5 185.5q0 113 -74.5 186t-196.5 73q-121 0 -195.5 -73t-74.5 -186q0 -114 73.5 -185.5t196.5 -71.5zM302 117q-61 0 -92.5 38.5t-31.5 90.5t32 91t92 39q61 0 93 -39t32 -91q0 -54 -31.5 -91.5t-93.5 -37.5zM264 714h75l149 -140v-5h-140
l-47 42l-46 -42h-141v5z" />
    <glyph glyph-name="otilde" unicode="&#xf5;" horiz-adv-x="605" 
d="M302 -11q-123 0 -196.5 71.5t-73.5 185.5q0 113 74.5 186t195.5 73q122 0 196.5 -73t74.5 -186q0 -114 -73.5 -185.5t-197.5 -71.5zM302 117q62 0 93.5 37.5t31.5 91.5q0 52 -32 91t-93 39q-60 0 -92 -39t-32 -91t31.5 -90.5t92.5 -38.5zM204 575l-85 50q54 114 145 90
q13 -3 35.5 -13.5t36 -15.5t28.5 1t23 29l89 -44q-52 -121 -139 -90q-13 4 -32.5 13t-31 13t-25.5 5.5t-24.5 -8.5t-19.5 -30z" />
    <glyph glyph-name="odieresis" unicode="&#xf6;" horiz-adv-x="605" 
d="M106 640q0 37 25 58t54.5 21t54.5 -21t25 -58t-25 -58t-54.5 -21t-54.5 21t-25 58zM344 640q0 37 25 58t54.5 21t54.5 -21t25 -58t-25 -58t-54.5 -21t-54.5 21t-25 58zM302 -11q124 0 197.5 71.5t73.5 185.5q0 113 -74.5 186t-196.5 73q-121 0 -195.5 -73t-74.5 -186
q0 -114 73.5 -185.5t196.5 -71.5zM302 117q-61 0 -92.5 38.5t-31.5 90.5t32 91t92 39q61 0 93 -39t32 -91q0 -54 -31.5 -91.5t-93.5 -37.5z" />
    <glyph glyph-name="divide" unicode="&#xf7;" horiz-adv-x="552" 
d="M46 382v-129h460v129h-460zM197 132q0 50 39.5 70.5t79 0t39.5 -70.5q0 -37 -24.5 -58t-54.5 -21t-54.5 21t-24.5 58zM197 507q0 50 39.5 70.5t79 0t39.5 -70.5q0 -37 -24.5 -58t-54.5 -21t-54.5 21t-24.5 58z" />
    <glyph glyph-name="oslash" unicode="&#xf8;" horiz-adv-x="605" 
d="M302 -11q-46 0 -82 10l-31 -54h-126l59 101q-90 71 -90 200q0 113 74.5 186.5t195.5 73.5q43 0 84 -11l33 56h126l-62 -105q90 -74 90 -200q0 -114 -73.5 -185.5t-197.5 -71.5zM302 376q-60 0 -92 -39t-32 -91q0 -41 19 -73l119 202q-5 1 -14 1zM290 117h12
q62 0 93.5 37.5t31.5 91.5q0 40 -19 72z" />
    <glyph glyph-name="ugrave" unicode="&#xf9;" 
d="M54 494h145v-261q0 -115 102 -115q49 -1 80.5 35t31.5 86v255h142v-494h-130l-5 65q-57 -77 -160 -75q-206 0 -206 242v262zM141 700v6h168l74 -140v-7h-126z" />
    <glyph glyph-name="uacute" unicode="&#xfa;" 
d="M199 494h-145v-262q0 -242 206 -242q103 -2 160 75l5 -65h130v494h-142v-255q0 -50 -31.5 -86t-80.5 -35q-102 0 -102 115v261zM468 710v-6l-116 -141h-126v7l74 140h168z" />
    <glyph glyph-name="ucircumflex" unicode="&#xfb;" 
d="M199 494h-145v-262q0 -242 206 -242q103 -2 160 75l5 -65h130v494h-142v-255q0 -50 -31.5 -86t-80.5 -35q-102 0 -102 115v261zM265 712h75l149 -140v-5h-140l-47 42l-46 -42h-141v5z" />
    <glyph glyph-name="udieresis" unicode="&#xfc;" 
d="M199 494h-145v-262q0 -242 206 -242q103 -2 160 75l5 -65h130v494h-142v-255q0 -50 -31.5 -86t-80.5 -35q-102 0 -102 115v261zM95 643q0 47 40 66.5t80 0t40 -66.5t-40 -66t-80 0t-40 66zM356 643q0 47 40 66.5t79.5 0t39.5 -66.5q0 -35 -25 -55t-54.5 -20t-54.5 20
t-25 55z" />
    <glyph glyph-name="yacute" unicode="&#xfd;" horiz-adv-x="573" 
d="M568 494h-159l-121 -311l-123 311h-162l207 -479l-102 -237h157zM441 708v-6l-116 -141h-126v7l74 140h168z" />
    <glyph glyph-name="thorn" unicode="&#xfe;" horiz-adv-x="639" 
d="M340 126q52 0 87 33t35 87t-35 87t-87 33q-49 0 -85.5 -36t-36.5 -84t36.5 -84t85.5 -36zM205 -206h-144v906h144v-259q21 31 64 47.5t81 16.5q114 1 184.5 -66t70.5 -193q0 -125 -68 -192t-181 -67q-40 0 -82.5 15.5t-68.5 50.5v-259z" />
    <glyph glyph-name="ydieresis" unicode="&#xff;" horiz-adv-x="573" 
d="M568 494h-159l-121 -311l-123 311h-162l207 -479l-102 -237h157zM82 648q0 37 25 58t54.5 21t54.5 -21t25 -58t-25 -58t-54.5 -21t-54.5 21t-25 58zM342 648q0 37 25 58t54.5 21t54.5 -21t25 -58t-25 -58t-54.5 -21t-54.5 21t-25 58z" />
    <glyph glyph-name="Amacron" unicode="&#x100;" horiz-adv-x="790" 
d="M625 0l-51 120h-359l-51 -120h-168l314 700h170l314 -700h-169zM515 258l-120 284l-121 -284h241zM216 763v119h359v-119h-359z" />
    <glyph glyph-name="amacron" unicode="&#x101;" horiz-adv-x="639" 
d="M438 437l5 57h135v-494h-130l-8 62q-23 -36 -66.5 -54t-85.5 -19q-113 -1 -184 68.5t-71 189.5t73.5 190t185.5 68q48 0 87.5 -18t58.5 -50zM307 378q-56 0 -93 -35.5t-37 -95.5t37 -95t93 -35q58 0 94.5 38t36.5 87q0 57 -34.5 96.5t-96.5 39.5zM142 586v119h359v-119
h-359z" />
    <glyph glyph-name="Abreve" unicode="&#x102;" horiz-adv-x="790" 
d="M625 0l-51 120h-359l-51 -120h-168l314 700h170l314 -700h-169zM515 258l-120 284l-121 -284h241zM442 905h120q3 -66 -44.5 -107t-119.5 -41t-123.5 39t-43.5 109h120q0 -23 15.5 -32.5t31.5 -9.5q44 0 44 42z" />
    <glyph glyph-name="abreve" unicode="&#x103;" horiz-adv-x="639" 
d="M438 437l5 57h135v-494h-130l-8 62q-23 -36 -66.5 -54t-85.5 -19q-113 -1 -184 68.5t-71 189.5t73.5 190t185.5 68q48 0 87.5 -18t58.5 -50zM307 378q-56 0 -93 -35.5t-37 -95.5t37 -95t93 -35q58 0 94.5 38t36.5 87q0 57 -34.5 96.5t-96.5 39.5zM371 714h119
q3 -64 -44 -103.5t-118 -39.5t-122.5 38t-43.5 105h120q0 -40 46 -40q43 0 43 40z" />
    <glyph glyph-name="Aogonek" unicode="&#x104;" horiz-adv-x="793" 
d="M508 265l-113 259l-112 -259h225zM729 -69l71 -56q-38 -50 -106 -59q-48 -7 -89 8.5t-61 45t-25 63t16.5 66t66.5 51.5l-31 70h-351l-55 -120h-169l314 700h170l317 -700q-65 3 -114 -2q-31 -3 -42.5 -24.5t2 -40.5t43.5 -17q20 2 43 15z" />
    <glyph glyph-name="aogonek" unicode="&#x105;" horiz-adv-x="640" 
d="M561 -120l71 -55q-31 -50 -107 -61q-55 -7 -103.5 18t-59.5 78q-15 96 88 141l-13 61q-15 -36 -61 -57.5t-87 -21.5q-115 -2 -185 65.5t-70 198.5q0 127 72 193t187 66q46 0 86 -19.5t58 -49.5l5 56h137v-546q-27 7 -71.5 -4.5t-44.5 -46.5q0 -18 13 -29t36 -8.5t49 21.5
zM308 379q-56 0 -93 -35t-37 -97t37 -97.5t93 -35.5q48 0 80.5 27.5t40 66t0 77.5t-40 66.5t-80.5 27.5z" />
    <glyph glyph-name="Cacute" unicode="&#x106;" horiz-adv-x="696" 
d="M681 85l-97 108q-30 -30 -79 -48.5t-93 -18.5q-59 0 -103 19.5t-68.5 52t-36.5 69t-12 77.5q0 40 12 78.5t37.5 72t69.5 54t101 20.5q100 0 159 -58l98 97q-110 108 -257 108q-93 0 -166.5 -32t-118 -86t-67 -118.5t-22.5 -134.5q0 -74 21.5 -137.5t65 -115t117 -81
t170.5 -29.5q165 0 269 103zM559 912v-5l-110 -135h-120v7l71 133h159z" />
    <glyph glyph-name="cacute" unicode="&#x107;" horiz-adv-x="508" 
d="M495 65l-91 94q-17 -17 -45.5 -27t-54.5 -10q-53 0 -90 33.5t-37 90.5q0 60 37 94.5t93 34.5q55 0 93 -29l80 91q-65 68 -179 68q-113 0 -191 -69.5t-78 -189.5q0 -127 77 -192t193 -65t193 76zM426 699v-6l-102 -123h-111v6l65 123h148z" />
    <glyph glyph-name="Ccircumflex" unicode="&#x108;" horiz-adv-x="696" 
d="M370 924h72l144 -135v-5h-140l-40 35l-41 -35h-140v5zM681 85l-97 108q-30 -30 -79 -48.5t-93 -18.5q-59 0 -103 19.5t-68.5 52t-36.5 69t-12 77.5q0 40 12 78.5t37.5 72t69.5 54t101 20.5q100 0 159 -58l98 97q-110 108 -257 108q-93 0 -166.5 -32t-118 -86t-67 -118.5
t-22.5 -134.5q0 -74 21.5 -137.5t65 -115t117 -81t170.5 -29.5q165 0 269 103z" />
    <glyph glyph-name="ccircumflex" unicode="&#x109;" horiz-adv-x="508" 
d="M495 65l-91 94q-17 -17 -45.5 -27t-54.5 -10q-53 0 -90 33.5t-37 90.5q0 60 37 94.5t93 34.5q55 0 93 -29l80 91q-65 68 -179 68q-113 0 -191 -69.5t-78 -189.5q0 -127 77 -192t193 -65t193 76zM255 705h70l138 -130v-4h-130l-44 39l-42 -39h-131v4z" />
    <glyph glyph-name="Cdotaccent" unicode="&#x10a;" horiz-adv-x="696" 
d="M681 85l-97 108q-30 -30 -79 -48.5t-93 -18.5q-59 0 -103 19.5t-68.5 52t-36.5 69t-12 77.5q0 40 12 78.5t37.5 72t69.5 54t101 20.5q100 0 159 -58l98 97q-110 108 -257 108q-93 0 -166.5 -32t-118 -86t-67 -118.5t-22.5 -134.5q0 -74 21.5 -137.5t65 -115t117 -81
t170.5 -29.5q165 0 269 103zM308 854q0 36 26.5 56.5t58 20.5t58 -20.5t26.5 -56.5t-26.5 -56t-58 -20t-58 20t-26.5 56z" />
    <glyph glyph-name="cdotaccent" unicode="&#x10b;" horiz-adv-x="508" 
d="M495 65l-91 94q-17 -17 -45.5 -27t-54.5 -10q-53 0 -90 33.5t-37 90.5q0 60 37 94.5t93 34.5q55 0 93 -29l80 91q-65 68 -179 68q-113 0 -191 -69.5t-78 -189.5q0 -127 77 -192t193 -65t193 76zM215 641q0 44 40 62t80 0t40 -62q0 -43 -40 -61t-80 0t-40 61z" />
    <glyph glyph-name="Ccaron" unicode="&#x10c;" horiz-adv-x="696" 
d="M681 85l-97 108q-30 -30 -79 -48.5t-93 -18.5q-59 0 -103 19.5t-68.5 52t-36.5 69t-12 77.5q0 40 12 78.5t37.5 72t69.5 54t101 20.5q100 0 159 -58l98 97q-110 108 -257 108q-93 0 -166.5 -32t-118 -86t-67 -118.5t-22.5 -134.5q0 -74 21.5 -137.5t65 -115t117 -81
t170.5 -29.5q165 0 269 103zM229 899v5h139l44 -36l47 36h134v-5l-149 -129h-71z" />
    <glyph glyph-name="ccaron" unicode="&#x10d;" horiz-adv-x="508" 
d="M495 65l-91 94q-17 -17 -45.5 -27t-54.5 -10q-53 0 -90 33.5t-37 90.5q0 60 37 94.5t93 34.5q55 0 93 -29l80 91q-65 68 -179 68q-113 0 -191 -69.5t-78 -189.5q0 -127 77 -192t193 -65t193 76zM116 694v6h133l42 -37l45 37h128v-6l-142 -129h-69z" />
    <glyph glyph-name="Dcaron" unicode="&#x10e;" horiz-adv-x="753" 
d="M365 700h-287v-700h287q89 0 157.5 29.5t109 80t61 112.5t20.5 133q0 95 -35.5 171t-116 125t-196.5 49zM232 144v415h133q101 0 147.5 -58t46.5 -144q0 -41 -9.5 -76.5t-30 -67.5t-60.5 -50.5t-94 -18.5h-133zM161 892v5h146l46 -36l49 36h141v-5l-156 -126h-75z" />
    <glyph glyph-name="dcaron" unicode="&#x10f;" horiz-adv-x="701" 
d="M299 374q-55 0 -88 -35.5t-33 -91.5q0 -55 32.5 -91t88.5 -36q55 0 94 31t39 96q0 59 -40 93t-93 34zM434 699h145v-699h-129l-9 63q-56 -72 -164 -72q-109 0 -176.5 70.5t-67.5 185.5q0 118 68 187.5t178 69.5q98 0 155 -70v265zM611 487l43 213h130l-75 -213h-98z" />
    <glyph glyph-name="Dcroat" unicode="&#x110;" horiz-adv-x="759" 
d="M22 288v126h62v286h287q87 0 155 -29.5t109 -79.5t62 -110.5t22 -128.5t-19.5 -129.5t-61 -112t-110 -80.5t-157.5 -30h-287v288h-62zM235 288v-144h136q100 0 148.5 61.5t45.5 148.5q-3 83 -51 142.5t-143 59.5h-136v-142h100v-126h-100z" />
    <glyph glyph-name="dcroat" unicode="&#x111;" horiz-adv-x="636" 
d="M434 699h141v-55h63v-98h-63v-546h-131l-10 56q-46 -68 -145 -68q-112 0 -184 70t-72 189q0 125 69.5 192t182.5 67q36 0 83.5 -19.5t65.5 -48.5v108h-99v98h99v55zM298 372q-52 0 -86.5 -35t-34.5 -90q0 -53 35 -89.5t86 -36.5q52 0 89 34.5t37 91.5q0 55 -37.5 90
t-88.5 35z" />
    <glyph glyph-name="Emacron" unicode="&#x112;" horiz-adv-x="656" 
d="M611 144v-144h-533v700h519v-143h-366v-135h345v-137h-345v-141h380zM162 773v119h359v-119h-359z" />
    <glyph glyph-name="emacron" unicode="&#x113;" horiz-adv-x="577" 
d="M542 200h-363q6 -38 41 -62.5t93 -24.5q83 0 128 39l81 -90q-74 -73 -212 -73q-132 0 -204.5 71t-72.5 192q0 114 71 184.5t191 70.5q131 0 200.5 -80t46.5 -227zM179 305h234q-2 38 -36 58.5t-82 20.5q-43 0 -74 -21t-42 -58zM134 584v110h320v-110h-320z" />
    <glyph glyph-name="Ebreve" unicode="&#x114;" horiz-adv-x="656" 
d="M611 144v-144h-533v700h519v-143h-366v-135h345v-137h-345v-141h380zM392 900h116q3 -62 -43 -100t-115 -38t-119.5 36.5t-42.5 101.5h117q0 -21 14.5 -30t30.5 -9q42 0 42 39z" />
    <glyph glyph-name="ebreve" unicode="&#x115;" horiz-adv-x="577" 
d="M542 200h-363q6 -38 41 -62.5t93 -24.5q83 0 128 39l81 -90q-74 -73 -212 -73q-132 0 -204.5 71t-72.5 192q0 114 71 184.5t191 70.5q131 0 200.5 -80t46.5 -227zM179 305h234q-2 38 -36 58.5t-82 20.5q-43 0 -74 -21t-42 -58zM345 709h117q3 -64 -43.5 -104t-115.5 -40
q-71 0 -121.5 38t-42.5 106h118q0 -40 46 -40q42 0 42 40z" />
    <glyph glyph-name="Edotaccent" unicode="&#x116;" horiz-adv-x="656" 
d="M611 0v144h-380v141h345v137h-345v135h366v143h-519v-700h533zM270 844q0 36 26.5 56t59 20t59 -20t26.5 -56q0 -35 -26.5 -55t-59 -20t-59 20t-26.5 55z" />
    <glyph glyph-name="edotaccent" unicode="&#x117;" horiz-adv-x="577" 
d="M542 200h-363q6 -38 41 -62.5t93 -24.5q83 0 128 39l81 -90q-74 -73 -212 -73q-132 0 -204.5 71t-72.5 192q0 114 71 184.5t191 70.5q131 0 200.5 -80t46.5 -227zM179 305h234q-2 38 -36 58.5t-82 20.5q-43 0 -74 -21t-42 -58zM213 646q0 28 17.5 46.5t43 23t51 0t43 -23
t17.5 -46.5q0 -44 -43 -62.5t-86 0t-43 62.5z" />
    <glyph glyph-name="Eogonek" unicode="&#x118;" horiz-adv-x="668" 
d="M611 153v-153q-136 19 -147 -45q-5 -25 18.5 -33t51 -2.5t41.5 14.5l70 -56q-25 -41 -79 -60.5t-107.5 -12.5t-81.5 37q-33 35 -21 88.5t62 69.5h-340v700h536v-151h-382v-128h370v-145h-370v-123h379z" />
    <glyph glyph-name="eogonek" unicode="&#x119;" horiz-adv-x="580" 
d="M549 197h-367q6 -36 39.5 -59t91.5 -23q31 0 65.5 10t52.5 27l91 -91q-39 -37 -99 -58q-29 -2 -42 -24t-4 -40t35.5 -19t61.5 23l71 -56q-53 -59 -143 -66t-126 46q-20 27 -17 62.5t31 58.5q-41 3 -75 13q-89 27 -135.5 92t-46.5 158q0 115 71.5 187t194.5 72
q131 0 197.5 -80.5t52.5 -232.5zM185 314h225q-16 74 -106 74q-88 0 -119 -74z" />
    <glyph glyph-name="Ecaron" unicode="&#x11a;" horiz-adv-x="656" 
d="M611 0v144h-380v141h345v137h-345v135h366v143h-519v-700h533zM152 896v6h146l47 -37l49 37h141v-6l-156 -127h-76z" />
    <glyph glyph-name="ecaron" unicode="&#x11b;" horiz-adv-x="577" 
d="M542 200h-363q6 -38 41 -62.5t93 -24.5q83 0 128 39l81 -90q-74 -73 -212 -73q-132 0 -204.5 71t-72.5 192q0 114 71 184.5t191 70.5q131 0 200.5 -80t46.5 -227zM179 305h234q-2 38 -36 58.5t-82 20.5q-43 0 -74 -21t-42 -58zM113 694v6h145l45 -36l49 36h140v-6
l-155 -126h-74z" />
    <glyph glyph-name="Gcircumflex" unicode="&#x11c;" horiz-adv-x="742" 
d="M575 516l97 97q-105 108 -261 108q-93 0 -166 -30t-117.5 -82.5t-67 -118t-22.5 -141.5q0 -71 21 -135t63.5 -117.5t116.5 -85t171 -31.5q194 0 285 130v305h-302v-130h167v-112q-65 -49 -149 -49q-59 0 -103.5 20.5t-69 55t-36 72t-11.5 77.5q0 112 59 170.5t161 58.5
q99 0 164 -62zM363 914h78l154 -133v-5h-145l-49 40l-47 -40h-147v5z" />
    <glyph glyph-name="gcircumflex" unicode="&#x11d;" horiz-adv-x="606" 
d="M40 -68h134q7 -100 124 -100q51 0 86.5 23.5t35.5 67.5q0 85 -120 85q-122 0 -194.5 67.5t-72.5 181.5q0 120 78 186t189 66q77 0 116 -27l54 70l104 -80l-63 -75q54 -65 51 -142q-3 -120 -106 -173q110 -49 110 -159q0 -104 -79 -161t-189 -57q-127 0 -193.5 59.5
t-64.5 167.5zM300 381q-57 0 -92.5 -33t-35.5 -91q0 -53 36.5 -85.5t91.5 -32.5q52 0 88 31t36 87q0 52 -35.5 88t-88.5 36zM265 728h71l142 -137v-5h-133l-45 41l-44 -41h-135v5z" />
    <glyph glyph-name="Gbreve" unicode="&#x11e;" horiz-adv-x="742" 
d="M672 613l-97 -97q-65 62 -164 62q-102 0 -161 -58.5t-59 -170.5q0 -40 11.5 -77.5t36 -72t69 -55t103.5 -20.5q84 0 149 49v112h-167v130h302v-305q-91 -130 -285 -130q-97 0 -171 31.5t-116.5 85t-63.5 117.5t-21 135q0 76 22.5 141.5t67 118t117.5 82.5t166 30
q156 0 261 -108zM452 923h121q3 -66 -45 -106.5t-120 -40.5q-73 0 -125.5 39t-44.5 108h122q0 -23 15.5 -32.5t32.5 -9.5q44 0 44 42z" />
    <glyph glyph-name="gbreve" unicode="&#x11f;" horiz-adv-x="606" 
d="M40 -68h134q7 -100 124 -100q51 0 86.5 23.5t35.5 67.5q0 85 -120 85q-122 0 -194.5 67.5t-72.5 181.5q0 120 78 186t189 66q77 0 116 -27l54 70l104 -80l-63 -75q54 -65 51 -142q-3 -120 -106 -173q110 -49 110 -159q0 -104 -79 -161t-189 -57q-127 0 -193.5 59.5
t-64.5 167.5zM300 381q-57 0 -92.5 -33t-35.5 -91q0 -53 36.5 -85.5t91.5 -32.5q52 0 88 31t36 87q0 52 -35.5 88t-88.5 36zM353 716h121q3 -65 -45 -105.5t-120 -40.5q-73 0 -125.5 38.5t-44.5 107.5h122q0 -23 15.5 -32.5t32.5 -9.5q44 0 44 42z" />
    <glyph glyph-name="Gdotaccent" unicode="&#x120;" horiz-adv-x="742" 
d="M575 516l97 97q-105 108 -261 108q-93 0 -166 -30t-117.5 -82.5t-67 -118t-22.5 -141.5q0 -71 21 -135t63.5 -117.5t116.5 -85t171 -31.5q194 0 285 130v305h-302v-130h167v-112q-65 -49 -149 -49q-59 0 -103.5 20.5t-69 55t-36 72t-11.5 77.5q0 112 59 170.5t161 58.5
q99 0 164 -62zM312 856q0 37 27.5 58t61 21t61 -21t27.5 -58q0 -36 -27.5 -57t-61 -21t-61 21t-27.5 57z" />
    <glyph glyph-name="gdotaccent" unicode="&#x121;" horiz-adv-x="606" 
d="M40 -68h134q7 -100 124 -100q51 0 86.5 23.5t35.5 67.5q0 85 -120 85q-122 0 -194.5 67.5t-72.5 181.5q0 120 78 186t189 66q77 0 116 -27l54 70l104 -80l-63 -75q54 -65 51 -142q-3 -120 -106 -173q110 -49 110 -159q0 -104 -79 -161t-189 -57q-127 0 -193.5 59.5
t-64.5 167.5zM300 381q-57 0 -92.5 -33t-35.5 -91q0 -53 36.5 -85.5t91.5 -32.5q52 0 88 31t36 87q0 52 -35.5 88t-88.5 36zM212 652q0 38 28 59.5t61 21.5t61 -21.5t28 -59.5q0 -30 -18.5 -50.5t-44.5 -25t-52 0t-44.5 25t-18.5 50.5z" />
    <glyph glyph-name="Gcommaaccent" unicode="&#x122;" horiz-adv-x="742" 
d="M672 613l-97 -97q-65 62 -164 62q-102 0 -161 -58.5t-59 -170.5q0 -40 11.5 -77.5t36 -72t69 -55t103.5 -20.5q84 0 149 49v112h-167v130h302v-305q-91 -130 -285 -130q-97 0 -171 31.5t-116.5 85t-63.5 117.5t-21 135q0 76 22.5 141.5t67 118t117.5 82.5t166 30
q156 0 261 -108zM489 -138q0 -22 -6 -45.5t-20.5 -62.5t-18.5 -52h-77l15 101q-55 8 -55 57q0 28 16.5 47.5t40.5 23.5t48 -0.5t40.5 -23t16.5 -45.5z" />
    <glyph glyph-name="gcommaaccent" unicode="&#x123;" horiz-adv-x="606" 
d="M218 649q0 16 5.5 36.5t11.5 36t16.5 40.5l16.5 40h81l-18 -97q27 -4 42.5 -17.5t14.5 -36.5q-1 -31 -18.5 -51.5t-43 -25t-50 0.5t-42 25t-16.5 49zM40 -68h134q7 -100 124 -100q51 0 86.5 23.5t35.5 67.5q0 85 -120 85q-122 0 -194.5 67.5t-72.5 181.5q0 120 78 186
t189 66q77 0 116 -27l54 70l104 -80l-63 -75q54 -65 51 -142q-3 -120 -106 -173q110 -49 110 -159q0 -104 -79 -161t-189 -57q-127 0 -193.5 59.5t-64.5 167.5zM300 381q-57 0 -92.5 -33t-35.5 -91q0 -53 36.5 -85.5t91.5 -32.5q52 0 88 31t36 87q0 52 -35.5 88t-88.5 36z
" />
    <glyph glyph-name="Hcircumflex" unicode="&#x124;" horiz-adv-x="779" 
d="M547 0h154v700h-154v-280h-313v280h-156v-700h156v277h313v-277zM349 916h73l145 -136v-5h-136l-46 41l-45 -41h-137v5z" />
    <glyph glyph-name="hcircumflex" unicode="&#x125;" horiz-adv-x="607" 
d="M206 700h-145v-700h144v250q0 57 31.5 89t78.5 32q43 0 68.5 -28t25.5 -79v-264h144v265q0 237 -197 237q-97 0 -150 -69v267zM261 916h72l143 -135v-5h-135l-45 41l-44 -41h-135v5z" />
    <glyph glyph-name="Hbar" unicode="&#x126;" horiz-adv-x="790" 
d="M706 -1h-154v272h-313v-272h-156v516h-62v96h62v88h156v-88h313v88h154v-88h65v-96h-65v-516zM239 415h313v100h-313v-100z" />
    <glyph glyph-name="hbar" unicode="&#x127;" horiz-adv-x="607" 
d="M3 548v96h58v56h145v-56h102v-96h-102v-115q57 67 147 67q102 0 151 -65t49 -182v-253h-144v252q0 60 -27.5 87.5t-70.5 27.5q-46 0 -76 -35.5t-30 -85.5v-246h-144v548h-58z" />
    <glyph glyph-name="Itilde" unicode="&#x128;" horiz-adv-x="311" 
d="M233 0h-155v700h155v-700zM59 775l-83 49q54 111 142 87q12 -3 43.5 -18t48.5 -12t28 31l87 -43q-51 -117 -136 -87q-13 4 -32 12.5t-30.5 12.5t-25 5t-23.5 -8t-19 -29z" />
    <glyph glyph-name="itilde" unicode="&#x129;" horiz-adv-x="267" 
d="M206 0h-145v494h145v-494zM55 575l-70 48q45 109 119 86q10 -3 24 -10l24 -12t20.5 -7t19 5t13.5 25l73 -42q-42 -117 -114 -86q-10 4 -26.5 12.5t-25.5 12.5t-20.5 5t-20.5 -8t-16 -29z" />
    <glyph glyph-name="Imacron" unicode="&#x12a;" horiz-adv-x="311" 
d="M233 0h-155v700h155v-700zM21 772v117h269v-117h-269z" />
    <glyph glyph-name="imacron" unicode="&#x12b;" horiz-adv-x="267" 
d="M206 0h-145v494h145v-494zM20 587v111h229v-111h-229z" />
    <glyph glyph-name="Ibreve" unicode="&#x12c;" horiz-adv-x="311" 
d="M233 0h-155v700h155v-700zM206 922h115q3 -70 -42.5 -113t-114.5 -43t-119 41t-42 115h116q0 -24 14.5 -34t30.5 -10q42 0 42 44z" />
    <glyph glyph-name="ibreve" unicode="&#x12d;" horiz-adv-x="267" 
d="M206 0h-145v494h145v-494zM175 699h101q3 -65 -37.5 -106t-100.5 -41q-61 0 -104.5 39t-37.5 108h102q0 -23 13 -32t27 -9q37 0 37 41z" />
    <glyph glyph-name="Iogonek" unicode="&#x12e;" horiz-adv-x="313" 
d="M234 -68l71 -56q-34 -42 -93.5 -57.5t-113 6.5t-68.5 79q-8 29 3 64.5t47 55.5v676h155v-700q-51 4 -79.5 -17t-21.5 -44q7 -22 33 -27.5t67 20.5z" />
    <glyph glyph-name="iogonek" unicode="&#x12f;" horiz-adv-x="269" 
d="M208 494h-144v-467q-33 -16 -50.5 -41t-18.5 -50.5t6 -51.5q24 -71 136 -75q42 -2 80.5 16t59.5 52l-72 56q-25 -20 -53 -20q-19 1 -31 11t-12 23q-4 32 29 45t70 8v494zM55 629q0 38 25.5 60t56.5 22t56.5 -22t25.5 -60t-25.5 -60t-56.5 -22t-56.5 22t-25.5 60z" />
    <glyph glyph-name="Idotaccent" unicode="&#x130;" horiz-adv-x="311" 
d="M78 0h155v700h-155v-700zM70 845q0 37 27.5 58t61 21t61 -21t27.5 -58q0 -36 -27.5 -56.5t-61 -20.5t-61 20.5t-27.5 56.5z" />
    <glyph glyph-name="dotlessi" unicode="&#x131;" horiz-adv-x="267" 
d="M206 0h-145v494h145v-494z" />
    <glyph glyph-name="IJ" unicode="&#x132;" horiz-adv-x="1027" 
d="M233 0h-155v700h155v-700zM329 291h151q7 -158 159 -158q77 0 120 44t43 124v257h-194v142h350v-400q0 -141 -83 -228t-234 -87q-309 0 -312 306z" />
    <glyph glyph-name="ij" unicode="&#x133;" horiz-adv-x="531" 
d="M205 495h-144v-495h144v495zM51 625q0 38 25.5 60t56.5 22t56.5 -22t25.5 -60t-25.5 -60t-56.5 -22t-56.5 22t-25.5 60zM470 495h-143v-523q0 -102 -99 -52l-41 -105q48 -28 98 -33t92 12t68 64t25 118v519zM318 625q0 38 25.5 60t56 22t56 -22t25.5 -60t-25.5 -60
t-56 -22t-56 22t-25.5 60z" />
    <glyph glyph-name="Jcircumflex" unicode="&#x134;" horiz-adv-x="716" 
d="M169 291h-151q3 -306 312 -306q151 0 234 87t83 228v400h-350v-142h194v-257q0 -80 -43 -124t-120 -44q-152 0 -159 158zM422 924h78l155 -147v-5h-145l-49 44l-48 -44h-147v5z" />
    <glyph glyph-name="jcircumflex" unicode="&#x135;" horiz-adv-x="265" 
d="M97 718h62l122 -146v-5h-115l-38 43l-38 -43h-116v5zM204 495h-143v-540q0 -73 -42 -77q-24 -1 -55 12l-49 -104q52 -35 116 -35q86 0 129.5 48.5t43.5 155.5v540z" />
    <glyph glyph-name="Kcommaaccent" unicode="&#x136;" horiz-adv-x="673" 
d="M656 700v-4l-284 -336l309 -351v-9h-188l-259 299v-299h-156v700h156v-289l233 289h189zM447 -114q0 -22 -6 -45.5t-21 -61.5l-20 -51h-81l16 100q-57 9 -57 56q0 28 17.5 47t42 23t49.5 0t42.5 -22.5t17.5 -45.5z" />
    <glyph glyph-name="kcommaaccent" unicode="&#x137;" horiz-adv-x="548" 
d="M61 699h144v-399l146 193h170v-9l-181 -223l209 -250v-11h-173l-171 217v-217h-144v699zM376 -115q0 -22 -6 -45.5t-20.5 -62.5t-18.5 -52h-77l15 101q-54 8 -54 57q0 28 16.5 47.5t40.5 23.5t47.5 -0.5t40 -23t16.5 -45.5z" />
    <glyph glyph-name="kgreenlandic" unicode="&#x138;" horiz-adv-x="547" 
d="M61 492h144v-192l146 193h170v-9l-186 -223l214 -250v-11h-173l-171 217v-217h-144v492z" />
    <glyph glyph-name="Lacute" unicode="&#x139;" horiz-adv-x="600" 
d="M234 700h-156v-700h506v143h-350v557zM323 907v-5l-114 -129h-123v7l72 127h165z" />
    <glyph glyph-name="lacute" unicode="&#x13a;" horiz-adv-x="269" 
d="M206 699h-143v-699h143v699zM300 891v-5l-110 -126h-121v6l71 125h160z" />
    <glyph glyph-name="Lcommaaccent" unicode="&#x13b;" horiz-adv-x="600" 
d="M78 700h156v-557h350v-143h-506v700zM419 -124q0 -23 -6 -47.5t-20.5 -64t-18.5 -53.5h-77l15 104q-25 4 -39.5 19t-14.5 40q0 48 40 67.5t80.5 0t40.5 -65.5z" />
    <glyph glyph-name="lcommaaccent" unicode="&#x13c;" horiz-adv-x="269" 
d="M63 699h143v-699h-143v699zM216 -129q0 -23 -6 -47.5t-20.5 -64t-18.5 -53.5h-77l15 104q-25 4 -39.5 19t-14.5 40q0 29 16.5 49t40.5 24t47.5 -0.5t40 -23.5t16.5 -47z" />
    <glyph glyph-name="Lcaron" unicode="&#x13d;" horiz-adv-x="602" 
d="M78 700h156v-557h350v-143h-506v700zM373 478l45 219h134l-77 -219h-102z" />
    <glyph glyph-name="lcaron" unicode="&#x13e;" horiz-adv-x="334" 
d="M63 699h143v-699h-143v699zM238 479l45 221h134l-77 -221h-102z" />
    <glyph glyph-name="Ldot" unicode="&#x13f;" horiz-adv-x="600" 
d="M78 700h156v-557h350v-143h-506v700zM333 373q0 41 27 64t60 23t60 -23t27 -64q0 -40 -27 -63t-60 -23t-60 23t-27 63z" />
    <glyph glyph-name="ldot" unicode="&#x140;" horiz-adv-x="425" 
d="M63 699h143v-699h-143v699zM261 327q0 41 27 64t60 23t60 -23t27 -64q0 -40 -27 -63t-60 -23t-60 23t-27 63z" />
    <glyph glyph-name="Lslash" unicode="&#x141;" horiz-adv-x="612" 
d="M246 426l103 53v-117l-103 -51v-168h350v-143h-505v234l-80 -41v114l80 41v352h155v-274z" />
    <glyph glyph-name="lslash" unicode="&#x142;" horiz-adv-x="303" 
d="M288 453v-102l-68 -36v-315h-143v244l-61 -32v104l61 32v351h143v-281z" />
    <glyph glyph-name="Nacute" unicode="&#x143;" horiz-adv-x="790" 
d="M565 245l-353 455h-134v-700h158v218l-6 230l348 -448h134v700h-157v-235zM567 909v-6l-122 -137h-133v7l78 136h177z" />
    <glyph glyph-name="nacute" unicode="&#x144;" 
d="M417 0h145v262q0 244 -206 244q-101 2 -160 -75l-5 63h-130v-494h142v255q0 50 31.5 86t80.5 35q102 0 102 -115v-261zM474 710v-6l-109 -133h-119v6l70 133h158z" />
    <glyph glyph-name="Ncommaaccent" unicode="&#x145;" horiz-adv-x="790" 
d="M212 700l353 -455l-10 220v235h157v-700h-134l-348 448l6 -230v-218h-158v700h134zM495 -112q0 -23 -6 -47.5t-20.5 -64t-18.5 -53.5h-77l15 104q-25 4 -39.5 19t-14.5 40q0 48 40 67.5t80.5 0t40.5 -65.5z" />
    <glyph glyph-name="ncommaaccent" unicode="&#x146;" 
d="M562 0h-145v261q0 115 -102 115q-49 1 -80.5 -35t-31.5 -86v-255h-142v494h130l5 -63q59 77 160 75q206 0 206 -244v-262zM390 -118q0 -23 -6 -47.5t-20.5 -64t-18.5 -53.5h-77l15 104q-25 4 -39.5 19t-14.5 40q0 29 16.5 49t40.5 24.5t47.5 -0.5t40 -24t16.5 -47z" />
    <glyph glyph-name="Ncaron" unicode="&#x147;" horiz-adv-x="790" 
d="M565 245l-353 455h-134v-700h158v218l-6 230l348 -448h134v700h-157v-235zM213 901v5h141l45 -37l47 37h136v-5l-150 -130h-73z" />
    <glyph glyph-name="ncaron" unicode="&#x148;" 
d="M417 0h145v262q0 244 -206 244q-101 2 -160 -75l-5 63h-130v-494h142v255q0 50 31.5 86t80.5 35q102 0 102 -115v-261zM145 699v6h136l43 -38l46 38h131v-6l-145 -131h-70z" />
    <glyph glyph-name="napostrophe" unicode="&#x149;" 
d="M562 0h-145v261q0 115 -102 115q-49 1 -80.5 -35t-31.5 -86v-255h-142v494h130l5 -63q59 77 160 75q206 0 206 -244v-262z" />
    <glyph glyph-name="Eng" unicode="&#x14a;" horiz-adv-x="786" 
d="M210 700l343 -437v437h155v-719q0 -74 -24 -124.5t-64.5 -70t-93 -13.5t-108.5 40l53 111q50 -21 71.5 -7.5t21.5 64.5v35l-330 416v-432h-156v700h132z" />
    <glyph glyph-name="eng" unicode="&#x14b;" horiz-adv-x="614" 
d="M417 -29v279q0 51 -26.5 85.5t-75.5 34.5q-49 1 -80.5 -36t-31.5 -89v-245h-142v494h127l10 -61q43 35 79 51.5t79 15.5q87 0 146 -66.5t59 -182.5v-280q0 -102 -44 -149t-120 -47q-64 0 -124 35l45 101q26 -13 52 -13q47 0 47 73z" />
    <glyph glyph-name="Omacron" unicode="&#x14c;" horiz-adv-x="832" 
d="M794 350q0 -169 -104 -268t-274 -99t-274 99t-104 268t104 268t274 99t274 -99t104 -268zM641 350q0 98 -62.5 162.5t-162.5 64.5q-99 0 -162 -65t-63 -162q0 -99 63 -162.5t162 -63.5q101 0 163 63.5t62 162.5zM242 786v119h359v-119h-359z" />
    <glyph glyph-name="omacron" unicode="&#x14d;" horiz-adv-x="605" 
d="M302 -11q-123 0 -196.5 71.5t-73.5 185.5q0 113 74.5 186t195.5 73q122 0 196.5 -73t74.5 -186q0 -114 -73.5 -185.5t-197.5 -71.5zM302 117q62 0 93.5 37.5t31.5 91.5q0 52 -32 91t-93 39q-60 0 -92 -39t-32 -91t31.5 -90.5t92.5 -38.5zM151 578v121h313v-121h-313z" />
    <glyph glyph-name="Obreve" unicode="&#x14e;" horiz-adv-x="832" 
d="M794 350q0 -169 -104 -268t-274 -99t-274 99t-104 268t104 268t274 99t274 -99t104 -268zM641 350q0 98 -62.5 162.5t-162.5 64.5q-99 0 -162 -65t-63 -162q0 -99 63 -162.5t162 -63.5q101 0 163 63.5t62 162.5zM469 911h122q3 -65 -45.5 -105.5t-121.5 -40.5t-126 38.5
t-45 107.5h124q0 -23 15.5 -32.5t31.5 -9.5q45 0 45 42z" />
    <glyph glyph-name="obreve" unicode="&#x14f;" horiz-adv-x="605" 
d="M302 -11q-123 0 -196.5 71.5t-73.5 185.5q0 113 74.5 186t195.5 73q122 0 196.5 -73t74.5 -186q0 -114 -73.5 -185.5t-197.5 -71.5zM302 117q62 0 93.5 37.5t31.5 91.5q0 52 -32 91t-93 39q-60 0 -92 -39t-32 -91t31.5 -90.5t92.5 -38.5zM353 706h114q3 -64 -42.5 -103
t-113.5 -39t-117.5 37.5t-41.5 104.5h115q0 -40 44 -40q42 0 42 40z" />
    <glyph glyph-name="Ohungarumlaut" unicode="&#x150;" horiz-adv-x="832" 
d="M794 350q0 169 -104 268t-274 99t-274 -99t-104 -268t104 -268t274 -99t274 99t104 268zM641 350q0 -99 -62 -162.5t-163 -63.5q-99 0 -162 63.5t-63 162.5q0 97 63 162t162 65q100 0 162.5 -64.5t62.5 -162.5zM544 913h149v-5l-120 -131h-130zM346 914h149v-5l-106 -131
h-136z" />
    <glyph glyph-name="ohungarumlaut" unicode="&#x151;" horiz-adv-x="605" 
d="M302 -11q124 0 197.5 71.5t73.5 185.5q0 113 -74.5 186t-196.5 73q-121 0 -195.5 -73t-74.5 -186q0 -114 73.5 -185.5t196.5 -71.5zM302 117q-61 0 -92.5 38.5t-31.5 90.5t32 91t92 39q61 0 93 -39t32 -91q0 -54 -31.5 -91.5t-93.5 -37.5zM417 692h140v-4l-113 -119h-122
zM231 693h140v-4l-99 -120h-128z" />
    <glyph glyph-name="OE" unicode="&#x152;" horiz-adv-x="1038" 
d="M990 142v-140h-463q-62 -19 -129 -19q-177 0 -268 101t-91 269q0 165 92.5 264.5t266.5 99.5q37 0 128 -16h456v-139h-315v-137h296v-135h-296v-148h323zM195 352q0 -99 54.5 -169.5t160.5 -70.5q68 0 117 27v423q-61 27 -122 27q-98 0 -153.5 -64t-56.5 -173z" />
    <glyph glyph-name="oe" unicode="&#x153;" horiz-adv-x="956" 
d="M302 -11q-123 0 -196.5 71.5t-73.5 185.5q0 113 74.5 186.5t195.5 73.5q60 0 109 -24t79 -67q30 43 78 67.5t107 24.5q131 0 200.5 -80.5t46.5 -227.5h-366q5 -38 41.5 -62.5t95.5 -24.5q83 0 128 39l81 -90q-38 -37 -95 -55.5t-117 -18.5q-129 0 -198 94
q-30 -43 -79.5 -67.5t-110.5 -24.5zM302 118q62 0 95 38.5t33 89.5t-33.5 90.5t-94.5 39.5q-60 0 -92 -39t-32 -91q0 -50 32 -89t92 -39zM556 304h240q-2 39 -36 59.5t-82 20.5q-44 0 -78 -22t-44 -58z" />
    <glyph glyph-name="Racute" unicode="&#x154;" horiz-adv-x="725" 
d="M699 0v12l-192 232q93 33 127 87.5t35 132.5q0 98 -69 167t-190 69h-332v-700h156v230h113l179 -230h173zM234 566h176q50 0 77 -32.5t28 -73.5q0 -38 -26.5 -68t-76.5 -30h-178v204zM497 913v-6l-111 -135h-121v6l71 135h161z" />
    <glyph glyph-name="racute" unicode="&#x155;" horiz-adv-x="454" 
d="M195 493h-134v-493h144v257q0 53 33 83.5t82 30.5q44 0 79 -25l60 114q-51 45 -121 45q-85 0 -132 -66zM377 704v-5l-103 -125h-112v6l66 124h149z" />
    <glyph glyph-name="Rcommaaccent" unicode="&#x156;" horiz-adv-x="725" 
d="M699 12v-12h-173l-179 230h-113v-230h-156v700h332q121 0 190 -69t69 -167q-1 -78 -35 -132.5t-127 -87.5zM410 566h-176v-204h178q50 0 76.5 30t26.5 68q-1 41 -28 73.5t-77 32.5zM460 -120q0 -23 -6 -47.5t-20.5 -64t-18.5 -53.5h-77l15 104q-25 4 -39.5 19t-14.5 40
q0 29 16.5 49t40.5 24.5t47.5 -0.5t40 -24t16.5 -47z" />
    <glyph glyph-name="rcommaaccent" unicode="&#x157;" horiz-adv-x="454" 
d="M61 493h134l11 -54q47 66 132 66q70 0 121 -45l-60 -114q-35 25 -79 25q-49 0 -82 -30.5t-33 -83.5v-257h-144v493zM210 -124q0 -22 -6 -46t-19.5 -62.5t-17.5 -51.5h-75l15 101q-53 9 -53 57q0 28 16 47.5t39 23.5t46 -0.5t39 -23t16 -45.5z" />
    <glyph glyph-name="Rcaron" unicode="&#x158;" horiz-adv-x="725" 
d="M699 0v12l-192 232q93 33 127 87.5t35 132.5q0 98 -69 167t-190 69h-332v-700h156v230h113l179 -230h173zM234 566h176q50 0 77 -32.5t28 -73.5q0 -38 -26.5 -68t-76.5 -30h-178v204zM168 900v6h138l43 -38l47 38h133v-6l-147 -133h-72z" />
    <glyph glyph-name="rcaron" unicode="&#x159;" horiz-adv-x="454" 
d="M195 493h-134v-493h144v257q0 53 33 83.5t82 30.5q44 0 79 -25l60 114q-51 45 -121 45q-85 0 -132 -66zM80 698v5h130l42 -36l44 36h127v-5l-140 -126h-68z" />
    <glyph glyph-name="Sacute" unicode="&#x15a;" horiz-adv-x="654" 
d="M492 531l98 86q-52 60 -113.5 84t-147.5 24q-115 0 -195.5 -56.5t-81.5 -156.5q-1 -59 20.5 -100.5t63.5 -64.5t86.5 -34t107.5 -17q73 -6 107.5 -28.5t33.5 -65.5q0 -37 -39 -60t-101 -23q-58 0 -117 25t-97 74l-93 -97q42 -71 126 -108t180 -36q79 1 144 23.5t108 75
t43 126.5q0 204 -269 227q-78 7 -114.5 23.5t-36.5 60.5q0 35 36 56t89 21q45 0 89.5 -15t72.5 -44zM497 926v-6l-115 -139h-125v6l73 139h167z" />
    <glyph glyph-name="sacute" unicode="&#x15b;" horiz-adv-x="497" 
d="M443 444l-71 -90q-51 36 -117 36q-34 0 -52.5 -11t-18.5 -30q0 -41 73 -43q33 -1 59.5 -4.5t57 -14t50.5 -26.5t34 -45.5t14 -68.5q1 -68 -53 -117t-163 -49q-131 0 -232 84l62 102q73 -60 172 -62q32 -1 53.5 11t20.5 31q0 41 -84 44q-37 2 -71.5 10.5t-66 26t-50.5 49
t-19 72.5q0 79 62 119t151 40q115 0 189 -64zM403 707v-6l-107 -129h-116v6l68 129h155z" />
    <glyph glyph-name="Scircumflex" unicode="&#x15c;" horiz-adv-x="654" 
d="M492 531l98 86q-52 60 -113.5 84t-147.5 24q-115 0 -195.5 -56.5t-81.5 -156.5q-1 -59 20.5 -100.5t63.5 -64.5t86.5 -34t107.5 -17q73 -6 107.5 -28.5t33.5 -65.5q0 -37 -39 -60t-101 -23q-58 0 -117 25t-97 74l-93 -97q42 -71 126 -108t180 -36q79 1 144 23.5t108 75
t43 126.5q0 204 -269 227q-78 7 -114.5 23.5t-36.5 60.5q0 35 36 56t89 21q45 0 89.5 -15t72.5 -44zM305 929h75l149 -140v-5h-140l-47 42l-46 -42h-141v5z" />
    <glyph glyph-name="scircumflex" unicode="&#x15d;" horiz-adv-x="497" 
d="M443 444l-71 -90q-51 36 -117 36q-34 0 -52.5 -11t-18.5 -30q0 -41 73 -43q33 -1 59.5 -4.5t57 -14t50.5 -26.5t34 -45.5t14 -68.5q1 -68 -53 -117t-163 -49q-131 0 -232 84l62 102q73 -60 172 -62q32 -1 53.5 11t20.5 31q0 41 -84 44q-37 2 -71.5 10.5t-66 26t-50.5 49
t-19 72.5q0 79 62 119t151 40q115 0 189 -64zM216 712h68l135 -136v-5h-127l-42 41l-42 -41h-127v5z" />
    <glyph glyph-name="Scedilla" unicode="&#x15e;" horiz-adv-x="662" 
d="M190 -196l63 49q12 -14 32 -23q25 -10 52 -5.5t33 23.5q8 27 -27.5 37.5t-57.5 -10.5l-37 27l32 83q-182 15 -258 168l128 67q27 -56 73 -79.5t114 -23.5q64 0 103 24.5t39 69.5q0 76 -141 89q-61 5 -107 17t-87.5 36t-63.5 66.5t-22 101.5q4 99 86 154.5t193 55.5
q83 0 152.5 -28t103.5 -81l-106 -83q-44 59 -148 57q-55 -1 -91.5 -23t-36.5 -58q0 -67 138 -78q62 -7 108.5 -19.5t88.5 -37t64.5 -67t22.5 -102.5q1 -98 -67 -156t-179 -70l-14 -38q66 -3 92 -37.5t18 -76.5q-11 -61 -85 -88q-53 -19 -115 -3t-93 62z" />
    <glyph glyph-name="scedilla" unicode="&#x15f;" horiz-adv-x="497" 
d="M115 -190l58 45q19 -23 59.5 -27.5t54.5 24.5q6 17 -10 30t-36.5 13t-34.5 -12l-34 26l29 74q-100 9 -177 82l59 98q69 -63 175 -63q32 0 53 14t20 32q0 41 -83 45q-37 1 -71.5 10t-66.5 26.5t-50.5 49.5t-18.5 73q0 56 36 93.5t81 51t94 13.5q63 0 107.5 -13.5
t87.5 -50.5l-72 -85q-36 33 -116 33q-33 0 -54.5 -9.5t-21.5 -27.5q0 -20 20.5 -30.5t52.5 -13t69 -10.5t69 -21t54 -46.5t22 -84.5q1 -62 -43 -110t-134 -56l-11 -32q54 -1 85.5 -31t19.5 -80q-9 -47 -53.5 -72t-97.5 -23q-79 3 -121 65z" />
    <glyph glyph-name="Scaron" unicode="&#x160;" horiz-adv-x="654" 
d="M492 531l98 86q-52 60 -113.5 84t-147.5 24q-115 0 -195.5 -56.5t-81.5 -156.5q-1 -59 20.5 -100.5t63.5 -64.5t86.5 -34t107.5 -17q73 -6 107.5 -28.5t33.5 -65.5q0 -37 -39 -60t-101 -23q-58 0 -117 25t-97 74l-93 -97q42 -71 126 -108t180 -36q79 1 144 23.5t108 75
t43 126.5q0 204 -269 227q-78 7 -114.5 23.5t-36.5 60.5q0 35 36 56t89 21q45 0 89.5 -15t72.5 -44zM145 908v5h147l46 -38l50 38h141v-5l-156 -134h-76z" />
    <glyph glyph-name="scaron" unicode="&#x161;" horiz-adv-x="497" 
d="M443 444l-71 -90q-51 36 -117 36q-34 0 -52.5 -11t-18.5 -30q0 -41 73 -43q33 -1 59.5 -4.5t57 -14t50.5 -26.5t34 -45.5t14 -68.5q1 -68 -53 -117t-163 -49q-131 0 -232 84l62 102q73 -60 172 -62q32 -1 53.5 11t20.5 31q0 41 -84 44q-37 2 -71.5 10.5t-66 26t-50.5 49
t-19 72.5q0 79 62 119t151 40q115 0 189 -64zM73 698v5h135l43 -38l46 38h130v-5l-144 -134h-70z" />
    <glyph glyph-name="Tcommaaccent" unicode="&#x162;" horiz-adv-x="617" 
d="M231 0v559h-213v141h581v-141h-213v-559h-52l-16 -49q57 -7 89 -36.5t28 -69.5q-6 -62 -62 -94.5t-125 -19.5t-108 68l63 55q33 -36 77 -34q43 3 48 30q4 24 -26.5 40.5t-80.5 3.5l-23 16z" />
    <glyph glyph-name="tcommaaccent" unicode="&#x163;" horiz-adv-x="421" 
d="M114 613l144 16v-138h127v-124h-128v-199q0 -23 17.5 -33.5t38.5 -10.5q28 0 54 13l39 -123q-53 -20 -107 -20l-13 -35q64 -4 89.5 -39t17.5 -74q-12 -61 -70 -86.5t-121 -10.5t-92 58l55 56q28 -27 72 -28.5t50 24.5q6 28 -30.5 42.5t-68.5 1.5l-20 11l36 97
q-90 48 -90 157v199h-88v124h88v122z" />
    <glyph glyph-name="Tcaron" unicode="&#x164;" horiz-adv-x="615" 
d="M230 561v-561h155v561h213v139h-581v-139h213zM115 900v6h145l46 -40l49 40h140v-6l-155 -140h-75z" />
    <glyph glyph-name="tcaron" unicode="&#x165;" horiz-adv-x="496" 
d="M108 613l144 16v-138h95v-120h-96v-186q0 -35 18 -50.5t43 -15.5q36 0 60 12l33 -120q-49 -19 -104 -22q-88 -4 -140.5 41.5t-52.5 154.5v186h-83v120h83v122zM378 418l44 216h131l-75 -216h-100z" />
    <glyph glyph-name="Tbar" unicode="&#x166;" horiz-adv-x="624" 
d="M123 284v117h111v158h-213v141h581v-141h-213v-158h124v-117h-124v-284h-155v284h-111z" />
    <glyph glyph-name="tbar" unicode="&#x167;" horiz-adv-x="420" 
d="M45 204v91h69v78h-88v118h88v122l144 16v-138h127v-118h-128v-78h96v-91h-96v-37q0 -29 16.5 -44t39.5 -15q33 0 55 11l38 -112q-43 -17 -104 -20q-85 -4 -136.5 41t-51.5 139v37h-69z" />
    <glyph glyph-name="Utilde" unicode="&#x168;" horiz-adv-x="774" 
d="M551 699h155v-391q0 -153 -79.5 -236.5t-220.5 -88.5q-146 -5 -242 79t-96 246v391h155v-391q0 -93 49 -141t135 -44q144 10 144 185v391zM286 770l-90 53q57 121 154 96q13 -3 31 -11.5l30.5 -14t26.5 -7.5t25 6t18 28l95 -47q-57 -129 -148 -95q-14 4 -35 14t-33 14
t-27 5t-26.5 -9t-20.5 -32z" />
    <glyph glyph-name="utilde" unicode="&#x169;" 
d="M54 494h145v-261q0 -115 102 -115q49 -1 80.5 35t31.5 86v255h142v-494h-130l-5 65q-57 -77 -160 -75q-206 0 -206 242v262zM209 569l-83 51q53 117 142 93q11 -3 27.5 -11l28.5 -13.5t24.5 -7.5t22.5 6t17 27l86 -45q-51 -125 -135 -93q-13 4 -32 13.5t-30.5 13.5t-25 5
t-24 -8.5t-18.5 -30.5z" />
    <glyph glyph-name="Umacron" unicode="&#x16a;" horiz-adv-x="774" 
d="M551 699h155v-391q0 -153 -79.5 -236.5t-220.5 -88.5q-146 -5 -242 79t-96 246v391h155v-391q0 -93 49 -141t135 -44q144 10 144 185v391zM219 771v125h342v-125h-342z" />
    <glyph glyph-name="umacron" unicode="&#x16b;" 
d="M54 494h145v-261q0 -115 102 -115q49 -1 80.5 35t31.5 86v255h142v-494h-130l-5 65q-57 -77 -160 -75q-206 0 -206 242v262zM145 592v118h319v-118h-319z" />
    <glyph glyph-name="Ubreve" unicode="&#x16c;" horiz-adv-x="774" 
d="M551 699h155v-391q0 -153 -79.5 -236.5t-220.5 -88.5q-146 -5 -242 79t-96 246v391h155v-391q0 -93 49 -141t135 -44q144 10 144 185v391zM436 905h120q3 -65 -44.5 -105.5t-119.5 -40.5t-123.5 38.5t-43.5 107.5h120q0 -23 15.5 -32.5t31.5 -9.5q44 0 44 42z" />
    <glyph glyph-name="ubreve" unicode="&#x16d;" 
d="M54 494h145v-261q0 -115 102 -115q49 -1 80.5 35t31.5 86v255h142v-494h-130l-5 65q-57 -77 -160 -75q-206 0 -206 242v262zM357 707h115q3 -63 -42.5 -102t-114.5 -39t-119 37t-42 104h116q0 -22 14.5 -31t30.5 -9q42 0 42 40z" />
    <glyph glyph-name="Uring" unicode="&#x16e;" horiz-adv-x="774" 
d="M551 699h155v-391q0 -153 -79.5 -236.5t-220.5 -88.5q-146 -5 -242 79t-96 246v391h155v-391q0 -93 49 -141t135 -44q144 10 144 185v391zM257 868q0 59 40.5 87.5t96.5 28.5q54 0 92 -28.5t38 -87.5q0 -53 -39.5 -83t-90.5 -30q-55 0 -96 27.5t-41 85.5zM391 916
q-33 0 -47 -23t0 -46.5t47 -23.5q34 0 47.5 23.5t-0.5 46.5t-47 23z" />
    <glyph glyph-name="uring" unicode="&#x16f;" 
d="M54 494h145v-261q0 -115 102 -115q49 -1 80.5 35t31.5 86v255h142v-494h-130l-5 65q-57 -77 -160 -75q-206 0 -206 242v262zM185 660q0 54 38 79.5t92 25.5q51 0 87 -26t36 -79q0 -48 -37.5 -75.5t-85.5 -27.5q-52 0 -91 25t-39 78zM312 704q-32 0 -45 -21t0 -42.5
t45 -21.5t45 21.5t-0.5 42.5t-44.5 21z" />
    <glyph glyph-name="Uhungarumlaut" unicode="&#x170;" horiz-adv-x="774" 
d="M706 699h-155v-391q0 -175 -144 -185q-86 -4 -135 44t-49 141v391h-155v-391q0 -162 96 -246t242 -79q141 5 220.5 88.5t79.5 236.5v391zM502 907h147v-5l-118 -141h-127zM309 908h146v-5l-104 -141h-133z" />
    <glyph glyph-name="uhungarumlaut" unicode="&#x171;" 
d="M199 494h-145v-262q0 -242 206 -242q103 -2 160 75l5 -65h130v494h-142v-255q0 -50 -31.5 -86t-80.5 -35q-102 0 -102 115v261zM412 701h141v-4l-113 -127h-123zM226 702h141v-5l-100 -126h-128z" />
    <glyph glyph-name="Uogonek" unicode="&#x172;" horiz-adv-x="776" 
d="M551 699h155v-413q0 -101 -47 -173t-124 -104h1q-49 -17 -46 -50q3 -25 30 -33q32 -10 62 22l82 -70q-35 -57 -103.5 -73t-123.5 16q-42 23 -57 72t6 93q-147 3 -232.5 85.5t-85.5 236.5v391h155v-391q0 -175 160 -184q83 -4 125.5 45.5t42.5 138.5v391z" />
    <glyph glyph-name="uogonek" unicode="&#x173;" horiz-adv-x="615" 
d="M554 492v-561q-29 7 -68 -12.5t-28 -53.5q9 -27 42.5 -30t74.5 32l45 -61q-31 -42 -87 -58t-109 2.5t-75 67.5q-22 44 -0.5 95.5t77.5 71.5l-10 74q-44 -36 -79.5 -51.5t-84.5 -15.5q-82 0 -140 62.5t-58 169.5v268h144v-267q0 -41 29.5 -72t71.5 -31q49 0 80.5 36.5
t31.5 88.5v245h143z" />
    <glyph glyph-name="Wcircumflex" unicode="&#x174;" horiz-adv-x="1073" 
d="M814 1l254 699h-175l-83 -240l-60 -225l-164 465h-102l-157 -465l-63 226l-87 239h-175l261 -699h128l145 391l150 -391h128zM495 932h82l162 -152v-5h-152l-52 45l-50 -45h-153v5z" />
    <glyph glyph-name="wcircumflex" unicode="&#x175;" horiz-adv-x="845" 
d="M479 494h-113l-95 -315l-32 112l-69 203h-161l182 -497h144l87 247l88 -247h143l183 497h-161l-69 -203l-32 -112zM388 718h76l152 -139v-5h-143l-47 42l-47 -42h-143v5z" />
    <glyph glyph-name="Ycircumflex" unicode="&#x176;" horiz-adv-x="704" 
d="M352 422l-168 278h-180v-8l268 -414v-278h156v278l280 414v8h-179zM315 920h78l154 -138v-5h-145l-48 42l-48 -42h-146v5z" />
    <glyph glyph-name="ycircumflex" unicode="&#x177;" horiz-adv-x="573" 
d="M568 494h-159l-121 -311l-123 311h-162l207 -479l-102 -237h157zM247 723h83l166 -146v-5h-156l-52 43l-51 -43h-157v5z" />
    <glyph glyph-name="Ydieresis" unicode="&#x178;" horiz-adv-x="704" 
d="M352 422l-168 278h-180v-8l268 -414v-278h156v278l280 414v8h-179zM150 837q0 47 38 66.5t76 0t38 -66.5t-38 -66t-76 0t-38 66zM398 837q0 47 38 66.5t75.5 0t37.5 -66.5q0 -35 -23.5 -55t-52 -20t-52 20t-23.5 55z" />
    <glyph glyph-name="Zacute" unicode="&#x179;" horiz-adv-x="628" 
d="M48 700v-134h325l-342 -485v-81h560v146h-344l336 486v68h-535zM472 914v-6l-116 -141h-126v7l74 140h168z" />
    <glyph glyph-name="zacute" unicode="&#x17a;" horiz-adv-x="479" 
d="M434 494h-388v-125h198l-217 -308v-61h417v133h-217l207 291v70zM407 698v-5l-108 -123h-117v6l69 122h156z" />
    <glyph glyph-name="Zdotaccent" unicode="&#x17b;" horiz-adv-x="628" 
d="M48 700v-134h325l-342 -485v-81h560v146h-344l336 486v68h-535zM231 847q0 37 28.5 58t63.5 21t63.5 -21t28.5 -58q0 -36 -28.5 -57t-63.5 -21t-63.5 21t-28.5 57z" />
    <glyph glyph-name="zdotaccent" unicode="&#x17c;" horiz-adv-x="479" 
d="M434 494h-388v-125h198l-217 -308v-61h417v133h-217l207 291v70zM174 649q0 44 42.5 62.5t85 0t42.5 -62.5q0 -33 -26.5 -51.5t-58.5 -18.5t-58.5 18.5t-26.5 51.5z" />
    <glyph glyph-name="Zcaron" unicode="&#x17d;" horiz-adv-x="628" 
d="M48 700v-134h325l-342 -485v-81h560v146h-344l336 486v68h-535zM135 901v6h145l46 -40l49 40h140v-6l-155 -140h-75z" />
    <glyph glyph-name="zcaron" unicode="&#x17e;" horiz-adv-x="479" 
d="M434 494h-388v-125h198l-217 -308v-61h417v133h-217l207 291v70zM72 691v6h137l43 -36l46 36h131v-6l-145 -126h-71z" />
    <glyph glyph-name="longs" unicode="&#x17f;" horiz-adv-x="337" 
d="M256 0h-144v359h-89v126h89v29q0 100 59.5 150.5t140.5 50.5q75 0 129 -34l-51 -108q-27 19 -67 19q-29 0 -48 -20t-19 -58v-514z" />
    <glyph glyph-name="florin" unicode="&#x192;" horiz-adv-x="498" 
d="M431 364h-137v-369q0 -70 -30 -118t-76 -65.5t-101.5 -11.5t-106.5 38l49 101q53 -30 87 -15t34 71v369h-101v121h101v29q0 99 59.5 149t140.5 50q70 0 137 -42l-49 -101q-33 20 -71 20q-34 0 -53.5 -19t-19.5 -57v-29h137v-121z" />
    <glyph glyph-name="Aringacute" unicode="&#x1fa;" horiz-adv-x="790" 
d="M395 542l120 -284h-241zM394 781q35 0 50 -26.5t1 -53t-51 -26.5q-35 0 -49.5 26.5t0 53t49.5 26.5zM252 733q0 -54 34 -85l-290 -648h168l51 120h359l51 -120h169l-292 651q34 32 34 82q0 62 -42.5 92t-96.5 30q-55 0 -100 -29.5t-45 -92.5zM573 980v-4l-121 -96h-131v5
l77 95h175z" />
    <glyph glyph-name="aringacute" unicode="&#x1fb;" horiz-adv-x="639" 
d="M438 437q-19 32 -58.5 50t-87.5 18q-112 2 -185.5 -68t-73.5 -190t71 -189.5t184 -68.5q42 1 85.5 19t66.5 54l8 -62h130v494h-135zM307 378q62 0 96.5 -39.5t34.5 -96.5q0 -49 -36.5 -87t-94.5 -38q-56 0 -93 35t-37 95t37 95.5t93 35.5zM192 640q0 -53 38.5 -78
t90.5 -25q48 0 85 27.5t37 75.5q0 54 -35.5 79.5t-86.5 25.5q-53 0 -91 -26t-38 -79zM318 684q31 0 44.5 -21t0.5 -42.5t-45 -21.5q-31 0 -44 21.5t-0.5 42.5t44.5 21zM485 875v-5l-110 -96h-121v4l71 97h160z" />
    <glyph glyph-name="AEacute" unicode="&#x1fc;" horiz-adv-x="892" 
d="M849 0v138h-269v150h236v132h-236v144h253v136h-421l-439 -700h182l63 109h222v-109h409zM440 246h-142l148 254zM692 904v-5l-119 -133h-130v7l77 131h172z" />
    <glyph glyph-name="aeacute" unicode="&#x1fd;" horiz-adv-x="962" 
d="M564 205h366q27 135 -42.5 219t-178.5 84q-107 0 -162 -65v50h-108l-5 -56q-50 68 -150 68q-104 0 -177.5 -69t-73.5 -189q0 -130 68 -194.5t185 -63.5q43 1 88.5 19.5t60.5 53.5l1 -62h105l6 53q48 -69 154 -69q130 0 199 75l-77 92q-48 -41 -122 -41q-49 0 -87.5 25
t-49.5 70zM306 379q63 0 98.5 -41.5t35.5 -91t-35.5 -91t-98.5 -41.5q-56 0 -92.5 35.5t-36.5 97.5t36.5 97t92.5 35zM567 311q33 73 135 73q36 0 63 -18.5t32 -54.5h-230zM655 700v-6l-107 -129h-116v6l68 129h155z" />
    <glyph glyph-name="Oslashacute" unicode="&#x1fe;" horiz-adv-x="798" 
d="M585 932v-6l-116 -141h-126v7l74 140h168zM400 715q-88 0 -159 -32t-114 -85.5t-66 -119t-23 -135.5q0 -167 108 -271l-87 -142h149l47 77q63 -24 145 -24q90 0 161 31t113 83t64 115t23 133q1 82 -30.5 158t-92.5 129l82 135h-150l-44 -71q-66 19 -126 19zM400 125
q-34 0 -69 7l228 372q51 -65 49 -162q-1 -41 -12.5 -77.5t-34 -69t-64 -51.5t-97.5 -19zM400 574q18 0 50 -4l-225 -365q-30 56 -34 136q-1 41 10.5 80.5t35 74.5t66 56.5t97.5 21.5z" />
    <glyph glyph-name="oslashacute" unicode="&#x1ff;" horiz-adv-x="605" 
d="M467 709v-5l-104 -127h-113v6l66 126h151zM302 -11q124 0 197.5 71.5t73.5 185.5q0 126 -90 200l62 105h-126l-33 -56q-41 11 -84 11q-121 0 -195.5 -73.5t-74.5 -186.5q0 -129 90 -200l-59 -101h126l31 54q36 -10 82 -10zM302 376q9 0 14 -1l-119 -202q-19 32 -19 73
q0 52 32 91t92 39zM302 117h-12l118 201q19 -32 19 -72q0 -54 -31.5 -91.5t-93.5 -37.5z" />
    <glyph glyph-name="Scommaaccent" unicode="&#x218;" horiz-adv-x="654" 
d="M590 617l-98 -86q-28 29 -72.5 44t-89.5 15q-53 0 -89 -21t-36 -56q0 -44 36.5 -60.5t114.5 -23.5q269 -23 269 -227q0 -74 -43 -126.5t-108 -75t-144 -23.5q-96 -1 -180 36t-126 108l93 97q38 -49 97 -74t117 -25q62 0 101 23t39 60q1 43 -33.5 65.5t-107.5 28.5
q-63 6 -107.5 17t-86.5 34t-63.5 64.5t-20.5 100.5q1 100 81.5 156.5t195.5 56.5q86 0 147.5 -24t113.5 -84zM425 -136q0 -17 -5 -38t-11 -37t-17 -42.5t-16 -41.5h-83l16 100q-58 9 -58 57q0 28 18 47t43.5 23t51 0t43.5 -22.5t18 -45.5z" />
    <glyph glyph-name="scommaaccent" unicode="&#x219;" horiz-adv-x="497" 
d="M443 444l-71 -90q-51 36 -117 36q-34 0 -52.5 -11t-18.5 -30q0 -41 73 -43q33 -1 59.5 -4.5t57 -14t50.5 -26.5t34 -45.5t14 -68.5q1 -68 -53 -117t-163 -49q-131 0 -232 84l62 102q73 -60 172 -62q32 -1 53.5 11t20.5 31q0 41 -84 44q-37 2 -71.5 10.5t-66 26t-50.5 49
t-19 72.5q0 79 62 119t151 40q115 0 189 -64zM329 -130q0 -20 -5.5 -41.5t-19 -57l-17.5 -46.5h-73l15 92q-51 7 -51 52q0 42 37.5 59t75.5 0t38 -58z" />
    <glyph glyph-name="uni021A" unicode="&#x21a;" horiz-adv-x="615" 
d="M230 0v561h-213v139h581v-139h-213v-561h-155zM385 -122q0 -18 -4.5 -39.5t-10 -37.5l-15 -43.5l-14.5 -42.5h-76l15 103q-25 4 -39.5 19t-14.5 39q0 29 16.5 48.5t40 24t46.5 0t39.5 -24t16.5 -46.5z" />
    <glyph glyph-name="uni021B" unicode="&#x21b;" horiz-adv-x="419" 
d="M113 613l144 16v-138h125v-120h-126v-186q0 -66 56 -66q36 0 60 12l33 -120q-49 -19 -104 -22q-87 -4 -137.5 41.5t-50.5 154.5v186h-88v120h88v122zM325 -129q0 -18 -4.5 -39.5t-10 -37.5l-15 -43.5l-14.5 -42.5h-76l15 103q-25 4 -39.5 19t-14.5 39q0 48 40 67
t79.5 -0.5t39.5 -64.5z" />
    <glyph glyph-name="dotlessj" unicode="&#x237;" horiz-adv-x="265" 
d="M61 495h143v-540q0 -107 -43.5 -155.5t-129.5 -48.5q-64 0 -116 35l49 104q31 -13 55 -12q42 4 42 77v540z" />
    <glyph glyph-name="circumflex" unicode="&#x2c6;" horiz-adv-x="451" 
d="M183 719h75l149 -140v-5h-140l-47 42l-46 -42h-141v5z" />
    <glyph glyph-name="caron" unicode="&#x2c7;" horiz-adv-x="434" 
d="M25 694v6h145l46 -40l49 40h140v-6l-155 -140h-75z" />
    <glyph glyph-name="breve" unicode="&#x2d8;" horiz-adv-x="406" 
d="M243 699h115q3 -70 -42.5 -113t-114.5 -43t-119 41t-42 115h116q0 -24 14.5 -34t30.5 -10q42 0 42 44z" />
    <glyph glyph-name="dotaccent" unicode="&#x2d9;" horiz-adv-x="276" 
d="M59 632q0 50 41 70.5t82 0t41 -70.5q0 -37 -25.5 -58t-56.5 -21t-56.5 21t-25.5 58z" />
    <glyph glyph-name="ring" unicode="&#x2da;" horiz-adv-x="427" 
d="M67 585q0 66 43 97.5t103 31.5q58 0 98.5 -32t40.5 -97q0 -60 -42 -93t-97 -33q-59 0 -102.5 30.5t-43.5 95.5zM210 639q-36 0 -50.5 -26t0.5 -52t50 -26q37 0 51 26t-1 52t-50 26z" />
    <glyph glyph-name="ogonek" unicode="&#x2db;" horiz-adv-x="390" 
d="M252 -156l71 -60q-38 -57 -118 -60q-50 -2 -91.5 18.5t-59.5 67.5q-6 16 -6 38t9 48t32 44.5t63.5 28.5t102.5 -1l15 -58q-22 9 -71.5 -4t-39.5 -52q6 -26 41 -26t52 16z" />
    <glyph glyph-name="tilde" unicode="&#x2dc;" horiz-adv-x="418" 
d="M111 644l-85 50q54 114 145 90q13 -3 35.5 -13.5t36 -15.5t28.5 1t23 29l89 -44q-52 -121 -139 -90q-13 4 -32.5 13t-31 13t-25.5 5.5t-24.5 -8.5t-19.5 -30z" />
    <glyph glyph-name="hungarumlaut" unicode="&#x2dd;" horiz-adv-x="382" 
d="M310 701h148v-5l-119 -144h-129zM114 702h148v-5l-105 -144h-135z" />
    <glyph glyph-name="_375" unicode="&#x394;" horiz-adv-x="794" 
d="M777 31v-31h-768v36l298 664h170zM392 546l-178 -411h355z" />
    <glyph glyph-name="_376" unicode="&#x3a9;" horiz-adv-x="826" 
d="M413 574q-101 0 -156.5 -65t-57.5 -150q-2 -69 34.5 -130.5t101.5 -89.5v-139h-253v133h79q-113 80 -113 233q0 150 105.5 249.5t259.5 99.5t259.5 -99.5t105.5 -249.5t-112 -233h78v-133h-253v139q65 28 101.5 89.5t34.5 130.5q-1 84 -57 149.5t-157 65.5z" />
    <glyph glyph-name="pi" unicode="&#x3c0;" horiz-adv-x="671" 
d="M263 0h-143v367h-98v126h614v-126h-98v-209q0 -67 78 -47l14 -114q-234 -45 -235 159v211h-132v-367z" />
    <glyph glyph-name="Wgrave" unicode="&#x1e80;" horiz-adv-x="1073" 
d="M1068 700l-254 -699h-128l-150 391l-145 -391h-128l-261 699h175l87 -239l63 -226l157 465h102l164 -465l60 225l83 240h175zM347 903v6h182l80 -130v-6h-137z" />
    <glyph glyph-name="wgrave" unicode="&#x1e81;" horiz-adv-x="845" 
d="M366 494h113l95 -315l32 112l69 203h161l-183 -497h-143l-88 247l-87 -247h-144l-182 497h161l69 -203l32 -112zM258 693v6h165l72 -123v-6h-123z" />
    <glyph glyph-name="Wacute" unicode="&#x1e82;" horiz-adv-x="1073" 
d="M814 1l254 699h-175l-83 -240l-60 -225l-164 465h-102l-157 -465l-63 226l-87 239h-175l261 -699h128l145 391l150 -391h128zM721 910v-5l-124 -133h-134v7l79 131h179z" />
    <glyph glyph-name="wacute" unicode="&#x1e83;" horiz-adv-x="845" 
d="M479 494h-113l-95 -315l-32 112l-69 203h-161l182 -497h144l87 247l88 -247h143l183 497h-161l-69 -203l-32 -112zM584 701v-6l-116 -126h-125v6l74 126h167z" />
    <glyph glyph-name="Wdieresis" unicode="&#x1e84;" horiz-adv-x="1073" 
d="M814 1l254 699h-175l-83 -240l-60 -225l-164 465h-102l-157 -465l-63 226l-87 239h-175l261 -699h128l145 391l150 -391h128zM324 833q0 37 25 58t54.5 21t54.5 -21t25 -58t-25 -58t-54.5 -21t-54.5 21t-25 58zM584 833q0 37 25 58t54.5 21t54.5 -21t25 -58t-25 -58
t-54.5 -21t-54.5 21t-25 58z" />
    <glyph glyph-name="wdieresis" unicode="&#x1e85;" horiz-adv-x="845" 
d="M479 494h-113l-95 -315l-32 112l-69 203h-161l182 -497h144l87 247l88 -247h143l183 497h-161l-69 -203l-32 -112zM227 634q0 46 36.5 65t73.5 0t37 -65q0 -34 -23 -53.5t-50.5 -19.5t-50.5 19.5t-23 53.5zM468 634q0 46 37 65t74 0t37 -65q0 -34 -23 -53.5t-51 -19.5
t-51 19.5t-23 53.5z" />
    <glyph glyph-name="Ygrave" unicode="&#x1ef2;" horiz-adv-x="704" 
d="M184 700l168 -278l177 278h179v-8l-280 -414v-278h-156v278l-268 414v8h180zM184 905v5h183l81 -129v-6h-138z" />
    <glyph glyph-name="ygrave" unicode="&#x1ef3;" horiz-adv-x="573" 
d="M409 494h159l-303 -716h-157l102 237l-207 479h162l123 -311zM121 692v6h169l74 -132v-7h-127z" />
    <glyph glyph-name="endash" unicode="&#x2013;" horiz-adv-x="597" 
d="M58 223v125h481v-125h-481z" />
    <glyph glyph-name="emdash" unicode="&#x2014;" horiz-adv-x="690" 
d="M58 226v125h574v-125h-574z" />
    <glyph glyph-name="quoteleft" unicode="&#x2018;" horiz-adv-x="273" 
d="M235 701l-49 -244h-147l85 244h111z" />
    <glyph glyph-name="quoteright" unicode="&#x2019;" horiz-adv-x="267" 
d="M46 458l49 242h147l-84 -242h-112z" />
    <glyph glyph-name="quotesinglbase" unicode="&#x201a;" horiz-adv-x="280" 
d="M26 -135l49 242h146l-84 -242h-111z" />
    <glyph glyph-name="quotedblleft" unicode="&#x201c;" horiz-adv-x="446" 
d="M408 699l-49 -242h-135l72 242h112zM235 699l-59 -242h-136l83 242h112z" />
    <glyph glyph-name="quotedblright" unicode="&#x201d;" horiz-adv-x="441" 
d="M47 457l49 242h135l-72 -242h-112zM220 457l59 242h136l-83 -242h-112z" />
    <glyph glyph-name="quotedblbase" unicode="&#x201e;" horiz-adv-x="469" 
d="M26 -135l49 242h146l-84 -242h-111zM215 -135l49 242h146l-84 -242h-111z" />
    <glyph glyph-name="dagger" unicode="&#x2020;" horiz-adv-x="603" 
d="M381 699v-184h189v-129h-189v-497h-159v497h-189v129h189v184h159z" />
    <glyph glyph-name="daggerdbl" unicode="&#x2021;" horiz-adv-x="636" 
d="M395 699v-182h190v-129h-190v-204h190v-127h-190v-180h-154v180h-190v127h190v204h-190v129h190v182h154z" />
    <glyph glyph-name="bullet" unicode="&#x2022;" horiz-adv-x="419" 
d="M210 180q-60 0 -99.5 37.5t-39.5 97.5t39.5 98t99.5 38q59 0 98.5 -38t39.5 -98t-39.5 -97.5t-98.5 -37.5z" />
    <glyph glyph-name="ellipsis" unicode="&#x2026;" horiz-adv-x="739" 
d="M50 73q0 38 25.5 60t56.5 22t56.5 -22t25.5 -60t-25.5 -60t-56.5 -22t-56.5 22t-25.5 60zM287 73q0 38 25.5 60t56 22t56 -22t25.5 -60t-25.5 -60t-56 -22t-56 22t-25.5 60zM526 73q0 38 25.5 60t56 22t56 -22t25.5 -60t-25.5 -60t-56 -22t-56 22t-25.5 60z" />
    <glyph glyph-name="perthousand" unicode="&#x2030;" horiz-adv-x="1192" 
d="M203 704q79 0 122.5 -47.5t43.5 -112.5q0 -66 -43.5 -113.5t-122.5 -47.5t-122.5 47.5t-43.5 113.5q0 65 43.5 112.5t122.5 47.5zM561 699h157l-458 -700h-159zM618 314q79 0 122.5 -47.5t43.5 -112.5q0 -66 -43.5 -113.5t-122.5 -47.5t-122.5 47.5t-43.5 113.5
q0 65 43.5 112.5t122.5 47.5zM618 210q-26 0 -41 -17t-15 -40t15 -39.5t41 -16.5t40.5 16.5t14.5 39.5q0 24 -14.5 40.5t-40.5 16.5zM203 602q-27 0 -42 -17t-15 -41q0 -23 15 -40t42 -17t41.5 16.5t14.5 40.5t-14.5 41t-41.5 17zM994 314q79 0 122.5 -47.5t43.5 -112.5
q0 -66 -43.5 -113.5t-122.5 -47.5t-122.5 47.5t-43.5 113.5q0 65 43.5 112.5t122.5 47.5zM994 210q-26 0 -41 -17t-15 -40t15 -39.5t41 -16.5t40.5 16.5t14.5 39.5q0 24 -14.5 40.5t-40.5 16.5z" />
    <glyph glyph-name="guilsinglleft" unicode="&#x2039;" horiz-adv-x="356" 
d="M30 295l139 222h153v1l-139 -223q113 -185 139 -223h-153z" />
    <glyph glyph-name="guilsinglright" unicode="&#x203a;" horiz-adv-x="357" 
d="M188 522l139 -222l-139 -222h-153l138 222l-138 223v-1h153z" />
    <glyph glyph-name="fraction" unicode="&#x2044;" horiz-adv-x="171" 
d="M221 708h121l-392 -713h-121z" />
    <glyph glyph-name="zerosuperior" unicode="&#x2070;" horiz-adv-x="408" 
d="M133 678v-56q0 -33 22 -52t48.5 -18.5t48.5 19t22 51.5v56q0 45 -35 63.5t-70.5 0t-35.5 -63.5zM35 624v55q0 45 18.5 80t48.5 53t66 26.5t72 0t66 -26.5t48.5 -53t18.5 -80v-55q0 -53 -25 -91.5t-62.5 -56t-81.5 -17.5t-81.5 17.5t-62.5 56t-25 91.5z" />
    <glyph glyph-name="foursuperior" unicode="&#x2074;" horiz-adv-x="401" 
d="M190 837h130v-224h45v-85h-45v-61h-100v61h-193l-4 86zM220 613v127l-95 -127h95z" />
    <glyph glyph-name="fivesuperior" unicode="&#x2075;" horiz-adv-x="377" 
d="M324 832v-86h-184v-44h54q154 0 154 -123q0 -67 -44.5 -98.5t-104.5 -31.5q-70 0 -113.5 30.5t-44.5 93.5h101q2 -20 19 -30t35.5 -8.5t34 13.5t15.5 31q0 20 -15 30t-37 10h-148v213h278z" />
    <glyph glyph-name="sixsuperior" unicode="&#x2076;" horiz-adv-x="383" 
d="M249 584q0 19 -16 29t-39 10t-39.5 -10t-15.5 -29q0 -18 16 -28t38 -10q23 0 39.5 10t16.5 28zM342 730h-94q-3 22 -30 29t-53 -3t-26 -31v-40q26 16 62 18.5t69.5 -8t57 -40t23.5 -71.5q0 -60 -47 -92t-110 -32q-62 0 -108.5 33.5t-46.5 91.5v140q0 56 45.5 86.5
t108.5 30.5q65 0 106 -27.5t43 -84.5z" />
    <glyph glyph-name="sevensuperior" unicode="&#x2077;" horiz-adv-x="328" 
d="M163 463h-112l133 278h-156v92h283l4 -41z" />
    <glyph glyph-name="eightsuperior" unicode="&#x2078;" horiz-adv-x="393" 
d="M134 567q-1 -15 14.5 -28t49.5 -13q33 0 48 13t14 28q0 16 -17.5 27.5t-43.5 11.5q-28 0 -46.5 -10.5t-18.5 -28.5zM32 568q0 19 15 42t40 35q-19 9 -31.5 30t-12.5 40q0 57 42.5 87.5t109.5 30.5q66 0 110.5 -31t44.5 -86q0 -44 -45 -67q26 -12 40.5 -35.5t14.5 -46.5
q1 -65 -46.5 -95t-118.5 -28q-71 0 -118 30t-45 94zM198 679q25 0 38 10t13 25t-14.5 26t-37.5 11q-25 0 -39 -10.5t-14 -25.5t14 -25.5t40 -10.5z" />
    <glyph glyph-name="ninesuperior" unicode="&#x2079;" horiz-adv-x="385" 
d="M136 719q0 -19 16 -29t39 -10t39.5 10t15.5 29q0 18 -16 28t-38 10q-23 0 -39.5 -10t-16.5 -28zM38 573h96q3 -22 31 -29t54.5 3t26.5 31v40q-26 -16 -62 -18.5t-69.5 8t-57 40t-23.5 71.5q0 60 47 92t110 32q62 0 108.5 -33.5t46.5 -91.5v-140q0 -57 -45.5 -88
t-108.5 -31q-68 0 -110 27.5t-44 86.5z" />
    <glyph glyph-name="zeroinferior" unicode="&#x2080;" horiz-adv-x="410" 
d="M134 128v-56q0 -33 22 -51.5t48.5 -18.5t48.5 18.5t22 51.5v56q0 34 -22 53t-48.5 19.5t-48.5 -19t-22 -53.5zM36 75v54q0 45 18.5 80t48.5 53.5t66 27t72 0t66 -27t48.5 -53.5t18.5 -80v-54q0 -53 -25 -92t-62.5 -56.5t-81.5 -17.5t-81.5 17.5t-62.5 56.5t-25 92z" />
    <glyph glyph-name="oneinferior" unicode="&#x2081;" horiz-adv-x="285" 
d="M35 -83v83h62v176l-52 -11v84l152 40v-289h64v-83h-226z" />
    <glyph glyph-name="twoinferior" unicode="&#x2082;" horiz-adv-x="377" 
d="M136 180h-98q1 54 45 85.5t103 31.5q69 0 112 -31.5t43 -91.5q0 -50 -33 -78t-72 -35t-72 -19.5t-33 -34.5h207v-90h-302v96q0 40 21 65t51 35t59.5 16.5t50.5 16.5t21 28q0 22 -24 30.5t-49.5 1t-29.5 -25.5z" />
    <glyph glyph-name="threeinferior" unicode="&#x2083;" horiz-adv-x="384" 
d="M190 72h-58v75h54q56 0 56 35q0 33 -56 35q-22 1 -39.5 -7t-20.5 -23h-89q0 56 45.5 84.5t105.5 28.5t107 -31t47 -88q0 -51 -48 -72q25 -8 40.5 -31t15.5 -50q0 -64 -47.5 -90.5t-113.5 -26.5q-61 0 -109.5 30t-49.5 87h105q4 -28 53 -28q23 0 40 9.5t17 27.5
q0 35 -55 35z" />
    <glyph glyph-name="fourinferior" unicode="&#x2084;" horiz-adv-x="401" 
d="M190 286h130v-224h45v-85h-45v-61h-100v61h-193l-4 86zM220 62v127l-95 -127h95z" />
    <glyph glyph-name="fiveinferior" unicode="&#x2085;" horiz-adv-x="379" 
d="M325 291v-86h-184v-44h54q154 0 154 -123q0 -67 -44.5 -98.5t-104.5 -31.5q-70 0 -113.5 30.5t-44.5 93.5h101q2 -20 19 -30t35.5 -8.5t34 13.5t15.5 31q0 20 -15 30t-37 10h-148v213h278z" />
    <glyph glyph-name="sixinferior" unicode="&#x2086;" horiz-adv-x="386" 
d="M251 40q0 19 -16 29t-39 10t-39.5 -10t-15.5 -29q0 -18 16 -28t38 -10q23 0 39.5 10t16.5 28zM344 186h-94q-3 22 -30 29t-53 -3t-26 -31v-40q26 16 62 18.5t69.5 -8t57 -40t23.5 -71.5q0 -60 -47 -92t-110 -32q-62 0 -108.5 33.5t-46.5 91.5v140q0 56 45.5 86.5
t108.5 30.5q65 0 106 -27.5t43 -84.5z" />
    <glyph glyph-name="seveninferior" unicode="&#x2087;" horiz-adv-x="327" 
d="M162 -83h-112l133 278h-156v92h283l4 -41z" />
    <glyph glyph-name="eightinferior" unicode="&#x2088;" horiz-adv-x="394" 
d="M135 31q-1 -15 14.5 -28t49.5 -13q33 0 48 13t14 28q0 16 -17.5 27.5t-43.5 11.5q-28 0 -46.5 -10.5t-18.5 -28.5zM33 32q0 19 15 42t40 35q-19 9 -31.5 30t-12.5 40q0 57 42.5 87.5t109.5 30.5q66 0 110.5 -31t44.5 -86q0 -44 -45 -67q26 -12 40.5 -35.5t14.5 -46.5
q1 -65 -46.5 -95t-118.5 -28q-71 0 -118 30t-45 94zM199 143q25 0 38 10t13 25t-14.5 26t-37.5 11q-25 0 -39 -10.5t-14 -25.5t14.5 -25.5t39.5 -10.5z" />
    <glyph glyph-name="nineinferior" unicode="&#x2089;" horiz-adv-x="387" 
d="M136 170q0 -19 16 -29t39 -10t39.5 10t15.5 29q0 18 -16 28t-38 10q-23 0 -39.5 -10t-16.5 -28zM38 24h96q3 -22 31 -29t54.5 3t26.5 31v40q-26 -16 -62 -18.5t-69.5 8t-57 40t-23.5 71.5q0 60 47 92t110 32q62 0 108.5 -33.5t46.5 -91.5v-140q0 -57 -45.5 -88
t-108.5 -31q-68 0 -110 27.5t-44 86.5z" />
    <glyph glyph-name="Euro" unicode="&#x20ac;" horiz-adv-x="630" 
d="M45 211v109h59v25q0 20 1 31h-60v111h83q37 103 124.5 166t222.5 63q60 0 111 -17l-43 -131q-34 9 -68 9q-121 0 -182 -90h197l-24 -111h-212q-2 -22 -2 -34q0 -15 1 -22h195l-22 -109h-137q35 -49 89.5 -69.5t96.5 -20.5q38 0 76 13l44 -135q-54 -15 -120 -15
q-139 0 -228.5 59.5t-123.5 167.5h-78z" />
    <glyph glyph-name="afii61289" unicode="&#x2113;" horiz-adv-x="392" 
d="M199 242v-95q0 -44 37 -61.5t93 -4.5v-69q-101 -33 -166 2t-65 149l-49 -24l-14 46q34 14 62 30v333q0 91 34 129t122 38q135 0 110 -193q-17 -146 -164 -280zM196 548q0 -26 -0.5 -112.5t-0.5 -124.5q107 123 120 220l4 57t-14 52t-50 23q-28 0 -43.5 -34.5t-15.5 -80.5
z" />
    <glyph glyph-name="uni2117" unicode="&#x2117;" horiz-adv-x="811" 
d="M405 717q168 0 265 -105t97 -260t-97 -260t-265 -105q-167 0 -264 105t-97 260t97 260t264 105zM153 352q2 -117 69 -193t183 -76q117 0 184 76t67 193q0 116 -67 192.5t-184 76.5q-116 0 -183 -76t-69 -193zM379 267h66q39 0 70 14t47 37t23.5 50.5t0 54.5t-23 50
t-46.5 37t-70 14h-170v-356h103v99zM379 430h67q23 0 34 -19t2 -37.5t-35 -18.5h-68v75z" />
    <glyph glyph-name="trademark" unicode="&#x2122;" horiz-adv-x="826" 
d="M263 607v-204h-106v204h-94v92h295v-92h-95zM498 699l76 -92l75 92h105v-297h-105v90l6 71q-13 -19 -40 -54.5t-32 -42.5h-19l-71 97l5 -71v-90h-104v297h104z" />
    <glyph glyph-name="Omega" unicode="&#x2126;" horiz-adv-x="823" 
d="M412 574q-101 0 -156.5 -65t-57.5 -150q-2 -69 34.5 -130.5t101.5 -89.5v-139h-253v133h79q-113 80 -113 233q0 150 105.5 249.5t259.5 99.5t259.5 -99.5t105.5 -249.5t-112 -233h78v-133h-253v139q65 28 101.5 89.5t34.5 130.5q-1 84 -57 149.5t-157 65.5z" />
    <glyph glyph-name="estimated" unicode="&#x212e;" horiz-adv-x="624" 
d="M320 -7q-116 0 -192 78t-76 218q0 142 75.5 219.5t191.5 77.5q58 0 106.5 -17t87 -53t57 -100.5t11.5 -152.5h-402v-170q58 -53 141 -53q125 0 190 93l37 -29q-43 -61 -98 -86t-129 -25zM319 539q-87 0 -140 -46v-183h283v186q-55 43 -143 43z" />
    <glyph glyph-name="onethird" unicode="&#x2153;" horiz-adv-x="813" 
d="M44 327v80h62v179l-52 -11v84l152 40v-292h64v-80h-226zM616 153h-57v75h53q32 0 43 5.5t12 27.5q0 17 -15.5 27.5t-36.5 10.5q-49 0 -62 -31h-89q0 55 46 83.5t105 28.5q60 0 107 -30t47 -88q0 -23 -13 -45t-37 -27q28 -8 44 -29t16 -46q0 -62 -51.5 -92.5t-115.5 -30.5
q-60 0 -107 30t-48 87h101q8 -30 57 -30q22 0 39.5 10.5t17.5 26.5q0 15 -15 26t-41 11zM526 708h113l-395 -713h-110z" />
    <glyph glyph-name="twothirds" unicode="&#x2154;" horiz-adv-x="891" 
d="M604 708h112l-394 -713h-110zM144 593h-98q1 54 45 85.5t103 31.5q69 0 112 -31.5t43 -91.5q0 -50 -33 -78t-72 -35t-72 -19.5t-33 -34.5h207v-90h-302v96q0 40 21 65t51 35t59.5 16.5t50.5 16.5t21 28q0 22 -24 30.5t-49.5 1t-29.5 -25.5zM694 153h-57v75h53
q32 0 43 5.5t12 27.5q0 17 -15.5 27.5t-36.5 10.5q-49 0 -62 -31h-89q0 55 46 83.5t105 28.5q60 0 107 -30t47 -88q0 -23 -13 -45t-37 -27q28 -8 44 -29t16 -46q0 -62 -51.5 -92.5t-115.5 -30.5q-60 0 -107 30t-48 87h101q8 -30 57 -30q22 0 39.5 10.5t17.5 26.5
q0 15 -15 26t-41 11z" />
    <glyph glyph-name="oneeighth" unicode="&#x215b;" horiz-adv-x="819" 
d="M45 327v88h62v171l-52 -11v84l152 40v-284h64v-88h-226zM522 708h111l-395 -713h-108zM560 112q-1 -15 14.5 -28t49.5 -13q33 0 48 13t14 28q0 16 -17.5 27.5t-43.5 11.5q-28 0 -46.5 -10.5t-18.5 -28.5zM458 113q0 19 15 42t40 35q-19 9 -31.5 30t-12.5 40
q0 57 42.5 87.5t109.5 30.5q66 0 110.5 -31t44.5 -86q0 -45 -45 -67q26 -12 40.5 -35.5t14.5 -46.5q1 -65 -46.5 -95t-118.5 -28q-71 0 -118 30t-45 94zM624 224q25 0 38 10t13 25t-14.5 26t-37.5 11q-25 0 -39 -10.5t-14 -25.5t14 -25.5t40 -10.5z" />
    <glyph glyph-name="threeeighths" unicode="&#x215c;" horiz-adv-x="897" 
d="M592 708h112l-394 -713h-109zM636 116q-1 -15 14.5 -28.5t49.5 -13.5q33 0 48 13.5t13 28.5q0 15 -17 26.5t-43 11.5q-28 0 -46.5 -10.5t-18.5 -27.5zM536 116q0 20 12.5 42.5t37.5 34.5q-18 9 -28.5 29.5t-10.5 40.5q0 56 42 87t109 31t111.5 -31t44.5 -87
q0 -46 -40 -66q25 -12 37 -35.5t12 -45.5q1 -64 -46 -94.5t-119 -29.5q-71 0 -117.5 30t-44.5 94zM645 262q2 -34 55 -34q49 0 51 34q1 16 -14 26.5t-39 10.5q-23 0 -38.5 -10.5t-14.5 -26.5zM195 481h-57v75h53q32 0 43 5.5t12 27.5q0 17 -15.5 27.5t-36.5 10.5
q-49 0 -62 -31h-89q0 55 46 83.5t105 28.5q60 0 107 -30t47 -88q0 -23 -13 -45t-37 -27q28 -8 44 -29t16 -46q0 -62 -51.5 -92.5t-115.5 -30.5q-60 0 -107 30t-48 87h101q7 -30 57 -30q22 0 39.5 10.5t17.5 26.5q0 15 -15 26t-41 11z" />
    <glyph glyph-name="fiveeighths" unicode="&#x215d;" horiz-adv-x="891" 
d="M584 708h112l-394 -713h-109zM630 116q-1 -15 14.5 -28.5t49.5 -13.5q33 0 48 13.5t13 28.5q0 15 -17 26.5t-43 11.5q-28 0 -46.5 -10.5t-18.5 -27.5zM530 116q0 20 12.5 42.5t37.5 34.5q-18 9 -28.5 29.5t-10.5 40.5q0 56 42 87t109 31t111.5 -31t44.5 -87
q0 -46 -40 -66q25 -12 37 -35.5t12 -45.5q1 -64 -46 -94.5t-119 -29.5q-71 0 -117.5 30t-44.5 94zM639 262q2 -34 55 -34q49 0 51 34q1 16 -14 26.5t-39 10.5q-23 0 -38.5 -10.5t-14.5 -26.5zM323 698v-86h-184v-44h54q154 0 154 -123q0 -67 -44.5 -98.5t-104.5 -31.5
q-70 0 -113.5 30.5t-44.5 93.5h101q2 -20 19 -30t35.5 -8.5t34 13.5t15.5 31q0 20 -15 30t-37 10h-148v213h278z" />
    <glyph glyph-name="seveneighths" unicode="&#x215e;" horiz-adv-x="806" 
d="M487 708h111l-394 -713h-109zM545 116q-1 -15 14.5 -28.5t49.5 -13.5q33 0 48 13t14 29q0 15 -17.5 26.5t-43.5 11.5q-28 0 -46.5 -10.5t-18.5 -27.5zM445 116q0 20 12.5 42.5t37.5 34.5q-18 9 -28.5 29.5t-10.5 40.5q0 57 42.5 87.5t109.5 30.5q66 0 110.5 -31t44.5 -87
q0 -47 -40 -66q25 -12 37.5 -35.5t12.5 -45.5q1 -64 -46.5 -94.5t-118.5 -29.5q-71 0 -118 30t-45 94zM554 262q3 -34 55 -34q49 0 52 34q1 16 -14 26.5t-39 10.5q-23 0 -39 -10.5t-15 -26.5zM163 329h-102l134 284h-156v86h282l4 -41z" />
    <glyph glyph-name="arrowleft" unicode="&#x2190;" horiz-adv-x="630" 
d="M274 107l-244 243l245 242l75 -71l-110 -110h339v-125h-340l105 -114z" />
    <glyph glyph-name="arrowup" unicode="&#x2191;" horiz-adv-x="546" 
d="M31 392l243 244l242 -245l-71 -75l-110 110v-339h-125v340l-114 -105z" />
    <glyph glyph-name="arrowright" unicode="&#x2192;" horiz-adv-x="632" 
d="M358 593l243 -242l-244 -242l-75 71l109 109h-339v126h341l-106 114z" />
    <glyph glyph-name="arrowdown" unicode="&#x2193;" horiz-adv-x="544" 
d="M514 314l-242 -244l-242 245l70 75l110 -109v339h126v-341l114 106z" />
    <glyph glyph-name="uni2196" unicode="&#x2196;" horiz-adv-x="523" 
d="M59 197v344l343 -2l4 -102l-155 -1l240 -240l-90 -88l-240 240l-6 -155z" />
    <glyph glyph-name="uni2197" unicode="&#x2197;" horiz-adv-x="523" 
d="M116 444l4 95h343q0 -57 -0.5 -171.5t-0.5 -171.5l-102 -4q0 26 -0.5 78t-0.5 78l-241 -240l-88 90l240 240z" />
    <glyph glyph-name="uni2198" unicode="&#x2198;" horiz-adv-x="554" 
d="M123 153l-4 95l155 6l-240 240l88 90l240 -240q0 26 0.5 78t0.5 78l102 -4q0 -58 1 -172t1 -171h-344z" />
    <glyph glyph-name="uni2199" unicode="&#x2199;" horiz-adv-x="556" 
d="M436 248l-4 -95h-343q0 57 0.5 171t0.5 172l103 4q-1 -26 0 -78t0 -78l241 240l88 -90l-240 -240z" />
    <glyph glyph-name="partialdiff" unicode="&#x2202;" horiz-adv-x="579" 
d="M289 119q51 0 81.5 35.5t30.5 83.5q0 54 -29.5 86.5t-82.5 32.5q-50 0 -79 -35t-29 -83q0 -49 29 -84.5t79 -35.5zM359 459q-19 46 -96.5 83.5t-137.5 43.5l24 116q173 -13 283.5 -140.5t110.5 -311.5q-1 -116 -69 -187t-185 -71q-121 0 -188.5 72.5t-67.5 173.5
q0 84 49 150.5t121.5 86t155.5 -15.5z" />
    <glyph glyph-name="Delta" unicode="&#x2206;" horiz-adv-x="823" 
d="M796 31v-31h-768v36l298 664h170zM411 546l-178 -411h355z" />
    <glyph glyph-name="product" unicode="&#x220f;" horiz-adv-x="691" 
d="M613 -192h-145v756h-241v-756h-149v892h535v-892z" />
    <glyph glyph-name="summation" unicode="&#x2211;" horiz-adv-x="604" 
d="M394 362l-158 -218h316v-144h-511v92l189 272l-179 261v75h495v-136h-284z" />
    <glyph glyph-name="minus" unicode="&#x2212;" horiz-adv-x="524" 
d="M64 213v131h396v-131h-396z" />
    <glyph glyph-name="uni2215" unicode="&#x2215;" horiz-adv-x="484" 
d="M377 708h121l-392 -713h-121z" />
    <glyph glyph-name="uni2219" unicode="&#x2219;" horiz-adv-x="279" 
d="M53 316q0 41 27 64t59.5 23t59.5 -23t27 -64q0 -40 -27 -63t-59.5 -23t-59.5 23t-27 63z" />
    <glyph glyph-name="radical" unicode="&#x221a;" horiz-adv-x="613" 
d="M607 697l-229 -697h-98l-164 307l-72 -29l-35 85l188 85l143 -297l188 569z" />
    <glyph glyph-name="infinity" unicode="&#x221e;" horiz-adv-x="744" 
d="M213 158q-79 2 -122.5 49t-44.5 111q0 67 46.5 116.5t127.5 49.5q36 0 76.5 -25t73.5 -64q35 37 77 63t76 26q82 0 128.5 -49.5t46.5 -116.5q0 -65 -44 -111.5t-123 -48.5q-79 -4 -161 89q-82 -93 -157 -89zM215 266q40 3 91 54q-2 2 -11 10t-11.5 10.5t-10 9.5
t-11.5 9.5l-11 7t-12 6t-11.5 3t-12.5 1.5q-30 0 -47.5 -15.5t-19.5 -37.5q-2 -23 16.5 -40t50.5 -18zM529 266q31 1 48 16.5t18 37.5q0 23 -17.5 40t-48.5 17q-40 0 -92 -58q17 -19 44.5 -37t47.5 -16z" />
    <glyph glyph-name="integral" unicode="&#x222b;" horiz-adv-x="506" 
d="M173 -2v516q0 100 59.5 150.5t140.5 50.5q70 0 137 -42l-51 -108q-39 27 -75 27q-29 0 -48 -20t-19 -58v-516q0 -99 -61 -149.5t-143 -50.5q-61 0 -118 36l51 108q2 -1 8 -4.5t7.5 -4.5t6 -3.5t5.5 -3t4.5 -2t5.5 -1.5t5.5 -1t6.5 -1h7q29 0 50 20t21 57z" />
    <glyph glyph-name="approxequal" unicode="&#x2248;" horiz-adv-x="584" 
d="M147 320l-86 48q22 52 63.5 82t92.5 23q31 -4 84.5 -27t77.5 -27q42 -7 55 40l89 -36q-13 -71 -54 -97t-96 -12q-24 6 -74.5 24.5t-74.5 23.5q-54 11 -77 -42zM147 110l-86 48q22 52 63.5 82t92.5 23q31 -4 84.5 -27t77.5 -27q42 -7 55 40l89 -36q-13 -71 -54 -97
t-96 -12q-24 6 -74.5 24.5t-74.5 23.5q-54 11 -77 -42z" />
    <glyph glyph-name="notequal" unicode="&#x2260;" horiz-adv-x="589" 
d="M72 128v128h166l57 107h-223v129h297l52 92l58 -32l-35 -60h70v-129h-142l-58 -107h200v-128h-273l-53 -93l-57 33l34 60h-93z" />
    <glyph glyph-name="lessequal" unicode="&#x2264;" horiz-adv-x="456" 
d="M52 72v116h347v-116h-347zM61 438v5l239 220l85 -86l-145 -137l144 -133l-84 -86z" />
    <glyph glyph-name="greaterequal" unicode="&#x2265;" horiz-adv-x="457" 
d="M405 188v-116h-347v116h347zM396 443v-5l-239 -217l-85 86l144 133l-145 137l86 86z" />
    <glyph glyph-name="lozenge" unicode="&#x25ca;" horiz-adv-x="601" 
d="M571 351l-210 -343h-120l-212 343l212 345h120zM180 351l122 -212l117 212l-117 213z" />
    <glyph glyph-name="fi" unicode="&#xfb01;" horiz-adv-x="649" 
d="M366 581l42 111q-49 23 -96 23q-81 0 -140.5 -50.5t-59.5 -150.5v-29h-89v-125h89v-360h144v360h122v125h-122v29q0 38 19 58t48 20q20 0 43 -11zM589 495h-144v-495h144v495zM435 625q0 38 25.5 60t56.5 22t56.5 -22t25.5 -60t-25.5 -60t-56.5 -22t-56.5 22t-25.5 60z
" />
    <glyph glyph-name="fl" unicode="&#xfb02;" horiz-adv-x="652" 
d="M408 693l-42 -111q-21 10 -43 10q-29 0 -48 -20t-19 -58v-29h115v-125h-115v-360h-144v360h-89v125h89v29q0 100 59.5 150.5t140.5 50.5q49 0 96 -22zM445 700h144v-700h-144v700z" />
    <glyph glyph-name="CR" horiz-adv-x="322" 
 />
    <glyph glyph-name="_0004" horiz-adv-x="0" 
 />
    <glyph glyph-name="g.alt" horiz-adv-x="641" 
d="M306 379q-55 0 -92 -35t-37 -97q0 -61 36.5 -95t92.5 -34q60 0 93.5 41t33.5 89.5t-33.5 89.5t-93.5 41zM50 -60h143q5 -33 38 -48.5t79 -15.5q52 0 90.5 27.5t38.5 86.5v69q-46 -71 -151 -73q-113 -1 -184 70t-71 191t73.5 190.5t185.5 68.5q46 0 85.5 -19.5t57.5 -49.5
l5 56h140v-506q0 -120 -77.5 -181t-194.5 -61q-108 0 -180.5 50.5t-77.5 144.5z" />
    <glyph glyph-name="gcircumflex.alt" horiz-adv-x="641" 
d="M306 379q60 0 93.5 -41t33.5 -89.5t-33.5 -89.5t-93.5 -41q-56 0 -92.5 34t-36.5 95q0 62 37 97t92 35zM193 -60h-143q5 -94 77.5 -144.5t180.5 -50.5q117 0 194.5 61t77.5 181v506h-140l-5 -56q-18 30 -57.5 49.5t-85.5 19.5q-112 2 -185.5 -68.5t-73.5 -190.5t71 -191
t184 -70q105 2 151 73v-69q0 -59 -38.5 -86.5t-90.5 -27.5q-46 0 -79 15.5t-38 48.5zM509 576v-6h-145l-44 43l-51 -43h-140v6l155 140h75z" />
    <glyph glyph-name="gbreve.alt" horiz-adv-x="641" 
d="M365 713h116q0 -71 -46 -108.5t-115 -37.5q-70 0 -119 38.5t-43 107.5h117q0 -47 45 -47t45 47zM306 379q-55 0 -92 -35t-37 -97q0 -61 36.5 -95t92.5 -34q60 0 93.5 41t33.5 89.5t-33.5 89.5t-93.5 41zM50 -60h143q5 -33 38 -48.5t79 -15.5q52 0 90.5 27.5t38.5 86.5v69
q-46 -71 -151 -73q-113 -1 -184 70t-71 191t73.5 190.5t185.5 68.5q46 0 85.5 -19.5t57.5 -49.5l5 56h140v-506q0 -120 -77.5 -181t-194.5 -61q-108 0 -180.5 50.5t-77.5 144.5z" />
    <glyph glyph-name="gdotaccent.alt" horiz-adv-x="641" 
d="M233 642q0 37 25.5 58t56.5 21t56.5 -21t25.5 -58q0 -36 -25.5 -56t-56.5 -20t-56.5 20t-25.5 56zM306 379q60 0 93.5 -41t33.5 -89.5t-33.5 -89.5t-93.5 -41q-56 0 -92.5 34t-36.5 95q0 62 37 97t92 35zM193 -60h-143q5 -94 77.5 -144.5t180.5 -50.5q117 0 194.5 61
t77.5 181v506h-140l-5 -56q-18 30 -57.5 49.5t-85.5 19.5q-112 2 -185.5 -68.5t-73.5 -190.5t71 -191t184 -70q105 2 151 73v-69q0 -59 -38.5 -86.5t-90.5 -27.5q-46 0 -79 15.5t-38 48.5z" />
    <glyph glyph-name="gcommaaccent.alt" horiz-adv-x="641" 
d="M234 648q0 18 5 34t18.5 45t22.5 53h77l-16 -77q54 -8 54 -59q0 -30 -16.5 -49.5t-40.5 -23.5t-47.5 1t-40 26t-16.5 50zM306 379q60 0 93.5 -41t33.5 -89.5t-33.5 -89.5t-93.5 -41q-56 0 -92.5 34t-36.5 95q0 62 37 97t92 35zM193 -60h-143q5 -94 77.5 -144.5
t180.5 -50.5q117 0 194.5 61t77.5 181v506h-140l-5 -56q-18 30 -57.5 49.5t-85.5 19.5q-112 2 -185.5 -68.5t-73.5 -190.5t71 -191t184 -70q105 2 151 73v-69q0 -59 -38.5 -86.5t-90.5 -27.5q-46 0 -79 15.5t-38 48.5z" />
    <glyph glyph-name="commaaccent" horiz-adv-x="382" 
d="M220 -286h-76l15 104q-54 8 -54 60q0 29 16.5 48.5t39.5 23.5t46.5 -1t40.5 -24.5t18 -47.5q-2 -29 -46 -163z" />
    <glyph glyph-name="commaaccent.alt" horiz-adv-x="406" 
d="M156 775h76l-15 -104q54 -8 54 -60q0 -29 -16.5 -48.5t-39.5 -23.5t-46.5 1t-40.5 24.5t-18 47.5q2 29 46 163z" />
    <glyph glyph-name="zero.tf" horiz-adv-x="711" 
d="M199 401v-101q0 -89 43 -135.5t113 -46.5q71 0 114 46.5t43 135.5v101q0 87 -42.5 133t-111.5 46q-71 0 -115 -45.5t-44 -133.5zM44 300v102q0 156 89 238t225 82q134 0 221 -83t87 -237v-101q0 -153 -88 -237t-218 -84q-85 0 -155 33t-115.5 107.5t-45.5 179.5z" />
    <glyph glyph-name="one.tf" horiz-adv-x="711" 
d="M111 0v131h180v371l-161 -53v139l314 112v-569h182v-131h-515z" />
    <glyph glyph-name="two.tf" horiz-adv-x="711" 
d="M227 492h-150q3 59 28 102.5t65.5 67.5t87.5 35.5t101 11.5q120 0 200.5 -56.5t80.5 -163.5q0 -122 -74 -172.5t-206 -50.5q-28 0 -48.5 -3t-44.5 -11.5t-37.5 -29t-13.5 -51.5v-27h419v-144h-566v172q0 54 17.5 95.5t45 66.5t67 41t78 21.5t83.5 5.5q50 0 88.5 19
t38.5 65q0 43 -34 66.5t-94 23.5q-52 0 -90.5 -22t-41.5 -62z" />
    <glyph glyph-name="three.tf" horiz-adv-x="711" 
d="M358 295h-107v127h97q130 0 131 69q0 30 -29 54.5t-98 24.5q-115 0 -128 -68h-155q5 57 31 99t66.5 65.5t87 34.5t99.5 11q63 0 119 -16.5t101.5 -58.5t55.5 -105q10 -58 -14.5 -105t-74.5 -69q60 -25 86.5 -76t17.5 -115q-30 -181 -297 -181q-114 0 -197.5 56.5
t-91.5 170.5h157q11 -88 133 -88q20 0 40.5 3t44.5 11.5t39 26.5t15 44q0 85 -129 85z" />
    <glyph glyph-name="four.tf" horiz-adv-x="711" 
d="M421 699h155v-438h80v-135h-80v-127h-153v127h-373l-13 160zM197 261h226v249z" />
    <glyph glyph-name="five.tf" horiz-adv-x="711" 
d="M604 699v-140h-368v-108h123q60 0 108.5 -10.5t89.5 -35t63.5 -71t22.5 -111.5q0 -62 -25.5 -108.5t-67 -72.5t-89 -38.5t-98.5 -12.5q-131 0 -208 53.5t-78 171.5h154q0 -43 39.5 -65t90.5 -22q25 0 51 6t51.5 28.5t25.5 59.5q0 28 -13 47.5t-34.5 29t-42 13.5t-40.5 4
h-268v382h513z" />
    <glyph glyph-name="six.tf" horiz-adv-x="711" 
d="M219 474v-78q32 35 70 49.5t94 14.5q119 0 197.5 -61t78.5 -174q0 -61 -25 -108t-67 -74.5t-93.5 -41t-109.5 -13.5q-122 0 -209.5 60t-87.5 179v247q0 78 43 134t107.5 81t141.5 25q126 0 204 -50.5t83 -162.5h-146q-8 41 -48 60.5t-94 19.5q-57 0 -97.5 -29.5
t-41.5 -77.5zM364 126q60 0 100 27t40 72q0 48 -37.5 75.5t-101.5 27.5q-65 0 -105 -27.5t-39 -75.5q1 -46 40.5 -72.5t102.5 -26.5z" />
    <glyph glyph-name="seven.tf" horiz-adv-x="711" 
d="M334 0h-175l261 558h-314v142h515l5 -77z" />
    <glyph glyph-name="eight.tf" horiz-adv-x="711" 
d="M355 300q-63 0 -103 -23.5t-41 -63.5q-1 -35 32.5 -63.5t111.5 -28.5t111.5 28.5t31.5 63.5q-1 40 -38.5 63.5t-104.5 23.5zM47 221q1 37 29.5 80.5t80.5 61.5q-49 27 -71 72t-15 98q11 87 89 135t193 48q123 0 201 -48.5t89 -140.5q6 -51 -18 -93t-71 -63
q57 -21 82.5 -65t26.5 -85q2 -81 -42 -136.5t-113 -78.5t-155 -22q-85 1 -152 23.5t-111.5 77.5t-42.5 136zM228 504q2 -37 35.5 -62t91.5 -25t91 25t35 62q2 33 -31 59t-97 26q-69 0 -98 -28.5t-27 -56.5z" />
    <glyph glyph-name="nine.tf" horiz-adv-x="711" 
d="M493 228v78q-32 -35 -70 -49.5t-94 -14.5q-119 0 -197.5 61t-78.5 174q0 61 25 108t67 74.5t93.5 41t109.5 13.5q122 0 209.5 -60t87.5 -179v-247q0 -63 -25.5 -111t-69.5 -75.5t-95.5 -40.5t-109.5 -13q-127 0 -206.5 51t-84.5 162h146q8 -40 49.5 -58.5t96.5 -18.5
q61 0 103.5 26t43.5 78zM348 576q-60 0 -100 -27t-40 -72q0 -48 37.5 -75.5t101.5 -27.5q65 0 105 27.5t39 75.5q-1 46 -40.5 72.5t-102.5 26.5z" />
    <glyph glyph-name="Euro.tf" horiz-adv-x="711" 
d="M87 211v109h59v25q0 20 1 31h-60v111h83q37 103 124.5 166t222.5 63q60 0 111 -17l-43 -131q-34 9 -68 9q-121 0 -182 -90h197l-24 -111h-212q-2 -22 -2 -34q0 -15 1 -22h195l-22 -109h-137q35 -49 89.5 -69.5t96.5 -20.5q38 0 76 13l44 -135q-54 -15 -120 -15
q-139 0 -228.5 59.5t-123.5 167.5h-78z" />
    <glyph glyph-name="cent.tf" horiz-adv-x="711" 
d="M505 149l89 -102q-48 -51 -136 -70v-76h-132v78q-91 25 -145.5 89.5t-54.5 164.5q0 95 53.5 161.5t146.5 92.5v77h132v-76q72 -16 126 -69l-82 -89q-35 36 -103 36q-51 0 -90.5 -38.5t-39.5 -94.5q0 -57 39 -94t91 -37q66 0 106 47z" />
    <glyph glyph-name="sterling.tf" horiz-adv-x="711" 
d="M284 472q0 -32 12 -82h198v-125h-170q0 -37 -14.5 -77t-47.5 -47h377v-141h-561v142q51 1 70.5 33.5t22.5 89.5h-93v125h69q-13 42 -15 81q-5 106 63 173.5t190 67.5q112 0 177 -57.5t63 -162.5h-135q-1 85 -105 85q-42 0 -71.5 -28t-29.5 -77z" />
    <glyph glyph-name="florin.tf" horiz-adv-x="711" 
d="M567 356h-144v-361q0 -70 -30 -118t-76 -65.5t-101.5 -11.5t-106.5 38l49 101q53 -30 87 -15t34 71v361h-135v121h135v37q0 99 59.5 149t140.5 50q70 0 137 -42l-49 -101q-33 20 -71 20q-34 0 -53.5 -19t-19.5 -57v-37h144v-121z" />
    <glyph glyph-name="yen.tf" horiz-adv-x="711" 
d="M124 102v107h150v58h-150v107h94l-213 318v8h176l88 -142l82 -145l86 144l93 143h179v-8l-223 -318h92v-107h-151v-58h151v-107h-151v-102h-153v102h-150z" />
    <glyph glyph-name="dollar.tf" horiz-adv-x="711" 
d="M643 581l-123 -57q-15 32 -61 55.5t-102 23.5q-58 0 -99 -22t-42 -64q0 -21 12 -36.5t35 -23.5t46 -12t55 -7q50 -5 90 -13.5t83 -25.5t71.5 -41.5t47 -64.5t18.5 -91q0 -98 -61.5 -155.5t-179.5 -69.5v-95h-137v94q-90 9 -163.5 57.5t-104.5 123.5l130 63
q22 -47 79.5 -78t119.5 -31q78 0 119 18.5t41 72.5q0 83 -165 96q-52 5 -88 11t-77 21.5t-66.5 37.5t-42 60t-16.5 89q1 93 69 145.5t169 60.5v83h132v-83q152 -17 211 -142z" />
    <glyph glyph-name="zero.denom" horiz-adv-x="410" 
d="M134 207v-56q0 -33 22 -51.5t48.5 -18.5t48.5 18.5t22 51.5v56q0 34 -22 53t-48.5 19.5t-48.5 -19t-22 -53.5zM36 154v54q0 45 18.5 80t48.5 53.5t66 27t72 0t66 -27t48.5 -53.5t18.5 -80v-54q0 -53 -25 -92t-62.5 -56.5t-81.5 -17.5t-81.5 17.5t-62.5 56.5t-25 92z" />
    <glyph glyph-name="one.denom" horiz-adv-x="285" 
d="M35 0v83h62v176l-52 -11v84l152 40v-289h64v-83h-226z" />
    <glyph glyph-name="two.denom" horiz-adv-x="378" 
d="M136 263h-98q1 54 45 85.5t103 31.5q69 0 112 -31.5t43 -91.5q0 -41 -21.5 -67t-52.5 -36t-62 -16.5t-52.5 -16t-21.5 -25.5h207v-96h-302v96q0 40 21 65t51 35t59.5 16.5t50.5 16.5t21 28q0 22 -24 30.5t-49.5 1t-29.5 -25.5z" />
    <glyph glyph-name="three.denom" horiz-adv-x="384" 
d="M190 149h-58v75h54q56 0 56 35q0 33 -56 35q-22 1 -39.5 -7t-20.5 -23h-89q0 56 45.5 84.5t105.5 28.5t107 -31t47 -88q0 -51 -48 -72q25 -8 40.5 -31t15.5 -50q0 -64 -47.5 -90.5t-113.5 -26.5q-61 0 -109.5 30t-49.5 87h105q4 -28 53 -28q23 0 40 9.5t17 27.5
q0 35 -55 35z" />
    <glyph glyph-name="four.denom" horiz-adv-x="401" 
d="M190 370h130v-224h45v-85h-45v-61h-100v61h-193l-4 86zM220 146v127l-95 -127h95z" />
    <glyph glyph-name="five.denom" horiz-adv-x="376" 
d="M322 370v-86h-184v-44h54q154 0 154 -123q0 -67 -44.5 -98.5t-104.5 -31.5q-70 0 -113.5 30.5t-44.5 93.5h101q2 -20 19 -30t35.5 -8.5t34 13.5t15.5 31q0 20 -15 30t-37 10h-148v213h278z" />
    <glyph glyph-name="six.denom" horiz-adv-x="386" 
d="M251 118q0 19 -16 29t-39 10t-39.5 -10t-15.5 -29q0 -18 16 -28t38 -10q23 0 39.5 10t16.5 28zM344 264h-94q-3 22 -30 29t-53 -3t-26 -31v-40q26 16 62 18.5t69.5 -8t57 -40t23.5 -71.5q0 -60 -47 -92t-110 -32q-62 0 -108.5 33.5t-46.5 91.5v140q0 56 45.5 86.5
t108.5 30.5q65 0 106 -27.5t43 -84.5z" />
    <glyph glyph-name="seven.denom" horiz-adv-x="329" 
d="M163 0h-112l133 278h-156v92h283l4 -41z" />
    <glyph glyph-name="eight.denom" horiz-adv-x="394" 
d="M135 114q-1 -15 14.5 -28t49.5 -13q33 0 48 13t14 28q0 16 -17.5 27.5t-43.5 11.5q-28 0 -46.5 -10.5t-18.5 -28.5zM33 115q0 19 15 42t40 35q-19 9 -31.5 30t-12.5 40q0 57 42.5 87.5t109.5 30.5q66 0 110.5 -31t44.5 -86q0 -45 -45 -67q26 -12 40.5 -35.5t14.5 -46.5
q1 -65 -46.5 -95t-118.5 -28q-71 0 -118 30t-45 94zM199 226q25 0 38 10t13 25t-14.5 26t-37.5 11q-25 0 -39 -10.5t-14 -25.5t14.5 -25.5t39.5 -10.5z" />
    <glyph glyph-name="nine.denom" horiz-adv-x="387" 
d="M136 251q0 -19 16 -29t39 -10t39.5 10t15.5 29q0 18 -16 28t-38 10q-23 0 -39.5 -10t-16.5 -28zM38 105h96q3 -22 31 -29t54.5 3t26.5 31v40q-26 -16 -62 -18.5t-69.5 8t-57 40t-23.5 71.5q0 60 47 92t110 32q62 0 108.5 -33.5t46.5 -91.5v-140q0 -57 -45.5 -88
t-108.5 -31q-68 0 -110 27.5t-44 86.5z" />
    <glyph glyph-name="zero.num" horiz-adv-x="410" 
d="M134 548v-56q0 -33 22 -51.5t48.5 -18.5t48.5 18.5t22 51.5v56q0 34 -22 53t-48.5 19.5t-48.5 -19t-22 -53.5zM36 495v54q0 45 18.5 80t48.5 53.5t66 27t72 0t66 -27t48.5 -53.5t18.5 -80v-54q0 -53 -25 -92t-62.5 -56.5t-81.5 -17.5t-81.5 17.5t-62.5 56.5t-25 92z" />
    <glyph glyph-name="one.num" horiz-adv-x="285" 
d="M35 340v83h62v176l-52 -11v84l152 40v-289h64v-83h-226z" />
    <glyph glyph-name="two.num" horiz-adv-x="376" 
d="M135 593h-98q1 54 45 85.5t103 31.5q69 0 112 -31.5t43 -91.5q0 -41 -21.5 -67t-52.5 -36t-62 -16.5t-52.5 -16t-21.5 -25.5h207v-96h-302v96q0 40 21 65t50.5 35t59.5 16.5t51 16.5t21 28q0 22 -24 30.5t-49.5 1t-29.5 -25.5z" />
    <glyph glyph-name="three.num" horiz-adv-x="384" 
d="M190 484h-58v75h54q56 0 56 35q0 33 -56 35q-22 1 -39.5 -7t-20.5 -23h-89q0 56 45.5 84.5t105.5 28.5t107 -31t47 -88q0 -51 -48 -72q25 -8 40.5 -31t15.5 -50q0 -64 -47.5 -90.5t-113.5 -26.5q-61 0 -109.5 30t-49.5 87h105q4 -28 53 -28q23 0 40 9.5t17 27.5
q0 35 -55 35z" />
    <glyph glyph-name="four.num" horiz-adv-x="401" 
d="M190 704h130v-224h45v-85h-45v-61h-100v61h-193l-4 86zM220 480v127l-95 -127h95z" />
    <glyph glyph-name="five.num" horiz-adv-x="379" 
d="M325 701v-86h-184v-44h54q154 0 154 -123q0 -67 -44.5 -98.5t-104.5 -31.5q-70 0 -113.5 30.5t-44.5 93.5h101q2 -20 19 -30t35.5 -8.5t34 13.5t15.5 31q0 20 -15 30t-37 10h-148v213h278z" />
    <glyph glyph-name="six.num" horiz-adv-x="386" 
d="M251 454q0 19 -16 29t-39 10t-39.5 -10t-15.5 -29q0 -18 16 -28t38 -10q23 0 39.5 10t16.5 28zM344 600h-94q-3 22 -30 29t-53 -3t-26 -31v-40q26 16 62 18.5t69.5 -8t57 -40t23.5 -71.5q0 -60 -47 -92t-110 -32q-62 0 -108.5 33.5t-46.5 91.5v140q0 56 45.5 86.5
t108.5 30.5q65 0 106 -27.5t43 -84.5z" />
    <glyph glyph-name="seven.num" horiz-adv-x="329" 
d="M163 332h-112l133 278h-156v92h283l4 -41z" />
    <glyph glyph-name="eight.num" horiz-adv-x="394" 
d="M135 448q-1 -15 14.5 -28t49.5 -13q33 0 48 13t14 28q0 16 -17.5 27.5t-43.5 11.5q-28 0 -46.5 -10.5t-18.5 -28.5zM33 449q0 19 15 42t40 35q-19 9 -31.5 30t-12.5 40q0 57 42.5 87.5t109.5 30.5q66 0 110.5 -31t44.5 -86q0 -45 -45 -67q26 -12 40.5 -35.5t14.5 -46.5
q1 -65 -46.5 -95t-118.5 -28q-71 0 -118 30t-45 94zM199 560q25 0 38 10t13 25t-14.5 26t-37.5 11q-25 0 -39 -10.5t-14 -25.5t14.5 -25.5t39.5 -10.5z" />
    <glyph glyph-name="nine.num" horiz-adv-x="387" 
d="M136 586q0 -19 16 -29t39 -10t39.5 10t15.5 29q0 18 -16 28t-38 10q-23 0 -39.5 -10t-16.5 -28zM38 440h96q3 -22 31 -29t54.5 3t26.5 31v40q-26 -16 -62 -18.5t-69.5 8t-57 40t-23.5 71.5q0 60 47 92t110 32q62 0 108.5 -33.5t46.5 -91.5v-140q0 -57 -45.5 -88
t-108.5 -31q-68 0 -110 27.5t-44 86.5z" />
    <glyph glyph-name="parenleft.case" horiz-adv-x="373" 
d="M278 820l72 -99q-79 -66 -121 -165t-41 -205q0 -117 39.5 -214.5t117.5 -161.5l-72 -97q-234 155 -234 473q0 150 64 270.5t175 198.5z" />
    <glyph glyph-name="parenright.case" horiz-adv-x="373" 
d="M23 721l72 99q111 -78 175 -198.5t64 -270.5q0 -318 -234 -473l-72 97q78 64 117.5 161.5t39.5 214.5q1 106 -41 205t-121 165z" />
    <glyph glyph-name="hyphen.case" horiz-adv-x="503" 
d="M64 274v127h375v-127h-375z" />
    <glyph glyph-name="bracketleft.case" horiz-adv-x="377" 
d="M335 -92h-256v882h256v-121h-114v-638h114v-123z" />
    <glyph glyph-name="bracketright.case" horiz-adv-x="378" 
d="M299 -94h-256v123h114v638h-114v121h256v-882z" />
    <glyph glyph-name="braceleft.case" horiz-adv-x="370" 
d="M326 12v-111q-110 -21 -167 23t-57 139v149q0 21 -3.5 35t-19.5 26.5t-45 12.5v107q42 0 55 20.5t13 53.5v141q0 214 224 173v-113q-41 9 -62 -11t-21 -57v-133v-18v-17.5t-0.5 -15t-2 -15t-4 -12.5t-6 -13t-8.5 -10.5t-12 -10.5t-16.5 -8.5t-20.5 -7.5q13 -4 23 -8
t17 -11t12.5 -10.5t8.5 -13.5t5 -13t3 -16.5t1 -16v-19.5v-19v-130q0 -48 15.5 -61t67.5 -9z" />
    <glyph glyph-name="bar.case" horiz-adv-x="295" 
d="M216 750v-839h-137v839h137z" />
    <glyph glyph-name="braceright.case" horiz-adv-x="370" 
d="M44 -99v111q52 -4 67.5 9t15.5 61v130v17.5v17t0.5 15t2 15t4 13t6 13t8.5 10t12 10.5t16.5 8.5t20.5 7.5q-11 3 -20.5 7.5t-16.5 8.5t-12 10.5t-8.5 10.5t-6 13t-4 12.5t-2 15t-0.5 15v17.5v18v133q0 37 -21 57t-62 11v113q224 41 224 -173v-141q0 -33 13 -53.5
t55 -20.5v-107q-29 0 -45 -12.5t-19.5 -26.5t-3.5 -35v-149q0 -95 -57 -139t-167 -23z" />
    <glyph glyph-name="guilsinglleft.case" horiz-adv-x="401" 
d="M50 338l139 221h153v2l-139 -223q98 -162 139 -223h-153z" />
    <glyph glyph-name="guilsinglright.case" horiz-adv-x="401" 
d="M213 563l139 -222l-139 -223h-153l138 223l-138 223v-1h153z" />
    <glyph glyph-name="guillemotleft.case" horiz-adv-x="598" 
d="M51 356l139 221h153v2l-139 -223q98 -162 139 -223h-153zM248 356l139 221h153v2l-139 -223l139 -223h-153z" />
    <glyph glyph-name="guillemotright.case" horiz-adv-x="597" 
d="M408 577l139 -222l-139 -222h-154l139 222l-139 224v-2h154zM211 577l139 -222l-139 -222h-153l139 222l-139 224v-2h153z" />
    <glyph glyph-name="endash.case" horiz-adv-x="609" 
d="M64 265v125h481v-125h-481z" />
    <glyph glyph-name="emdash.case" horiz-adv-x="702" 
d="M64 266v125h574v-125h-574z" />
    <glyph glyph-name="bullet.case" horiz-adv-x="419" 
d="M211 183q-61 0 -100.5 37t-39.5 98q0 60 39.5 98t100.5 38q59 0 98 -38t39 -98t-39 -97.5t-98 -37.5z" />
    <glyph glyph-name="periodcentered.case" horiz-adv-x="298" 
d="M62 329q0 40 27 63t60 23t60 -23t27 -63q0 -41 -27 -64t-60 -23t-60 23t-27 64z" />
    <glyph glyph-name="a.alt" horiz-adv-x="559" 
d="M243 508q59 0 102.5 -8.5t81 -29t57 -60.5t19.5 -98v-312h-122l-11 49q-53 -55 -153 -55q-81 0 -135.5 42t-54.5 125q0 77 59.5 120.5t141.5 43.5q30 0 69 -8.5t64 -23.5v19q0 73 -118 73q-76 0 -157 -33l-21 111q95 45 178 45zM171 161q0 -51 81 -51q36 0 67 17t41 56
q-37 31 -99 29q-90 0 -90 -51z" />
    <glyph glyph-name="agrave.alt" horiz-adv-x="559" 
d="M125 705v7h169l64 -133v-7h-126zM243 508q59 0 102.5 -8.5t81 -29t57 -60.5t19.5 -98v-312h-122l-11 49q-53 -55 -153 -55q-81 0 -135.5 42t-54.5 125q0 77 59.5 120.5t141.5 43.5q30 0 69 -8.5t64 -23.5v19q0 73 -118 73q-76 0 -157 -33l-21 111q95 45 178 45zM171 161
q0 -51 81 -51q36 0 67 17t41 56q-37 31 -99 29q-90 0 -90 -51z" />
    <glyph glyph-name="aacute.alt" horiz-adv-x="559" 
d="M432 712v-7l-107 -133h-127v7l65 133h169zM243 508q-83 0 -178 -45l21 -111q81 33 157 33q118 0 118 -73v-19q-25 15 -64 23.5t-69 8.5q-82 0 -141.5 -43.5t-59.5 -120.5q0 -83 54.5 -125t135.5 -42q100 0 153 55l11 -49h122v312q0 58 -19.5 98t-57 60.5t-81 29
t-102.5 8.5zM171 161q0 51 90 51q62 2 99 -29q-10 -39 -41 -56t-67 -17q-81 0 -81 51z" />
    <glyph glyph-name="acircumflex.alt" horiz-adv-x="559" 
d="M240 716h76l151 -138v-6h-146l-44 45l-42 -45h-146v6zM243 508q-83 0 -178 -45l21 -111q81 33 157 33q118 0 118 -73v-19q-25 15 -64 23.5t-69 8.5q-82 0 -141.5 -43.5t-59.5 -120.5q0 -83 54.5 -125t135.5 -42q100 0 153 55l11 -49h122v312q0 58 -19.5 98t-57 60.5
t-81 29t-102.5 8.5zM171 161q0 51 90 51q62 2 99 -29q-10 -39 -41 -56t-67 -17q-81 0 -81 51z" />
    <glyph glyph-name="atilde.alt" horiz-adv-x="559" 
d="M181 574l-88 50q24 50 64 77t91 15q11 -3 33.5 -14t32.5 -13q32 -10 54 26l93 -46q-25 -59 -60.5 -81t-72.5 -11q-11 3 -45 18.5t-51 16.5q-26 -3 -51 -38zM243 508q59 0 102.5 -8.5t81 -29t57 -60.5t19.5 -98v-312h-122l-11 49q-53 -55 -153 -55q-81 0 -135.5 42
t-54.5 125q0 77 59.5 120.5t141.5 43.5q30 0 69 -8.5t64 -23.5v19q0 73 -118 73q-76 0 -157 -33l-21 111q95 45 178 45zM171 161q0 -51 81 -51q36 0 67 17t41 56q-37 31 -99 29q-90 0 -90 -51z" />
    <glyph glyph-name="adieresis.alt" horiz-adv-x="559" 
d="M90 644q0 50 39.5 70t79 0t39.5 -70q0 -37 -24.5 -58t-54.5 -21t-54.5 21t-24.5 58zM324 644q0 50 39.5 70t79 0t39.5 -70q0 -37 -24.5 -58t-54.5 -21t-54.5 21t-24.5 58zM243 508q-83 0 -178 -45l21 -111q81 33 157 33q118 0 118 -73v-19q-25 15 -64 23.5t-69 8.5
q-82 0 -141.5 -43.5t-59.5 -120.5q0 -83 54.5 -125t135.5 -42q100 0 153 55l11 -49h122v312q0 58 -19.5 98t-57 60.5t-81 29t-102.5 8.5zM171 161q0 51 90 51q62 2 99 -29q-10 -39 -41 -56t-67 -17q-81 0 -81 51z" />
    <glyph glyph-name="amacron.alt" horiz-adv-x="559" 
d="M106 596v114h355v-114h-355zM243 508q59 0 102.5 -8.5t81 -29t57 -60.5t19.5 -98v-312h-122l-11 49q-53 -55 -153 -55q-81 0 -135.5 42t-54.5 125q0 77 59.5 120.5t141.5 43.5q30 0 69 -8.5t64 -23.5v19q0 73 -118 73q-76 0 -157 -33l-21 111q95 45 178 45zM171 161
q0 -51 81 -51q36 0 67 17t41 56q-37 31 -99 29q-90 0 -90 -51z" />
    <glyph glyph-name="abreve.alt" horiz-adv-x="559" 
d="M320 711h116q4 -67 -43 -109t-114 -42q-69 0 -120 40t-43 111h117q0 -24 14.5 -35t28.5 -11q15 0 29.5 11t14.5 35zM243 508q59 0 102.5 -8.5t81 -29t57 -60.5t19.5 -98v-312h-122l-11 49q-53 -55 -153 -55q-81 0 -135.5 42t-54.5 125q0 77 59.5 120.5t141.5 43.5
q30 0 69 -8.5t64 -23.5v19q0 73 -118 73q-76 0 -157 -33l-21 111q95 45 178 45zM171 161q0 -51 81 -51q36 0 67 17t41 56q-37 31 -99 29q-90 0 -90 -51z" />
    <glyph glyph-name="aring.alt" horiz-adv-x="559" 
d="M144 673q0 56 39.5 87t94.5 31q52 0 91.5 -31.5t39.5 -86.5q0 -54 -40 -84t-91 -30q-53 0 -93.5 30t-40.5 84zM275 719q-25 0 -39.5 -14t-14.5 -30.5t14.5 -30.5t39.5 -14q34 0 47.5 22t-1 44.5t-46.5 22.5zM243 508q59 0 102.5 -8.5t81 -29t57 -60.5t19.5 -98v-312h-122
l-11 49q-53 -55 -153 -55q-81 0 -135.5 42t-54.5 125q0 77 59.5 120.5t141.5 43.5q30 0 69 -8.5t64 -23.5v19q0 73 -118 73q-76 0 -157 -33l-21 111q95 45 178 45zM171 161q0 -51 81 -51q36 0 67 17t41 56q-37 31 -99 29q-90 0 -90 -51z" />
    <glyph glyph-name="aringacute.alt" horiz-adv-x="559" 
d="M159 638q0 -50 38 -76.5t88 -26.5q48 0 85 26.5t37 76.5q0 49 -37 77t-86 28q-50 0 -87.5 -28t-37.5 -77zM282 678q30 0 43.5 -20t1 -39.5t-44.5 -19.5q-31 0 -44 19.5t-0.5 39.5t44.5 20zM466 870v-4l-115 -100h-125v5l73 99h167zM243 508q-83 0 -178 -45l21 -111
q81 33 157 33q118 0 118 -73v-19q-25 15 -64 23.5t-69 8.5q-82 0 -141.5 -43.5t-59.5 -120.5q0 -83 54.5 -125t135.5 -42q100 0 153 55l11 -49h122v312q0 58 -19.5 98t-57 60.5t-81 29t-102.5 8.5zM171 161q0 51 90 51q62 2 99 -29q-10 -39 -41 -56t-67 -17q-81 0 -81 51z
" />
    <glyph glyph-name="aogonek.alt" horiz-adv-x="559" 
d="M243 508q59 0 102.5 -8.5t81 -29t57 -60.5t19.5 -98v-364q-18 4 -46 0t-48.5 -19.5t-13.5 -37.5q5 -10 22 -15t35 -1q16 3 35 13l71 -56q-22 -34 -64.5 -49.5t-88.5 -9.5q-42 6 -75 28t-41 60q-5 9 -2 28t10 38.5t30 39.5t58 31l-12 51q-53 -55 -156 -55q-81 0 -135.5 42
t-54.5 125q0 77 59.5 120.5t141.5 43.5q30 0 69 -8.5t64 -23.5v19q0 73 -118 73q-76 0 -157 -33l-21 111q95 45 178 45zM171 161q0 -51 81 -51q36 0 67 17t41 56q-37 31 -99 29q-90 0 -90 -51z" />
    <glyph glyph-name="y.alt" horiz-adv-x="614" 
d="M53 494h144v-252q0 -51 26 -85.5t75 -34.5t80.5 36.5t31.5 88.5v247h143v-508q0 -119 -71.5 -181.5t-168.5 -62.5q-101 0 -169 49.5t-81 148.5h139q17 -66 107 -66q41 0 74 30t33 81v74q-34 -44 -69 -55.5t-96 -11.5q-88 0 -143 66.5t-55 182.5v253z" />
    <glyph glyph-name="yacute.alt" horiz-adv-x="614" 
d="M467 701v-6l-117 -144h-126v7l75 143h168zM197 494h-144v-253q0 -116 55 -182.5t143 -66.5q61 0 96 11.5t69 55.5v-74q0 -51 -33 -81t-74 -30q-90 0 -107 66h-139q13 -99 81 -148.5t169 -49.5q97 0 168.5 62.5t71.5 181.5v508h-143v-247q0 -52 -31.5 -88.5t-80.5 -36.5
t-75 34.5t-26 85.5v252z" />
    <glyph glyph-name="ycircumflex.alt" horiz-adv-x="614" 
d="M197 494h-144v-253q0 -116 55 -182.5t143 -66.5q61 0 96 11.5t69 55.5v-74q0 -51 -33 -81t-74 -30q-90 0 -107 66h-139q13 -99 81 -148.5t169 -49.5q97 0 168.5 62.5t71.5 181.5v508h-143v-247q0 -52 -31.5 -88.5t-80.5 -36.5t-75 34.5t-26 85.5v252zM264 723h83
l166 -146v-5h-160l-48 45l-49 -45h-159v5z" />
    <glyph glyph-name="ydieresis.alt" horiz-adv-x="614" 
d="M96 628q0 50 40 70.5t79.5 0t39.5 -70.5q0 -37 -25 -58t-54.5 -21t-54.5 21t-25 58zM358 628q0 50 40 70.5t80 0t40 -70.5t-40 -70t-80 0t-40 70zM197 494h-144v-253q0 -116 55 -182.5t143 -66.5q61 0 96 11.5t69 55.5v-74q0 -51 -33 -81t-74 -30q-90 0 -107 66h-139
q13 -99 81 -148.5t169 -49.5q97 0 168.5 62.5t71.5 181.5v508h-143v-247q0 -52 -31.5 -88.5t-80.5 -36.5t-75 34.5t-26 85.5v252z" />
    <glyph glyph-name="ygrave.alt" horiz-adv-x="614" 
d="M137 695v6h169l75 -143v-7h-127zM53 494h144v-252q0 -51 26 -85.5t75 -34.5t80.5 36.5t31.5 88.5v247h143v-508q0 -119 -71.5 -181.5t-168.5 -62.5q-101 0 -169 49.5t-81 148.5h139q17 -66 107 -66q41 0 74 30t33 81v74q-34 -44 -69 -55.5t-96 -11.5q-88 0 -143 66.5
t-55 182.5v253z" />
    </font>
</defs>
</svg>
